<svg xmlns="http://www.w3.org/2000/svg" xmlns:xlink="http://www.w3.org/1999/xlink" xmlns:lucid="lucid" width="1777" height="1113"><g transform="translate(781 -1)" lucid:page-tab-id="0_0"><path d="M-420 132.38a6 6 0 0 1 6-6h388a6 6 0 0 1 6 6V994a6 6 0 0 1-6 6h-388a6 6 0 0 1-6-6z" fill="#fff" fill-opacity="0"/><path d="M-419.1 129.26l.25-.4.6-.72.72-.6.4-.26m1.73-.7l.46-.12.94-.08h1.5m1.98 0h3m1.98 0h2.98m2 0h2.98m1.98 0h3m1.98 0h2.98m2 0h2.98m2 0h2.97m2 0h3m1.98 0h2.98m2 0h2.98m2 0h2.97m2 0h3m1.97 0h3m1.98 0h2.98m2 0h2.98m2 0h2.98m2 0h2.98m2 0h2.97m2 0h2.98m2 0h2.98m2 0h2.97m2 0h2.98m2 0h2.97m2 0h2.98m2 0h2.97m2 0h2.98m2 0h2.97m2 0h2.97m2 0h2.98m2 0h2.97m2 0h2.98m2 0h2.97m2 0h2.98m2 0h2.97m2 0h2.97m2 0h2.97m2 0h2.97m2 0h2.98m2 0h2.97m1.98 0h3m1.98 0h2.98m2 0h2.97m2 0h3m1.98 0h2.98m2 0h2.98m2 0h2.97m2 0h3m1.98 0h2.98m2 0h2.98m2 0h2.97m2 0h3m1.97 0h3m1.98 0h2.98m2 0h2.98m2 0h2.98m2 0h2.98m2 0h2.97m2 0h2.97m2 0h2.98m2 0h2.97m2 0h2.98m2 0h2.97m2 0h2.98m2 0h2.97m2 0h2.98m1.98 0h3m2 0h2.97m2 0h2.98m2 0h2.97m2 0h2.98m2 0h2.97m2 0h2.98m2 0h2.97m2 0h2.98m1.98 0h3m1.98 0h2.98m2 0h2.98m2 0H-26l.94.08.46.1m1.73.72l.4.25.7.6.62.73.25.4m.72 1.73l.1.44.08.94v1.5m0 2v3.02m0 2v3m0 2v3m0 2.02v3m0 2v3m0 2.02v3m0 2v3m0 2.02v3m0 2v3m0 2V184m0 2v3m0 2V194m0 2v3m0 2v3.02m0 2v3m0 2v3.02m0 2v3m0 2v3.02m0 2v3m0 2v3m0 2.02v3m0 2v3m0 2.02v3m0 2v3m0 2.02v3m0 2v3m0 2v3.02m0 2v3m0 2v3.02m0 2v3m0 2v3.02m0 2v3m0 2v3.02m0 2v3m0 2v3.02m0 2v3m0 2v3m0 2.02v3m0 2v3m0 2.02v3m0 2v3m0 2.02v3m0 2v3m0 2.02v3m0 2v3m0 2v3.02m0 2v3m0 2v3.02m0 2v3m0 2v3.02m0 2v3m0 2v3m0 2.02v3m0 2v3m0 2.02v3m0 2v3m0 2.02v3m0 2v3m0 2v3.02m0 2v3m0 2v3.02m0 2v3m0 2v3.02m0 2v3m0 2v3.02m0 2v3m0 2v3.02m0 2v3m0 2v3.02m0 2v3m0 2v3m0 2.02v3m0 2v3m0 2.02v3m0 2v3m0 2.02v3m0 2v3m0 2v3.02m0 2v3m0 2v3.02m0 2v3m0 2v3.02m0 2v3m0 2v3.02m0 2v3m0 2v3.02m0 2v3m0 2v3m0 2.02v3m0 2v3m0 2.02v3m0 2v3m0 2v3.02m0 2v3m0 2v3.02m0 2v3m0 2v3.02m0 2v3m0 2v3.02m0 2v3m0 2v3.02m0 2v3m0 2v3m0 2.02v3m0 2v3m0 2.02v3m0 2v3m0 2.02v3m0 2v3m0 2v3.02m0 2v3m0 2v3.02m0 2v3m0 2v3.02m0 2v3m0 2V715m0 2v3m0 2v3m0 2.02v3m0 2v3m0 2.02v3m0 2v3m0 2.02v3m0 2v3m0 2.02v3m0 2v3m0 2v3.02m0 2v3m0 2v3.02m0 2v3m0 2v3.02m0 2v3m0 2v3.02m0 2v3m0 2v3m0 2.02v3m0 2v3m0 2.02v3m0 2v3m0 2.02v3m0 2v3m0 2v3.02m0 2v3m0 2v3.02m0 2v3m0 2v3.02m0 2v3m0 2v3.02m0 2v3m0 2v3.02m0 2v3m0 2v3.02m0 2v3m0 2v3m0 2.02v3m0 2v3m0 2.02v3m0 2v3m0 2v3.02m0 2v3m0 2v3.02m0 2v3m0 2v3.02m0 2v3m0 2v3.02m0 2v3m0 2v3.02m0 2v3m0 2v3m0 2.02v3m0 2v3m0 2.02v1.5l-.07.94-.1.46m-.73 1.73l-.25.4-.6.7-.72.62-.4.25m-1.73.72l-.46.1-.94.08h-1.5m-1.98 0h-3m-1.98 0h-2.98m-2 0h-2.98m-1.98 0h-3m-1.98 0h-2.98m-2 0h-2.98m-2 0h-2.97m-2 0h-3m-1.98 0h-2.98m-2 0h-2.98m-2 0h-2.97m-2 0h-2.98m-2 0h-2.98m-2 0h-2.97m-2 0h-2.98m-2 0h-2.98m-2 0h-2.98m-2 0h-2.97m-2 0H-122m-2 0h-2.98m-2 0h-2.97m-2 0h-2.98m-2 0h-2.97m-2 0h-2.98m-2 0h-2.97m-2 0h-2.98m-1.98 0h-3m-2 0h-2.97m-2 0h-2.98m-2 0h-2.97m-2 0h-2.98m-2 0h-2.97m-2 0h-2.98m-2 0h-2.97m-2 0h-2.97m-2 0h-2.97m-2 0h-2.97m-2 0h-2.98m-2 0h-2.97m-1.98 0h-3m-1.98 0h-2.98m-2 0h-2.97m-2 0h-3m-1.98 0h-2.98m-2 0h-2.98m-2 0h-2.97m-2 0h-3m-1.98 0h-2.98m-2 0h-2.98m-2 0h-2.97m-2 0h-3m-1.97 0h-3m-1.98 0h-2.98m-2 0h-2.98m-2 0h-2.98m-2 0h-2.98m-2 0h-2.97m-2 0H-316m-2 0h-2.98m-2 0h-2.97m-2 0h-2.98m-2 0h-2.97m-2 0h-2.98m-2 0h-2.97m-2 0h-2.98m-2 0h-2.97m-2 0h-2.97m-2 0h-2.98m-2 0h-2.97m-2 0h-2.98m-2 0h-2.97m-2 0h-2.98m-2 0h-2.97m-2 0h-2.98m-1.98 0h-3m-1.98 0h-2.98m-2 0h-2.98m-2 0H-414l-.94-.07-.46-.1m-1.73-.73l-.4-.25-.7-.6-.62-.72-.25-.4m-.72-1.73l-.1-.46-.08-.94v-1.5m0-2v-3m0-2.02v-3m0-2v-3m0-2v-3.02m0-2v-3m0-2v-3.02m0-2v-3m0-2v-3.02m0-2v-3m0-2v-3.02m0-2v-3m0-2v-3.02m0-2v-3m0-2v-3m0-2.02v-3m0-2v-3m0-2.02v-3m0-2v-3m0-2.02v-3m0-2v-3m0-2v-3.02m0-2v-3m0-2v-3.02m0-2v-3m0-2v-3.02m0-2v-3m0-2v-3.02m0-2v-3m0-2v-3m0-2.02v-3m0-2v-3m0-2.02v-3m0-2v-3m0-2.02v-3m0-2v-3m0-2v-3.02m0-2v-3m0-2v-3.02m0-2v-3m0-2v-3.02m0-2v-3m0-2v-3.02m0-2v-3m0-2v-3.02m0-2v-3m0-2v-3m0-2.02v-3m0-2v-3m0-2.02v-3m0-2v-3m0-2.02v-3m0-2v-3m0-2V727m0-2v-3m0-2v-3.02m0-2v-3m0-2v-3.02m0-2v-3m0-2v-3.02m0-2v-3m0-2v-3.02m0-2v-3m0-2v-3m0-2.02v-3m0-2v-3m0-2.02v-3m0-2v-3m0-2.02v-3m0-2v-3m0-2v-3.02m0-2v-3m0-2v-3.02m0-2v-3m0-2v-3.02m0-2v-3m0-2v-3.02m0-2v-3m0-2v-3.02m0-2v-3m0-2v-3m0-2.02v-3m0-2v-3m0-2.02v-3m0-2v-3m0-2.02v-3m0-2v-3m0-2.02v-3m0-2v-3m0-2v-3.02m0-2v-3m0-2v-3.02m0-2v-3m0-2v-3.02m0-2v-3m0-2v-3m0-2.02v-3m0-2v-3m0-2.02v-3m0-2v-3m0-2.02v-3m0-2v-3m0-2.02v-3m0-2v-3m0-2v-3.02m0-2v-3m0-2v-3.02m0-2v-3m0-2v-3.02m0-2v-3m0-2v-3.02m0-2v-3m0-2v-3m0-2.02v-3m0-2v-3m0-2.02v-3m0-2v-3m0-2.02v-3m0-2v-3m0-2v-3.02m0-2v-3m0-2v-3.02m0-2v-3m0-2v-3.02m0-2v-3m0-2v-3.02m0-2v-3m0-2v-3.02m0-2v-3m0-2v-3m0-2.02v-3m0-2v-3m0-2.02v-3m0-2v-3m0-2.02v-3m0-2v-3m0-2v-3.02m0-2v-3m0-2v-3.02m0-2v-3m0-2v-3.02m0-2v-3m0-2v-3.02m0-2v-3m0-2v-3.02m0-2v-3m0-2v-3m0-2.02v-3m0-2v-3m0-2.02v-3m0-2v-3m0-2.02v-3m0-2v-3m0-2.02v-3m0-2v-3m0-2v-3.02m0-2v-3m0-2V206m0-2v-3m0-2V196m0-2v-3m0-2v-3.02m0-2v-3m0-2v-3m0-2.02v-3m0-2v-3m0-2.02v-3m0-2v-3m0-2.02v-3m0-2v-3m0-2v-3.02m0-2v-3m0-2v-1.52l.07-.94.1-.45" stroke="#147eba" fill="none"/><path d="M-420 126.38h56v56h-56v-56z" stroke="#fff" stroke-opacity="0" fill="#147eba"/><path d="M-376.16 155.75l-5.96-7.37 5.96-7.4h-26.17v-2.08c.98-.32 1.62-1.15 1.62-2.2-.1-1.14-1.03-2.02-2.17-2.14-1.3-.08-2.44.88-2.53 2.15 0 1.05.63 1.88 1.58 2.2v33.9h-4.02v1.58h9.44v-1.6h-3.93v-17.03zM-403.12 136c.4-.04.76.3.76.7 0 .45-.32.77-.73.77-.4.04-.75-.32-.75-.72v-.04c0-.4.32-.7.73-.7zm23.6 6.6l-4.66 5.78 4.66 5.73h-22.8v-11.5z" stroke="#fff" stroke-opacity="0" fill="#fff"/><use xlink:href="#a" transform="matrix(1,0,0,1,-349,146.38391775677928) translate(0 14.4)"/><path d="M0 132.38a6 6 0 0 1 6-6h408a6 6 0 0 1 6 6V994a6 6 0 0 1-6 6H6a6 6 0 0 1-6-6z" fill="#fff" fill-opacity="0"/><path d="M.9 129.26l.25-.4.6-.72.72-.6.4-.26m1.73-.7l.46-.12.94-.08h1.5m1.98 0h3m1.98 0h2.98m2 0h2.98m2 0h2.97m2 0h2.97m2 0h2.98m2 0h2.97m2 0h2.98m2 0h2.97m2 0h2.98m2 0h2.97m2 0h2.98m2 0h2.98m2 0h2.97m2 0h2.98m2 0h2.97m2 0h2.98m2 0h2.97m2 0h2.98m2 0H107m2 0h2.98m2 0h2.98m2 0h2.97m2 0h2.98m2 0h2.98m2 0h2.98m2 0h2.97m2 0h2.98m2 0h2.98m2 0h2.98m2 0h2.98m2 0h2.97m2 0h3m1.98 0h2.98m2 0h2.98m2 0h2.98m1.98 0h3m1.98 0h3m1.98 0h2.98m2 0h2.98m2 0h2.97m1.98 0h3m1.98 0h2.98m2 0h2.98m2 0h2.98m1.98 0h3m1.98 0h3m1.98 0h2.98m2 0h2.98m2 0h2.97m2 0h2.98m2 0h2.97m2 0h2.98m2 0h2.98m2 0h2.97m2 0h2.98m2 0h2.97m2 0h2.98m2 0h2.97m2 0h2.98m2 0H311m2 0h2.98m2 0h2.98m2 0h2.97m2 0h2.98m2 0h2.98m2 0h2.98m2 0h2.97m2 0h2.98m2 0h3m1.98 0h2.98m2 0h2.98m2 0h2.97m2 0h3m1.98 0h2.98m2 0h2.98m2 0h2.98m2 0h2.97m1.98 0h3m1.98 0h2.98m2 0h2.98m2 0H414l.94.08.46.1m1.73.72l.4.25.7.6.62.73.25.4m.72 1.73l.1.44.08.94v1.5m0 2v3.02m0 2v3m0 2v3m0 2.02v3m0 2v3m0 2.02v3m0 2v3m0 2.02v3m0 2v3m0 2V184m0 2v3m0 2V194m0 2v3m0 2v3.02m0 2v3m0 2v3.02m0 2v3m0 2v3.02m0 2v3m0 2v3m0 2.02v3m0 2v3m0 2.02v3m0 2v3m0 2.02v3m0 2v3m0 2v3.02m0 2v3m0 2v3.02m0 2v3m0 2v3.02m0 2v3m0 2v3.02m0 2v3m0 2v3.02m0 2v3m0 2v3m0 2.02v3m0 2v3m0 2.02v3m0 2v3m0 2.02v3m0 2v3m0 2.02v3m0 2v3m0 2v3.02m0 2v3m0 2v3.02m0 2v3m0 2v3.02m0 2v3m0 2v3m0 2.02v3m0 2v3m0 2.02v3m0 2v3m0 2.02v3m0 2v3m0 2v3.02m0 2v3m0 2v3.02m0 2v3m0 2v3.02m0 2v3m0 2v3.02m0 2v3m0 2v3.02m0 2v3m0 2v3.02m0 2v3m0 2v3m0 2.02v3m0 2v3m0 2.02v3m0 2v3m0 2.02v3m0 2v3m0 2v3.02m0 2v3m0 2v3.02m0 2v3m0 2v3.02m0 2v3m0 2v3.02m0 2v3m0 2v3.02m0 2v3m0 2v3m0 2.02v3m0 2v3m0 2.02v3m0 2v3m0 2v3.02m0 2v3m0 2v3.02m0 2v3m0 2v3.02m0 2v3m0 2v3.02m0 2v3m0 2v3.02m0 2v3m0 2v3m0 2.02v3m0 2v3m0 2.02v3m0 2v3m0 2.02v3m0 2v3m0 2v3.02m0 2v3m0 2v3.02m0 2v3m0 2v3.02m0 2v3m0 2V715m0 2v3m0 2v3m0 2.02v3m0 2v3m0 2.02v3m0 2v3m0 2.02v3m0 2v3m0 2.02v3m0 2v3m0 2v3.02m0 2v3m0 2v3.02m0 2v3m0 2v3.02m0 2v3m0 2v3.02m0 2v3m0 2v3m0 2.02v3m0 2v3m0 2.02v3m0 2v3m0 2.02v3m0 2v3m0 2v3.02m0 2v3m0 2v3.02m0 2v3m0 2v3.02m0 2v3m0 2v3.02m0 2v3m0 2v3.02m0 2v3m0 2v3.02m0 2v3m0 2v3m0 2.02v3m0 2v3m0 2.02v3m0 2v3m0 2v3.02m0 2v3m0 2v3.02m0 2v3m0 2v3.02m0 2v3m0 2v3.02m0 2v3m0 2v3.02m0 2v3m0 2v3m0 2.02v3m0 2v3m0 2.02v1.5l-.07.94-.1.46m-.73 1.73l-.25.4-.6.7-.72.62-.4.25m-1.73.72l-.46.1-.94.08h-1.5m-1.98 0h-3m-1.98 0h-2.98m-2 0h-2.98m-2 0h-2.97m-2 0h-2.97m-2 0h-2.98m-2 0h-2.97m-2 0h-2.98m-2 0h-2.97m-2 0h-2.98m-2 0h-2.97m-2 0h-2.98m-2 0h-2.98m-2 0h-2.97m-2 0h-2.98m-2 0h-2.97m-2 0h-2.98m-2 0h-2.97m-2 0h-2.98m-2 0H313m-2 0h-2.98m-2 0h-2.98m-2 0h-2.97m-2 0h-2.98m-2 0h-2.98m-2 0h-2.98m-2 0h-2.97m-2 0h-2.98m-2 0h-3m-1.98 0h-2.98m-2 0h-2.98m-2 0h-2.97m-2 0h-3m-1.98 0h-2.98m-2 0h-2.98m-2 0h-2.98m-1.98 0h-3m-1.98 0h-3m-1.98 0h-2.98m-2 0h-2.98m-2 0h-2.97m-1.98 0h-3m-1.98 0h-2.98m-2 0h-2.98m-2 0h-2.98m-1.98 0h-3m-1.98 0h-3m-1.98 0h-2.98m-2 0h-2.98m-2 0h-2.97m-2 0h-2.98m-2 0h-2.97m-2 0h-2.98m-2 0h-2.98m-2 0h-2.97m-2 0h-2.98m-2 0h-2.97m-2 0h-2.98m-2 0h-2.97m-2 0h-2.98m-2 0H109m-2 0h-2.98m-2 0h-2.98m-2 0h-2.97m-2 0H89.1m-2 0h-2.98m-2 0h-2.98m-2 0h-2.97m-2 0H69.2m-2 0h-2.98m-2 0h-2.98m-2 0h-2.98m-2 0H49.3m-2 0h-3m-1.98 0h-2.98m-2 0h-2.98m-2 0H29.4m-2 0h-3m-1.98 0h-3m-1.98 0h-2.98m-2 0H9.5m-2 0H6l-.94-.07-.46-.1m-1.72-.73l-.4-.25-.72-.6-.6-.72-.26-.4m-.72-1.73l-.1-.46L0 994v-1.5m0-2v-3m0-2.02v-3m0-2v-3m0-2v-3.02m0-2v-3m0-2v-3.02m0-2v-3m0-2v-3.02m0-2v-3m0-2v-3.02m0-2v-3m0-2v-3.02m0-2v-3m0-2v-3m0-2.02v-3m0-2v-3m0-2.02v-3m0-2v-3m0-2.02v-3m0-2v-3m0-2v-3.02m0-2v-3m0-2v-3.02m0-2v-3m0-2v-3.02m0-2v-3m0-2v-3.02m0-2v-3m0-2v-3m0-2.02v-3m0-2v-3m0-2.02v-3m0-2v-3m0-2.02v-3m0-2v-3m0-2v-3.02m0-2v-3m0-2v-3.02m0-2v-3m0-2v-3.02m0-2v-3m0-2v-3.02m0-2v-3m0-2v-3.02m0-2v-3m0-2v-3m0-2.02v-3m0-2v-3m0-2.02v-3m0-2v-3M0 740v-3m0-2v-3m0-2V727m0-2v-3m0-2v-3.02m0-2v-3m0-2v-3.02m0-2v-3m0-2v-3.02m0-2v-3m0-2v-3.02m0-2v-3m0-2v-3m0-2.02v-3m0-2v-3m0-2.02v-3m0-2v-3m0-2.02v-3m0-2v-3m0-2v-3.02m0-2v-3m0-2v-3.02m0-2v-3m0-2v-3.02m0-2v-3m0-2v-3.02m0-2v-3m0-2v-3.02m0-2v-3m0-2v-3m0-2.02v-3m0-2v-3m0-2.02v-3m0-2v-3m0-2.02v-3m0-2v-3m0-2.02v-3m0-2v-3m0-2v-3.02m0-2v-3m0-2v-3.02m0-2v-3m0-2v-3.02m0-2v-3m0-2v-3m0-2.02v-3m0-2v-3m0-2.02v-3m0-2v-3m0-2.02v-3m0-2v-3m0-2.02v-3m0-2v-3m0-2v-3.02m0-2v-3m0-2v-3.02m0-2v-3m0-2v-3.02m0-2v-3m0-2v-3.02m0-2v-3m0-2v-3m0-2.02v-3m0-2v-3m0-2.02v-3m0-2v-3m0-2.02v-3m0-2v-3m0-2v-3.02m0-2v-3m0-2v-3.02m0-2v-3m0-2v-3.02m0-2v-3m0-2v-3.02m0-2v-3m0-2v-3.02m0-2v-3m0-2v-3m0-2.02v-3m0-2v-3m0-2.02v-3m0-2v-3m0-2.02v-3m0-2v-3m0-2v-3.02m0-2v-3m0-2v-3.02m0-2v-3m0-2v-3.02m0-2v-3m0-2v-3.02m0-2v-3m0-2v-3.02m0-2v-3m0-2v-3m0-2.02v-3m0-2v-3m0-2.02v-3m0-2v-3m0-2.02v-3m0-2v-3m0-2.02v-3m0-2v-3m0-2v-3.02m0-2v-3m0-2V206m0-2v-3m0-2V196m0-2v-3m0-2v-3.02m0-2v-3m0-2v-3m0-2.02v-3m0-2v-3m0-2.02v-3m0-2v-3m0-2.02v-3m0-2v-3m0-2v-3.02m0-2v-3m0-2v-1.52l.07-.94.1-.45" stroke="#147eba" fill="none"/><path d="M0 126.38h56v56H0v-56z" stroke="#fff" stroke-opacity="0" fill="#147eba"/><path d="M43.84 155.75l-5.96-7.37 5.96-7.4H17.67v-2.08c.98-.32 1.62-1.15 1.62-2.2-.1-1.14-1.03-2.02-2.17-2.14-1.3-.08-2.44.88-2.53 2.15 0 1.05.63 1.88 1.58 2.2v33.9h-4.02v1.58h9.44v-1.6h-3.93v-17.03zM16.88 136c.4-.04.76.3.76.7 0 .45-.32.77-.73.77-.4.04-.75-.32-.75-.72v-.04c0-.4.32-.7.73-.7zm23.6 6.6l-4.65 5.78 4.65 5.73h-22.8v-11.5z" stroke="#fff" stroke-opacity="0" fill="#fff"/><use xlink:href="#a" transform="matrix(1,0,0,1,71,146.38391775677928) translate(0 14.4)"/><path d="M440 127.5a6 6 0 0 1 6-6h428a6 6 0 0 1 6 6v861.6a6 6 0 0 1-6 6H446a6 6 0 0 1-6-6z" fill="#fff" fill-opacity="0"/><path d="M440.9 124.36l.25-.4.6-.7.72-.63.4-.24m1.73-.73l.46-.1.94-.08h1.5m1.98 0h3m1.98 0h3m1.98 0h2.98m2 0h2.98m2 0h2.98m2 0h2.97m2 0h2.98m2 0h2.98m2 0h2.98m2 0h2.98m2 0h2.98m2 0h2.97m2 0h3m1.98 0h3m1.98 0h2.98m2 0h2.98m2 0h2.98m2 0h2.97m2 0h2.98m2 0h2.98m2 0H552m2 0h2.98m2 0h2.98m2 0h2.97m2 0h2.98m2 0h3m1.98 0h3m1.98 0h2.98m2 0h2.98m2 0h2.97m2 0h2.97m2 0h2.98m2 0h2.98m2 0h2.97m2 0h2.98m2 0h2.98m2 0h2.97m2 0h2.98m2 0h3m1.98 0h2.98m2 0h2.98m2 0h2.98m2 0h2.97m1.98 0h3m1.98 0h3m1.98 0h2.98m2 0h2.98m2 0h2.98m2 0h2.97m2 0h2.98m2 0h2.98m2 0h2.98m2 0h2.98m2 0h2.98m2 0h2.97m2 0h3m1.98 0h3m1.98 0h2.98m2 0h2.98m2 0h2.98m2 0h2.97m2 0h2.98m2 0h2.98m2 0H766m2 0h2.98m2 0h2.98m2 0h2.97m2 0h2.98m2 0h3m1.98 0h3m1.98 0h2.98m2 0h2.98m2 0h2.97m2 0h2.97m2 0h2.98m2 0h2.98m2 0h2.97m2 0h2.98m2 0h2.98m2 0h2.97m2 0h2.98m2 0h3m1.98 0h2.98m2 0h2.98m2 0h2.98m2 0H874l.94.06.46.1m1.73.73l.4.23.7.62.62.7.25.4m.72 1.74l.1.45.08.94v1.5m0 2v3m0 2v3m0 2v3.02m0 2v3m0 2v3.02m0 2v3m0 2v3.02m0 2v3m0 2v3.02m0 2v3m0 2v3m0 2.02v3m0 2v3m0 2.02v3m0 2v3m0 2.02v3m0 2v3m0 2.02v3m0 2v3m0 2v3.02m0 2v3m0 2v3.02m0 2v3m0 2v3.02m0 2v3m0 2v3.02m0 2v3m0 2v3m0 2.02v3m0 2v3m0 2.02v3m0 2v3m0 2.02v3m0 2v3m0 2v3.02m0 2v3m0 2v3.02m0 2v3m0 2v3.02m0 2v3m0 2v3.02m0 2v3m0 2v3.02m0 2v3m0 2v3.02m0 2v3m0 2v3m0 2.02v3m0 2v3m0 2.02v3m0 2v3m0 2.02v3m0 2v3m0 2v3.02m0 2v3m0 2v3.02m0 2v3m0 2v3.02m0 2v3m0 2v3.02m0 2v3m0 2v3m0 2.02v3m0 2v3m0 2.02v3m0 2v3m0 2.02v3m0 2v3m0 2v3.02m0 2v3m0 2v3.02m0 2v3m0 2v3.02m0 2v3m0 2v3.02m0 2v3m0 2v3.02m0 2v3m0 2v3m0 2.02v3m0 2v3m0 2.02v3m0 2v3m0 2.02v3m0 2v3m0 2v3.02m0 2v3m0 2v3.02m0 2v3m0 2v3.02m0 2v3m0 2v3.02m0 2v3m0 2v3m0 2.02v3m0 2v3m0 2.02v3m0 2v3m0 2.02v3m0 2v3m0 2v3.02m0 2v3m0 2v3.02m0 2v3m0 2V655m0 2v3m0 2V665m0 2v3m0 2v3.02m0 2v3m0 2v3m0 2.02v3m0 2v3m0 2.02v3m0 2v3m0 2.02v3m0 2v3m0 2v3.02m0 2v3m0 2v3.02m0 2v3m0 2v3.02m0 2v3m0 2v3.02m0 2v3m0 2v3.02m0 2v3m0 2v3.02m0 2v3m0 2v3m0 2.02v3m0 2v3m0 2.02v3m0 2v3m0 2v3.02m0 2v3m0 2v3.02m0 2v3m0 2v3.02m0 2v3m0 2v3.02m0 2v3m0 2v3.02m0 2v3m0 2v3m0 2.02v3m0 2v3m0 2.02v3m0 2v3m0 2.02v3m0 2v3m0 2v3.02m0 2v3m0 2v3.02m0 2v3m0 2v3.02m0 2v3m0 2v3.02m0 2v3m0 2v3m0 2.02v3m0 2v3m0 2.02v3m0 2v3m0 2.02v3m0 2v3m0 2v3.02m0 2v3m0 2v3.02m0 2v3m0 2v3.02m0 2v1.5l-.07.94-.1.46m-.73 1.73l-.25.4-.6.72-.72.6-.4.25m-1.73.72l-.46.1-.94.1h-1.5m-1.98 0h-3m-1.98 0h-3m-1.98 0h-2.98m-2 0h-2.98m-2 0h-2.98m-2 0h-2.97m-2 0h-2.98m-2 0h-2.98m-2 0h-2.98m-2 0h-2.98m-2 0h-2.98m-2 0h-2.97m-2 0h-3m-1.98 0h-3m-1.98 0h-2.98m-2 0h-2.98m-2 0h-2.98m-2 0h-2.97m-2 0h-2.98m-2 0h-2.98m-2 0H768m-2 0h-2.98m-2 0h-2.98m-2 0h-2.97m-2 0h-2.98m-2 0h-3m-1.98 0h-3m-1.98 0h-2.98m-2 0h-2.98m-2 0h-2.97m-2 0h-2.97m-2 0h-2.98m-2 0h-2.98m-2 0h-2.97m-2 0h-2.98m-2 0h-2.98m-2 0h-2.97m-2 0h-2.98m-2 0h-3m-1.98 0h-2.98m-2 0h-2.98m-2 0h-2.98m-2 0h-2.97m-1.98 0h-3m-1.98 0h-3m-1.98 0h-2.98m-2 0h-2.98m-2 0h-2.98m-2 0h-2.97m-2 0h-2.98m-2 0h-2.98m-2 0h-2.98m-2 0h-2.98m-2 0h-2.98m-2 0h-2.97m-2 0h-3m-1.98 0h-3m-1.98 0h-2.98m-2 0h-2.98m-2 0h-2.98m-2 0h-2.97m-2 0h-2.98m-2 0h-2.98m-2 0H554m-2 0h-2.98m-2 0h-2.98m-2 0h-2.97m-2 0h-2.98m-2 0h-3m-1.98 0h-3m-1.98 0h-2.98m-2 0h-2.98m-2 0h-2.97m-2 0h-2.97m-2 0h-2.98m-2 0h-2.98m-2 0h-2.97m-2 0h-2.98m-2 0h-2.98m-2 0h-2.97m-2 0h-2.98m-2 0h-3m-1.98 0h-2.98m-2 0h-2.98m-2 0h-2.98m-2 0H446l-.94-.1-.46-.1m-1.73-.7l-.4-.26-.7-.6-.62-.73-.25-.4m-.72-1.73l-.1-.46-.08-.93v-1.5m0-2v-3m0-2v-3.02m0-2v-3m0-2v-3m0-2.02v-3m0-2v-3m0-2.02v-3m0-2v-3m0-2.02v-3m0-2v-3m0-2v-3.02m0-2v-3m0-2v-3.02m0-2v-3m0-2v-3.02m0-2v-3m0-2v-3.02m0-2v-3m0-2v-3.02m0-2v-3m0-2v-3m0-2.02v-3m0-2v-3m0-2.02v-3m0-2v-3m0-2.02v-3m0-2v-3m0-2v-3.02m0-2v-3m0-2v-3.02m0-2v-3m0-2v-3.02m0-2v-3m0-2v-3.02m0-2v-3m0-2v-3.02m0-2v-3m0-2v-3m0-2.02v-3m0-2v-3m0-2.02v-3m0-2v-3m0-2.02v-3m0-2v-3m0-2.02v-3m0-2v-3m0-2v-3.02m0-2v-3m0-2v-3.02m0-2v-3m0-2v-3.02m0-2v-3m0-2v-3.02m0-2v-3m0-2v-3m0-2.02v-3m0-2v-3m0-2.02v-3m0-2v-3m0-2.02v-3m0-2v-3m0-2V677m0-2v-3m0-2V667m0-2v-3m0-2v-3.02m0-2v-3m0-2v-3.02m0-2v-3m0-2v-3m0-2.02v-3m0-2v-3m0-2.02v-3m0-2v-3m0-2.02v-3m0-2v-3m0-2v-3.02m0-2v-3m0-2v-3.02m0-2v-3m0-2v-3.02m0-2v-3m0-2v-3.02m0-2v-3m0-2v-3.02m0-2v-3m0-2v-3m0-2.02v-3m0-2v-3m0-2.02v-3m0-2v-3m0-2.02v-3m0-2v-3m0-2v-3.02m0-2v-3m0-2v-3.02m0-2v-3m0-2v-3.02m0-2v-3m0-2v-3.02m0-2v-3m0-2v-3.02m0-2v-3m0-2v-3m0-2.02v-3m0-2v-3m0-2.02v-3m0-2v-3m0-2.02v-3m0-2v-3m0-2v-3.02m0-2v-3m0-2v-3.02m0-2v-3m0-2v-3.02m0-2v-3m0-2v-3.02m0-2v-3m0-2v-3.02m0-2v-3m0-2v-3.02m0-2v-3m0-2v-3m0-2.02v-3m0-2v-3m0-2.02v-3m0-2v-3m0-2.02v-3m0-2v-3m0-2v-3.02m0-2v-3m0-2v-3.02m0-2v-3m0-2v-3.02m0-2v-3m0-2v-3m0-2.02v-3m0-2v-3m0-2.02v-3m0-2v-3m0-2.02v-3m0-2v-3m0-2.02v-3m0-2v-3m0-2v-3.02m0-2v-3m0-2v-3.02m0-2v-3m0-2v-3.02m0-2v-3m0-2v-3.02m0-2v-3m0-2v-3.02m0-2v-3m0-2v-3m0-2.02v-3m0-2v-3m0-2.02v-3m0-2v-3m0-2.02v-3m0-2v-3m0-2v-3.02m0-2v-3m0-2v-3.02m0-2v-3m0-2v-3.02m0-2v-3m0-2V146m0-2v-3m0-2V136m0-2v-3m0-2v-1.5l.07-.95.1-.46" stroke="#147eba" fill="none"/><path d="M440 121.5h56v56h-56v-56z" stroke="#fff" stroke-opacity="0" fill="#147eba"/><path d="M483.84 150.85l-5.96-7.36 5.96-7.42h-26.17V134c.98-.3 1.62-1.15 1.62-2.18-.1-1.16-1.03-2.03-2.17-2.15-1.3-.08-2.44.87-2.53 2.15 0 1.03.63 1.87 1.58 2.2v33.88h-4.02v1.6h9.44v-1.6h-3.93v-17.05zm-26.96-19.75c.4-.04.76.32.76.72 0 .44-.32.75-.73.75-.4.04-.75-.3-.75-.7v-.05c0-.4.32-.72.73-.72zm23.6 6.6l-4.66 5.8 4.66 5.72h-22.8v-11.5z" stroke="#fff" stroke-opacity="0" fill="#fff"/><use xlink:href="#a" transform="matrix(1,0,0,1,511,141.4890896669035) translate(0 14.4)"/><path d="M70.4 324.88h229.63V820H70.4z" fill="#248814" fill-opacity=".13"/><path d="M70.4 324.88h56v56h-56v-56z" stroke="#fff" stroke-opacity="0" fill="#248814"/><path d="M113.78 347.06c-.16-.17-.35-.25-.56-.25h-5.15v-5.57c-.03-2.53-.97-4.7-2.84-6.4-1.9-1.83-4.15-2.75-6.77-2.75-2.65 0-4.9.83-6.8 2.62-1.9 1.7-2.87 3.87-2.9 6.4v5.67H83.6c-.24 0-.43.08-.6.25-.14.16-.2.33-.2.58v25.3c0 .4.34.78.8.78h29.6-.02c.47 0 .82-.37.82-.8V347.6c0-.2-.07-.38-.22-.54zm-23.47-5.9h.02c.03-2.13.8-3.88 2.37-5.3 1.6-1.5 3.5-2.2 5.73-2.2 2.2 0 4.1.75 5.7 2.25 1.54 1.42 2.3 3.2 2.3 5.33v5.58H90.3zm22.1 30.94h-28v-23.7h28z" stroke="#fff" stroke-opacity="0" fill="#fff"/><path d="M97.6 362.2v6.23h1.6v-6.23c2.12-.38 3.62-2.2 3.63-4.35 0-2.43-1.98-4.4-4.42-4.43-2.2-.03-4.04 1.5-4.4 3.68-.42 2.4 1.2 4.7 3.6 5.1zm.8-7.17c.8 0 1.45.27 2.02.83.54.55.8 1.2.8 2 .02 1.54-1.2 2.8-2.75 2.8h-.06c-1.55.13-2.9-1.04-3.02-2.6-.12-1.56 1.05-2.92 2.6-3.03h.43z" stroke="#fff" stroke-opacity="0" fill="#fff"/><use xlink:href="#b" transform="matrix(1,0,0,1,141.39546782429738,344.8819481868686) translate(0 14.222222222222223)"/><use xlink:href="#c" transform="matrix(1,0,0,1,141.39546782429738,344.8819481868686) translate(53.23456790123458 14.222222222222223)"/><use xlink:href="#d" transform="matrix(1,0,0,1,141.39546782429738,344.8819481868686) translate(114.46913580246915 14.222222222222223)"/><path d="M545.18 332.44h229.64v495.12H545.18z" fill="#248814" fill-opacity=".13"/><path d="M545.18 332.44h56v56h-56v-56z" stroke="#fff" stroke-opacity="0" fill="#248814"/><path d="M588.56 354.62c-.15-.17-.34-.25-.56-.25h-5.14v-5.58c-.04-2.55-.97-4.7-2.85-6.4-1.9-1.84-4.13-2.76-6.75-2.76-2.66 0-4.9.83-6.8 2.62-1.9 1.7-2.88 3.87-2.9 6.4v5.67h-5.16c-.26 0-.44.08-.6.25-.15.16-.22.33-.22.58v25.3c0 .4.34.78.8.78H588c.46 0 .8-.37.8-.8v-25.28c0-.2-.06-.38-.22-.54zm-23.46-5.9c.03-2.13.8-3.88 2.37-5.3 1.63-1.5 3.53-2.2 5.74-2.2 2.23 0 4.13.75 5.72 2.25 1.53 1.4 2.3 3.2 2.3 5.32v5.57h-16.15zm22.1 30.94h-28.03v-23.7h28.02z" stroke="#fff" stroke-opacity="0" fill="#fff"/><path d="M572.38 369.75V376h1.6v-6.24c2.13-.4 3.63-2.2 3.63-4.35 0-2.42-1.96-4.4-4.4-4.42-2.2-.03-4.05 1.5-4.43 3.68-.4 2.4 1.2 4.68 3.6 5.1zm.82-7.16c.78 0 1.44.26 2 .82.54.55.82 1.2.8 2 .03 1.54-1.2 2.8-2.74 2.8h-.06c-1.56.13-2.92-1.04-3.04-2.6-.1-1.56 1.05-2.93 2.6-3.03.16-.03.3-.03.44 0z" stroke="#fff" stroke-opacity="0" fill="#fff"/><use xlink:href="#b" transform="matrix(1,0,0,1,616.1821866514535,352.4409740934341) translate(0 14.222222222222223)"/><use xlink:href="#c" transform="matrix(1,0,0,1,616.1821866514535,352.4409740934341) translate(53.23456790123458 14.222222222222223)"/><use xlink:href="#d" transform="matrix(1,0,0,1,616.1821866514535,352.4409740934341) translate(114.46913580246915 14.222222222222223)"/><path d="M-534.75 556.8h8.83" stroke="#666" fill="none"/><path d="M-534.73 557.3h-.52v-1h.52z" stroke="#666" stroke-width=".05" fill="#666"/><path d="M-512.65 558.13l-14.66 3.18.92-9.2z" stroke="#666" fill="#666"/><path d="M-378.5 200h340v740h-340z" fill="#fff" fill-opacity="0"/><path d="M-366.35 200h8.1m8.1 0h8.1m8.08 0h8.1m8.1 0h8.1m8.08 0h8.1m8.1 0h8.1m8.1 0h8.1m8.1 0h8.08m8.1 0h8.1m8.1 0h8.08m8.1 0h8.1m8.1 0h8.08m8.1 0h8.1m8.1 0h8.08m8.1 0h8.1m8.1 0h8.08m8.1 0h8.1m8.1 0h8.08m8.1 0h8.1m8.1 0h8.1m8.08 0h4.05v4.02m0 8.04v8.05m0 8.05v8.05m0 8.04v8.04m0 8.05v8.04m0 8.04v8.06m0 8.04v8.04m0 8.05v8.03m0 8.04v8.05m0 8.04v8.04m0 8.05v8.04m0 8.04v8.04m0 8.04v8.05m0 8.04v8.05m0 8.05v8.04m0 8.04v8.05m0 8.04v8.04m0 8.06v8.04m0 8.04v8.05m0 8.03v8.04m0 8.05v8.04m0 8.04v8.05m0 8.04v8.03m0 8.05v8.04m0 8.05v8.04m0 8.05v8.05m0 8.04v8.04m0 8.05v8.04m0 8.04v8.06m0 8.04v8.04m0 8.05v8.03m0 8.04v8.05m0 8.04v8.04m0 8.05v8.04m0 8.03v8.05m0 8.04v8.05m0 8.04v8.05m0 8.05v8.04m0 8.04v8.05m0 8.04v8.04m0 8.06v8.04m0 8.04v8.05m0 8.03v8.04m0 8.05v8.04m0 8.04v8.05m0 8.04v8.03m0 8.05V940h-4.04m-8.1 0h-8.1m-8.08 0h-8.1m-8.1 0h-8.1m-8.08 0h-8.1m-8.1 0h-8.1m-8.1 0h-8.08m-8.1 0h-8.1m-8.1 0h-8.08m-8.1 0h-8.1m-8.1 0h-8.08m-8.1 0h-8.1m-8.1 0h-8.08m-8.1 0h-8.1m-8.1 0h-8.08m-8.1 0h-8.1m-8.1 0h-8.1m-8.08 0h-8.1m-8.1 0h-8.1m-8.08 0h-8.1m-8.1 0h-8.1m-8.08 0h-4.05v-4.02m0-8.05v-8.04m0-8.05v-8.05m0-8.04v-8.04m0-8.05v-8.04m0-8.04v-8.06m0-8.04v-8.04m0-8.05v-8.03m0-8.04v-8.05m0-8.04v-8.04m0-8.05v-8.04m0-8.03v-8.05m0-8.04v-8.05m0-8.04v-8.05m0-8.05v-8.04m0-8.04v-8.05m0-8.04v-8.04m0-8.06v-8.04m0-8.04v-8.05m0-8.03v-8.04m0-8.05v-8.04m0-8.04v-8.05m0-8.04v-8.03m0-8.05v-8.04m0-8.05v-8.04m0-8.05v-8.05m0-8.04v-8.04m0-8.05v-8.04m0-8.04v-8.06m0-8.04v-8.04m0-8.05v-8.03m0-8.04v-8.05m0-8.04v-8.04m0-8.05v-8.04m0-8.04v-8.04m0-8.04v-8.05m0-8.04v-8.05m0-8.05v-8.04m0-8.04v-8.05m0-8.04v-8.04m0-8.06v-8.04m0-8.04v-8.05m0-8.03v-8.04m0-8.05v-8.04m0-8.04v-8.05m0-8.04v-8.03m0-8.05V200h4.06" stroke="#147eba" stroke-width="2" fill="none"/><path d="M-378.46 940V200h10.33v740z" stroke="#000" stroke-opacity="0" stroke-width="2" fill="#fff" fill-opacity="0"/><use xlink:href="#e" transform="matrix(6.123233995736766e-17,-1,1,6.123233995736766e-17,-373.45994986964763,935.0000000000005) translate(285.98765432098764 -6.1111111111111125)"/><use xlink:href="#f" transform="matrix(6.123233995736766e-17,-1,1,6.123233995736766e-17,-373.45994986964763,935.0000000000005) translate(383.962962962963 -6.1111111111111125)"/><use xlink:href="#g" transform="matrix(6.123233995736766e-17,-1,1,6.123233995736766e-17,-373.45994986964763,935.0000000000005) translate(431.2222222222223 -6.1111111111111125)"/><path d="M-329.64 324.88H-100V820h-229.64z" fill="#248814" fill-opacity=".13"/><path d="M-329.64 324.88h56v56h-56v-56z" stroke="#fff" stroke-opacity="0" fill="#248814"/><path d="M-286.25 347.06c-.16-.17-.35-.25-.56-.25h-5.16v-5.57c-.03-2.53-.97-4.7-2.84-6.4-1.9-1.83-4.15-2.75-6.77-2.75-2.66 0-4.9.83-6.8 2.62-1.9 1.7-2.88 3.87-2.9 6.4v5.67h-5.15c-.25 0-.44.08-.6.25-.15.16-.22.33-.22.58v25.3c0 .4.35.78.82.78h29.57c.47 0 .8-.37.8-.8V347.6c0-.2-.05-.38-.2-.54zm-23.47-5.9c.04-2.13.82-3.88 2.38-5.3 1.62-1.5 3.52-2.2 5.74-2.2 2.2 0 4.1.75 5.7 2.25 1.53 1.42 2.3 3.2 2.3 5.33v5.58h-16.15zm22.1 30.94h-28.02v-23.7h28z" stroke="#fff" stroke-opacity="0" fill="#fff"/><path d="M-302.44 362.2v6.23h1.6v-6.23c2.13-.38 3.63-2.2 3.64-4.35 0-2.43-1.98-4.4-4.42-4.43-2.2-.03-4.05 1.5-4.42 3.68-.4 2.4 1.2 4.7 3.6 5.1zm.82-7.17c.78 0 1.44.27 2 .83.55.55.82 1.2.8 2 .03 1.54-1.2 2.8-2.74 2.8h-.06c-1.56.13-2.92-1.04-3.03-2.6-.12-1.56 1.04-2.92 2.6-3.03h.43z" stroke="#fff" stroke-opacity="0" fill="#fff"/><use xlink:href="#b" transform="matrix(1,0,0,1,-258.6356266970929,344.8819481868686) translate(0 14.222222222222223)"/><use xlink:href="#c" transform="matrix(1,0,0,1,-258.6356266970929,344.8819481868686) translate(53.23456790123458 14.222222222222223)"/><use xlink:href="#d" transform="matrix(1,0,0,1,-258.6356266970929,344.8819481868686) translate(114.46913580246915 14.222222222222223)"/><path d="M-644.28 485.35h9.9a12 12 0 0 1 12 12v53.44a6 6 0 0 0 6 6" stroke="#666" fill="none"/><path d="M-644.27 485.73l-1.18-.88h1.18z" stroke="#666" stroke-width=".05" fill="#666"/><path d="M-601.62 556.8l-14.26 4.63v-9.27z" stroke="#666" fill="#666"/><path d="M-484.83 220H900v720H-484.83z" stroke="#248814" stroke-width="2" fill-opacity="0"/><path d="M-484.83 220h56v56h-56v-56z" stroke="#fff" stroke-opacity="0" fill="#248814"/><path d="M-453.07 248.3h-1.2v-1.1c-.1-1.73-1.46-3.07-3.18-3.2-1.9-.13-3.54 1.3-3.67 3.2v1.07h-1.18c-.45 0-.8.36-.8.8v6.13c0 .44.35.8.8.8h9.23c.44 0 .8-.36.8-.8v-6.1c0-.44-.36-.8-.8-.8zm-6.4-1.06c.1-1.03 1-1.77 2-1.67.9.08 1.58.77 1.67 1.67v1.06h-3.72zm5.65 7.08h-7.68v-4.42h7.62z" stroke="#fff" stroke-opacity="0" fill="#fff"/><path d="M-442.56 245.75c-.1-2.45-1.6-4.48-3.88-5.3-1.58-.47-3.16-.14-4.4.9-.67-1.45-1.46-2.6-2.6-3.76-3.23-3.36-7.93-4.3-12.18-2.4-4.03 1.9-6.4 5.63-6.53 10.05v.7c-3.4.98-5.66 4.08-5.5 7.65v.63c.38 4.28 3.92 7.52 8.2 7.47h26s7.42-.63 7.42-8.1c.04-3.9-2.67-7.2-6.54-7.85zm-.96 14.38h-25.93c-3.45.06-6.28-2.52-6.57-5.96v-.52c-.17-3.05 1.9-5.7 4.9-6.3.38-.12.63-.48.6-.9-.05-.4-.05-.73 0-1.14.08-3.78 2.12-6.94 5.53-8.6 1.25-.56 2.42-.8 3.83-.84 2.63.08 4.87 1.04 6.7 2.94 1.25 1.3 2.04 2.6 2.63 4.3.04.15.12.28.24.37.38.27.88.2 1.13-.17.83-1.18 2.25-1.67 3.62-1.3 1.8.72 2.87 2.4 2.83 4.32-.1.4.2.83.62.9 3.58.36 6.2 3.55 5.83 7.12-.3 3.13-2.7 5.52-5.83 5.85z" stroke="#fff" stroke-opacity="0" fill="#fff"/><use xlink:href="#h" transform="matrix(1,0,0,1,-413.83333333333326,240) translate(0 14.222222222222223)"/><use xlink:href="#i" transform="matrix(1,0,0,1,-413.83333333333326,240) translate(0 33.777777777777786)"/><path d="M-560 53.04H935.17v1000H-560z" stroke="#232f3e" stroke-width="2" fill-opacity="0"/><path d="M-560 53.04h56v56h-56v-56z" stroke="#fff" stroke-opacity="0" fill="#232f3e"/><path d="M-541.78 78.9c-.04.5.04.88.17 1.35.1.38.28.7.48 1.07.04.1.08.2.08.33 0 .2-.12.35-.28.45l-.95.62c-.12.1-.25.13-.37.13-.16 0-.33-.07-.45-.2-.2-.22-.36-.44-.52-.7-.17-.26-.3-.54-.46-.87-1.1 1.37-2.62 2.1-4.4 2.06-1.14.06-2.12-.3-2.95-1.08-.78-.8-1.15-1.76-1.1-2.85-.05-1.22.4-2.27 1.35-3.07 1.07-.84 2.3-1.22 3.65-1.15.58 0 1.03.02 1.6.1.58.1 1.1.2 1.73.33v-1.08c.08-.9-.16-1.68-.7-2.38-.74-.56-1.56-.8-2.46-.7-.53 0-1.03.07-1.6.2-.58.14-1.03.3-1.6.52l-.5.2h-.24c-.2 0-.33-.18-.33-.47v-.76c0-.18.04-.33.12-.5.12-.16.24-.26.4-.33.66-.3 1.2-.5 1.9-.66.77-.2 1.47-.3 2.3-.28 1.47-.13 2.78.27 3.9 1.2.94 1.05 1.35 2.28 1.22 3.67zm-6.07 2.3c.57 0 1.06-.1 1.6-.3.57-.2 1.02-.48 1.43-.95.25-.28.42-.57.5-.94.12-.44.16-.83.16-1.28v-.68c-.53-.1-.94-.17-1.44-.2h-1.4c-.8-.08-1.55.12-2.2.58-.54.45-.8 1.04-.75 1.73-.04.6.13 1.15.54 1.6.44.37.97.5 1.55.44zm12 1.6c-.22 0-.42-.04-.6-.16-.15-.17-.23-.36-.32-.6l-3.5-11.5-.1-.62c0-.24.1-.37.36-.37h1.47c.2 0 .37.03.57.14.17.17.25.36.3.58l2.5 9.97 2.38-9.94c0-.23.08-.42.28-.6.17-.1.37-.15.58-.14h1.2c.24 0 .4.03.6.15.17.2.25.37.3.6l2.33 9.95 2.56-10c.04-.22.16-.42.33-.6.15-.1.36-.16.56-.13h1.4c.16 0 .33.12.37.3V70.12s0 .2-.12.36L-526 82c-.05.22-.13.42-.3.6-.2.1-.37.14-.57.13h-1.27c-.25.03-.46-.03-.62-.16-.16-.17-.25-.37-.3-.6l-2.3-9.6-2.28 9.6c-.05.23-.13.43-.3.6-.2.12-.4.18-.6.15zm19.2.37c-.82 0-1.5-.07-2.3-.25-.65-.13-1.14-.3-1.72-.6-.2-.1-.37-.23-.45-.4-.08-.16-.12-.3-.12-.45v-.75c0-.3.12-.46.32-.46h.3l.36.16c.58.23 1.03.4 1.6.5.62.14 1.15.2 1.8.2.8.05 1.5-.1 2.2-.5.48-.3.77-.8.73-1.4.04-.4-.13-.76-.38-1.04-.46-.4-.95-.65-1.52-.8l-2.18-.67c-.95-.25-1.73-.73-2.38-1.5-.5-.64-.74-1.35-.74-2.18 0-.6.12-1.08.4-1.6.3-.5.63-.9 1.08-1.22.5-.38.98-.6 1.6-.78.66-.18 1.2-.26 1.9-.25.32-.03.6-.03.97 0l1 .16.8.23.67.26c.16.1.28.22.45.38.08.15.12.3.12.5v.7c0 .32-.12.47-.37.47-.2-.03-.37-.08-.57-.18-.95-.43-1.8-.62-2.88-.6-.7-.03-1.3.1-1.97.42-.5.3-.74.8-.7 1.35 0 .4.13.76.46 1.05.5.4.98.65 1.6.82l2.1.67c.94.25 1.68.7 2.3 1.45.48.63.7 1.3.7 2.1 0 .62-.14 1.16-.38 1.72-.3.55-.62.95-1.1 1.32-.5.38-1 .65-1.6.83-.75.24-1.4.34-2.15.36zM-513.9 90.53c-5.6 3.8-11.36 5.57-18.15 5.55-8.54.05-15.82-2.73-22.16-8.45-.5-.4 0-1 .48-.67 7.07 4.05 14.02 5.9 22.2 5.9 6.1-.04 11.3-1.1 16.93-3.47.83-.36 1.52.54.7 1.13z" stroke="#fff" stroke-opacity="0" fill="#fff"/><path d="M-511.84 88.24c-.64-.8-4.16-.38-5.75-.2-.46 0-.53-.36-.1-.66 2.8-1.97 7.42-1.4 8-.74.6.67-.14 5.28-2.78 7.5-.4.33-.78.14-.6-.3.54-1.52 1.86-4.83 1.24-5.6z" stroke="#fff" stroke-opacity="0" fill="#fff"/><use xlink:href="#j" transform="matrix(1,0,0,1,-489,73.04086494511853) translate(0 14.222222222222223)"/><use xlink:href="#k" transform="matrix(1,0,0,1,-489,73.04086494511853) translate(45.333333333333336 14.222222222222223)"/><path d="M-477.62 591.7c-18.45 0-33.42-14.96-33.42-33.4 0-18.45 14.97-33.42 33.42-33.42 18.44 0 33.4 14.97 33.4 33.42 0 18.44-14.96 33.4-33.4 33.4zm0-63.94c-16.9 0-30.55 13.63-30.55 30.54 0 16.9 13.64 30.54 30.55 30.54 16.9 0 30.54-13.63 30.54-30.54 0-16.9-13.63-30.54-30.54-30.54z" stroke="#fff" stroke-opacity="0" fill="#693cc5"/><path d="M-461.63 578.38h-5.33c-.8 0-1.43-.64-1.43-1.43v-27.57c-2.88-1.5-5.64-2.17-8.88-2.25-3.55.08-6.5.87-9.65 2.56v27.25c0 .8-.62 1.42-1.4 1.42h-5.28c-.8 0-1.44-.63-1.44-1.42v-31c0-.44.17-.8.5-1.07 5.07-4.18 10.72-6.12 17.27-5.96 6.2-.12 11.53 1.62 16.5 5.3.4.26.56.66.56 1.1v31.63c0 .8-.63 1.42-1.43 1.42zm-3.9-2.85h2.47v-29.5c-4.36-3-8.92-4.35-14.2-4.27-5.62-.16-10.47 1.42-14.93 4.82v28.95h2.45v-26.75c0-.55.28-1.02.77-1.26 3.76-2.13 7.38-3.15 11.7-3.23 3.94.1 7.3.97 10.77 2.83h.13c.52.23.83.7.83 1.3z" stroke="#fff" stroke-opacity="0" fill="#693cc5"/><use xlink:href="#l" transform="matrix(1,0,0,1,-541.0383093168821,600.7123133901592) translate(33.40123456790123 14.222222222222223)"/><use xlink:href="#m" transform="matrix(1,0,0,1,-541.0383093168821,600.7123133901592) translate(28.462962962962962 35.55555555555556)"/><path d="M-600 524.88h64.75v63.83H-600V524.9z" stroke="#fff" stroke-opacity="0" fill="#693cc5"/><path d="M-576.43 561.43c1.14.4 2.16.58 3.38.62.77.06 1.45-.12 2.08-.57.5-.46.74-1.03.7-1.7.08-.7-.15-1.32-.66-1.82-.68-.44-1.4-.62-2.2-.56-1 .02-1.8.07-2.77.18v-1.2l.34-5.26h6.5v1.4h-5.04l-.23 3.58c.6-.1 1.1-.16 1.73-.16 1.14-.08 2.13.26 3 1 .78.74 1.15 1.68 1.1 2.75.03 1.1-.4 2.06-1.27 2.77-.98.77-2.08 1.12-3.34 1.07-1.24 0-2.28-.2-3.4-.7zM-562.33 556.3h.32c1.06-.06 2 .24 2.82.92.74.7 1.1 1.56 1.03 2.55.04 1.1-.4 2.04-1.27 2.74-1 .76-2.1 1.1-3.38 1.03-1.2 0-2.2-.22-3.3-.7v-1.4c1.1.4 2.12.58 3.3.62.78.06 1.46-.14 2.1-.58.5-.45.76-1.04.7-1.7 0-1.43-.9-2.14-2.7-2.14-.6 0-1.13.03-1.73.1v-1.17l3.74-4h-5.2v-1.46h7.24v1.4z" stroke="#fff" stroke-opacity="0" fill="#fff"/><path d="M-567.62 572.97c-.17 0-.3-.04-.45-.13-2.93-1.7-5.7-2.74-9.04-3.4-1.84-.32-7.77-1.7-7.77-5.96 0-1.92.76-3.2 1.72-4.8 1.5-2.2 2.25-4.4 2.35-7 0-2.53-.66-4.64-2.07-6.75-.2-.3-.17-.7.07-1l1.38-1.7c.27-.32.72-.4 1.1-.2 1.87 1.08 3.66 1.55 5.83 1.58 2.4.04 4.43-.6 6.36-1.97.3-.22.73-.22 1 0 1.97 1.38 4 2 6.4 1.98 2.13-.02 3.96-.52 5.82-1.56.38-.22.83-.13 1.1.2l1.4 1.7c.23.27.26.68.05 1-1.4 2.07-2.03 4.2-2.07 6.73 0 3.03 1.25 5.1 2.35 7 .98 1.6 1.74 2.9 1.74 4.8 0 4.27-5.94 5.65-7.77 5.97-3.35.66-6.1 1.67-9.04 3.4-.14.1-.28.13-.45.13zm-13.46-28.5c1.35 2.26 1.97 4.5 1.97 7.1 0 3.5-1.42 5.93-2.6 7.85-.86 1.5-1.45 2.52-1.45 3.97 0 3 5.28 4.12 6.32 4.3 3.4.67 6.17 1.7 9.18 3.4 3-1.7 5.8-2.73 9.18-3.4 1.07-.18 6.35-1.3 6.35-4.3 0-1.46-.6-2.47-1.5-3.98-1.13-1.92-2.58-4.34-2.58-7.84.04-2.62.66-4.85 2.04-7.12l-.55-.66c-1.94.98-3.84 1.45-6.05 1.45-2.55.03-4.73-.57-6.9-1.95-2.14 1.38-4.35 1.98-6.9 1.95-2.2 0-4.08-.47-6.04-1.45z" stroke="#fff" stroke-opacity="0" fill="#fff"/><path d="M-567.6 578.07c-.22 0-.4-.04-.57-.17-3.06-2.17-6.04-3.5-9.7-4.25-7.12-1.28-11.35-5.15-11.35-10.25.1-2.6.78-4.8 2.3-6.97.94-1.58 1.7-2.94 1.7-4.8-.07-2.6-1.15-4.77-3.13-6.52-.4-.24-.48-.8-.18-1.18.05 0 .05-.04.05-.04 0-.08 5.1-6.08 6.25-7.6.13-.27.4-.4.65-.4.3 0 .52.1.73.3 1.64 1.92 3.75 2.98 6.34 3.1 2.4 0 4.3-1.05 6.12-3.4.34-.38.95-.46 1.34-.12l.12.13c1.82 2.37 3.7 3.4 6.13 3.4 2.6-.14 4.7-1.2 6.35-3.12.22-.2.43-.3.73-.3.26 0 .52.13.65.4 1.17 1.52 6.2 7.52 6.25 7.6.13.17.22.38.18.64 0 .25-.13.42-.3.6-2 1.74-3.07 3.9-3.15 6.5 0 1.87.83 3.23 1.73 4.8 1.5 2.17 2.2 4.4 2.3 6.98 0 5.1-4.24 8.97-11.36 10.25-3.66.76-6.64 2.04-9.7 4.25-.13.1-.3.17-.48.17zm-18.94-33.72c2.07 2.04 3.1 4.42 3.15 7.27 0 2.34-1 4.04-1.98 5.7-1.03 1.83-2.02 3.5-2.02 6.12 0 6.2 7.54 8.04 9.83 8.46 3.75.77 6.82 2.05 9.96 4.17 3.1-2.12 6.16-3.4 9.92-4.17 2.28-.42 9.83-2.25 9.83-8.46 0-2.63-1-4.25-2.03-6.12-1-1.7-1.98-3.4-1.98-5.7.04-2.85 1.08-5.23 3.15-7.27-1.18-1.36-3.77-4.47-5.15-6.2-1.94 1.86-4.22 2.84-6.9 2.92-2.8 0-5.17-1.14-6.9-3.27-1.77 2.13-4.14 3.27-6.94 3.27-2.67-.08-4.95-1.06-6.9-2.93-1.25 1.74-3.88 4.85-5.04 6.2z" stroke="#fff" stroke-opacity="0" fill="#fff"/><use xlink:href="#n" transform="matrix(1,0,0,1,-630,597.7083742503376) translate(43.78395061728395 14.222222222222223)"/><use xlink:href="#o" transform="matrix(1,0,0,1,-630,597.7083742503376) translate(20.59876543209876 35.55555555555556)"/><path d="M-655.6 510.7h-8.48v-3.4h8.48c8.16 0 12.08-3.6 12.08-11 0-6.34-3.68-10.34-11.04-11.8-.8-.16-1.36-.82-1.36-1.58-.4-6.14-3.92-8.37-6.8-8.37-2.08.05-3.84.96-5.12 2.64-.56.7-1.6.85-2.4.3-.24-.2-.4-.46-.56-.77-1.04-3.14-2.56-5.53-4.96-7.86-5.36-5.42-12.96-6.9-20-3.85-6.32 2.9-10.24 8.72-10.48 15.72 0 .7.08 1.3.16 2.07.08.88-.48 1.64-1.28 1.84-3.44.86-9.28 3.45-9.28 11.46v.8c.4 6.04 5.44 10.35 12.08 10.35h8.48v3.4h-8.48c-8.48 0-14.96-5.68-15.44-13.5v-1.05c-.24-6.7 3.92-12.52 10.4-14.35v-1.06c.24-11.68 9.92-20.95 21.6-20.7 5.68.15 10.56 2.23 14.64 6.4 2.08 2.02 3.52 4.1 4.72 6.78 1.76-1.37 3.68-1.98 5.92-2.03 4.48 0 9.2 3.2 10.16 10.25 8.08 2.07 12.56 7.3 12.56 14.85-.08 9.33-5.6 14.45-15.6 14.45zm-18.08 0h-12.72v-3.4h12.72z" stroke="#fff" stroke-opacity="0" fill="#232f3e"/><path d="M-668.9 509.1c-.48 0-.86-.16-1.2-.5l-9.56-9.57 2.4-2.42 8.36 8.33 8.37-8.38 2.4 2.42-9.57 9.56c-.32.37-.73.56-1.2.57z" stroke="#fff" stroke-opacity="0" fill="#232f3e"/><path d="M-670.6 481.85h3.4v23.95h-3.4v-23.95zM-682.83 492.65l-8.38-8.38-8.38 8.38-2.4-2.42 9.57-9.56c.66-.67 1.7-.67 2.38 0l9.57 9.56z" stroke="#fff" stroke-opacity="0" fill="#232f3e"/><path d="M-692.9 481.85h3.4v28.75h-3.4v-28.75z" stroke="#fff" stroke-opacity="0" fill="#232f3e"/><path d="M-655.6 510.7h-48.95c-8.48 0-14.95-5.68-15.43-13.48v-1.07c-.24-6.74 3.92-12.5 10.4-14.4v-1.05-.8c.55-8.12 5.2-14.7 12.55-18.06 8.23-3.54 17.27-1.82 23.6 4.57 2.15 2.08 3.6 4.16 4.78 6.8 1.76-1.32 3.68-1.98 5.92-1.98 4.48 0 9.2 3.2 10.16 10.24 8.16 2.03 12.55 7.3 12.55 14.85-.08 9.28-5.6 14.4-15.6 14.4zm-32.96-47.18c-2.64 0-4.87.45-7.27 1.47-6.32 2.93-10.16 8.75-10.4 15.7 0 .76 0 1.42.16 2.13.08.86-.48 1.67-1.28 1.87-3.44.86-9.27 3.4-9.27 11.45v.92c.32 5.93 5.43 10.18 12.07 10.18h48.94c8.15 0 12.07-3.6 12.07-11 0-6.33-3.68-10.33-11.04-11.8-.8-.15-1.28-.8-1.36-1.57-.32-6.2-3.92-8.37-6.8-8.37-2.08.06-3.84.98-5.12 2.65-.55.7-1.6.86-2.4.3-.23-.2-.4-.45-.55-.76-1.04-3.1-2.56-5.53-4.96-7.86-3.52-3.55-7.76-5.32-12.8-5.32z" stroke="#fff" stroke-opacity="0" fill="#fff" fill-opacity="0"/><g><use xlink:href="#p" transform="matrix(1,0,0,1,-750,519.7) translate(32.376543209876544 17.77777777777778)"/></g><path d="M20 200h340v740H20z" fill="#fff" fill-opacity="0"/><path d="M32.14 200h8.1m8.1 0h8.1m8.08 0h8.1m8.1 0h8.1m8.1 0h8.08m8.1 0h8.1m8.1 0h8.08m8.1 0h8.1m8.1 0h8.08m8.1 0h8.1m8.1 0h8.08m8.1 0h8.1m8.1 0h8.08m8.1 0h8.1m8.1 0h8.08m8.1 0h8.1m8.1 0h8.1m8.08 0h8.1m8.1 0h8.1m8.08 0h8.1m8.1 0H360v4.02m0 8.04v8.05m0 8.05v8.05m0 8.04v8.04m0 8.05v8.04m0 8.04v8.06m0 8.04v8.04m0 8.05v8.03m0 8.04v8.05m0 8.04v8.04m0 8.05v8.04m0 8.04v8.04m0 8.04v8.05m0 8.04v8.05m0 8.05v8.04m0 8.04v8.05m0 8.04v8.04m0 8.06v8.04m0 8.04v8.05m0 8.03v8.04m0 8.05v8.04m0 8.04v8.05m0 8.04v8.03m0 8.05v8.04m0 8.05v8.04m0 8.05v8.05m0 8.04v8.04m0 8.05v8.04m0 8.04v8.06m0 8.04v8.04m0 8.05v8.03m0 8.04v8.05m0 8.04v8.04m0 8.05v8.04m0 8.03v8.05m0 8.04v8.05m0 8.04v8.05m0 8.05v8.04m0 8.04v8.05m0 8.04v8.04m0 8.06v8.04m0 8.04v8.05m0 8.03v8.04m0 8.05v8.04m0 8.04v8.05m0 8.04v8.03m0 8.05V940h-4.05m-8.1 0h-8.1m-8.08 0h-8.1m-8.1 0h-8.1m-8.08 0h-8.1m-8.1 0H275m-8.1 0h-8.1m-8.1 0h-8.08m-8.1 0h-8.1m-8.1 0h-8.08m-8.1 0h-8.1m-8.1 0h-8.08m-8.1 0h-8.1m-8.1 0h-8.08m-8.1 0h-8.1m-8.1 0h-8.1m-8.08 0h-8.1m-8.1 0h-8.1m-8.08 0h-8.1m-8.1 0h-8.1m-8.08 0h-8.1m-8.1 0H20v-4.02m0-8.05v-8.04m0-8.05v-8.05m0-8.04v-8.04m0-8.05v-8.04m0-8.04v-8.06m0-8.04v-8.04m0-8.05v-8.03m0-8.04v-8.05m0-8.04v-8.04m0-8.05v-8.04m0-8.03v-8.05m0-8.04v-8.05m0-8.04v-8.05m0-8.05v-8.04m0-8.04v-8.05m0-8.04v-8.04m0-8.06v-8.04m0-8.04v-8.05m0-8.03v-8.04m0-8.05v-8.04m0-8.04v-8.05m0-8.04v-8.03m0-8.05v-8.04m0-8.05v-8.04m0-8.05v-8.05m0-8.04v-8.04m0-8.05v-8.04m0-8.04v-8.06m0-8.04v-8.04m0-8.05v-8.03m0-8.04v-8.05m0-8.04v-8.04m0-8.05v-8.04m0-8.04v-8.04m0-8.04v-8.05m0-8.04v-8.05m0-8.05v-8.04m0-8.04v-8.05m0-8.04v-8.04m0-8.06v-8.04m0-8.04v-8.05m0-8.03v-8.04m0-8.05v-8.04m0-8.04v-8.05m0-8.04v-8.03m0-8.05V200h4.05" stroke="#147eba" stroke-width="2" fill="none"/><g><path d="M20.03 940V200h10.33v740z" stroke="#000" stroke-opacity="0" stroke-width="2" fill="#fff" fill-opacity="0"/></g><g><use xlink:href="#e" transform="matrix(6.123233995736766e-17,-1,1,6.123233995736766e-17,25.031094521390287,935) translate(285.98765432098764 -6.1111111111111125)"/><use xlink:href="#f" transform="matrix(6.123233995736766e-17,-1,1,6.123233995736766e-17,25.031094521390287,935) translate(383.962962962963 -6.1111111111111125)"/><use xlink:href="#q" transform="matrix(6.123233995736766e-17,-1,1,6.123233995736766e-17,25.031094521390287,935) translate(431.2222222222223 -6.1111111111111125)"/></g><path d="M480 200h340v740H480z" fill="#fff" fill-opacity="0"/><path d="M492.14 200h8.1m8.1 0h8.1m8.08 0h8.1m8.1 0h8.1m8.08 0h8.1m8.1 0h8.1m8.1 0h8.08m8.1 0h8.1m8.1 0h8.08m8.1 0h8.1m8.1 0h8.08m8.1 0h8.1m8.1 0h8.08m8.1 0h8.1m8.1 0h8.08m8.1 0h8.1m8.1 0h8.1m8.08 0h8.1m8.1 0h8.1m8.08 0h8.1m8.1 0H820v4.02m0 8.04v8.05m0 8.05v8.05m0 8.04v8.04m0 8.05v8.04m0 8.04v8.06m0 8.04v8.04m0 8.05v8.03m0 8.04v8.05m0 8.04v8.04m0 8.05v8.04m0 8.04v8.04m0 8.04v8.05m0 8.04v8.05m0 8.05v8.04m0 8.04v8.05m0 8.04v8.04m0 8.06v8.04m0 8.04v8.05m0 8.03v8.04m0 8.05v8.04m0 8.04v8.05m0 8.04v8.03m0 8.05v8.04m0 8.05v8.04m0 8.05v8.05m0 8.04v8.04m0 8.05v8.04m0 8.04v8.06m0 8.04v8.04m0 8.05v8.03m0 8.04v8.05m0 8.04v8.04m0 8.05v8.04m0 8.03v8.05m0 8.04v8.05m0 8.04v8.05m0 8.05v8.04m0 8.04v8.05m0 8.04v8.04m0 8.06v8.04m0 8.04v8.05m0 8.03v8.04m0 8.05v8.04m0 8.04v8.05m0 8.04v8.03m0 8.05V940h-4.05m-8.1 0h-8.1m-8.08 0h-8.1m-8.1 0h-8.1m-8.08 0h-8.1m-8.1 0H735m-8.1 0h-8.1m-8.1 0h-8.08m-8.1 0h-8.1m-8.1 0h-8.08m-8.1 0h-8.1m-8.1 0h-8.08m-8.1 0h-8.1m-8.1 0h-8.08m-8.1 0h-8.1m-8.1 0h-8.08m-8.1 0h-8.1m-8.1 0h-8.1m-8.08 0h-8.1m-8.1 0h-8.1m-8.08 0h-8.1m-8.1 0H480v-4.02m0-8.05v-8.04m0-8.05v-8.05m0-8.04v-8.04m0-8.05v-8.04m0-8.04v-8.06m0-8.04v-8.04m0-8.05v-8.03m0-8.04v-8.05m0-8.04v-8.04m0-8.05v-8.04m0-8.03v-8.05m0-8.04v-8.05m0-8.04v-8.05m0-8.05v-8.04m0-8.04v-8.05m0-8.04v-8.04m0-8.06v-8.04m0-8.04v-8.05m0-8.03v-8.04m0-8.05v-8.04m0-8.04v-8.05m0-8.04v-8.03m0-8.05v-8.04m0-8.05v-8.04m0-8.05v-8.05m0-8.04v-8.04m0-8.05v-8.04m0-8.04v-8.06m0-8.04v-8.04m0-8.05v-8.03m0-8.04v-8.05m0-8.04v-8.04m0-8.05v-8.04m0-8.04v-8.04m0-8.04v-8.05m0-8.04v-8.05m0-8.05v-8.04m0-8.04v-8.05m0-8.04v-8.04m0-8.06v-8.04m0-8.04v-8.05m0-8.03v-8.04m0-8.05v-8.04m0-8.04v-8.05m0-8.04v-8.03m0-8.05V200h4.05" stroke="#147eba" stroke-width="2" fill="none"/><g><path d="M480.03 940V200h10.33v740z" stroke="#000" stroke-opacity="0" stroke-width="2" fill="#fff" fill-opacity="0"/></g><g><use xlink:href="#e" transform="matrix(6.123233995736766e-17,-1,1,6.123233995736766e-17,485.03109452139023,934.9999999999997) translate(285.98765432098764 -6.1111111111111125)"/><use xlink:href="#f" transform="matrix(6.123233995736766e-17,-1,1,6.123233995736766e-17,485.03109452139023,934.9999999999997) translate(383.962962962963 -6.1111111111111125)"/><use xlink:href="#r" transform="matrix(6.123233995736766e-17,-1,1,6.123233995736766e-17,485.03109452139023,934.9999999999997) translate(431.2222222222223 -6.1111111111111125)"/></g><defs><path fill="#147eba" d="M233-177c-1 41-23 64-60 70L243 0h-38l-65-103H63V0H30v-248c88 3 205-21 203 71zM63-129c60-2 137 13 137-47 0-61-80-42-137-45v92" id="s"/><path fill="#147eba" d="M100-194c63 0 86 42 84 106H49c0 40 14 67 53 68 26 1 43-12 49-29l28 8c-11 28-37 45-77 45C44 4 14-33 15-96c1-61 26-98 85-98zm52 81c6-60-76-77-97-28-3 7-6 17-6 28h103" id="t"/><path fill="#147eba" d="M177-190C167-65 218 103 67 71c-23-6-38-20-44-43l32-5c15 47 100 32 89-28v-30C133-14 115 1 83 1 29 1 15-40 15-95c0-56 16-97 71-98 29-1 48 16 59 35 1-10 0-23 2-32h30zM94-22c36 0 50-32 50-73 0-42-14-75-50-75-39 0-46 34-46 75s6 73 46 73" id="u"/><path fill="#147eba" d="M24-231v-30h32v30H24zM24 0v-190h32V0H24" id="v"/><path fill="#147eba" d="M100-194c62-1 85 37 85 99 1 63-27 99-86 99S16-35 15-95c0-66 28-99 85-99zM99-20c44 1 53-31 53-75 0-43-8-75-51-75s-53 32-53 75 10 74 51 75" id="w"/><path fill="#147eba" d="M117-194c89-4 53 116 60 194h-32v-121c0-31-8-49-39-48C34-167 62-67 57 0H25l-1-190h30c1 10-1 24 2 32 11-22 29-35 61-36" id="x"/><g id="a"><use transform="matrix(0.05,0,0,0.05,0,0)" xlink:href="#s"/><use transform="matrix(0.05,0,0,0.05,12.950000000000001,0)" xlink:href="#t"/><use transform="matrix(0.05,0,0,0.05,22.950000000000003,0)" xlink:href="#u"/><use transform="matrix(0.05,0,0,0.05,32.95,0)" xlink:href="#v"/><use transform="matrix(0.05,0,0,0.05,36.900000000000006,0)" xlink:href="#w"/><use transform="matrix(0.05,0,0,0.05,46.900000000000006,0)" xlink:href="#x"/></g><path fill="#666" d="M30-248c87 1 191-15 191 75 0 78-77 80-158 76V0H30v-248zm33 125c57 0 124 11 124-50 0-59-68-47-124-48v98" id="y"/><path fill="#666" d="M84 4C-5 8 30-112 23-190h32v120c0 31 7 50 39 49 72-2 45-101 50-169h31l1 190h-30c-1-10 1-25-2-33-11 22-28 36-60 37" id="z"/><path fill="#666" d="M115-194c53 0 69 39 70 98 0 66-23 100-70 100C84 3 66-7 56-30L54 0H23l1-261h32v101c10-23 28-34 59-34zm-8 174c40 0 45-34 45-75 0-40-5-75-45-74-42 0-51 32-51 76 0 43 10 73 51 73" id="A"/><path fill="#666" d="M24 0v-261h32V0H24" id="B"/><path fill="#666" d="M24-231v-30h32v30H24zM24 0v-190h32V0H24" id="C"/><path fill="#666" d="M96-169c-40 0-48 33-48 73s9 75 48 75c24 0 41-14 43-38l32 2c-6 37-31 61-74 61-59 0-76-41-82-99-10-93 101-131 147-64 4 7 5 14 7 22l-32 3c-4-21-16-35-41-35" id="D"/><g id="b"><use transform="matrix(0.04938271604938272,0,0,0.04938271604938272,0,0)" xlink:href="#y"/><use transform="matrix(0.04938271604938272,0,0,0.04938271604938272,11.851851851851853,0)" xlink:href="#z"/><use transform="matrix(0.04938271604938272,0,0,0.04938271604938272,21.7283950617284,0)" xlink:href="#A"/><use transform="matrix(0.04938271604938272,0,0,0.04938271604938272,31.60493827160494,0)" xlink:href="#B"/><use transform="matrix(0.04938271604938272,0,0,0.04938271604938272,35.50617283950618,0)" xlink:href="#C"/><use transform="matrix(0.04938271604938272,0,0,0.04938271604938272,39.40740740740741,0)" xlink:href="#D"/></g><path fill="#666" d="M185-189c-5-48-123-54-124 2 14 75 158 14 163 119 3 78-121 87-175 55-17-10-28-26-33-46l33-7c5 56 141 63 141-1 0-78-155-14-162-118-5-82 145-84 179-34 5 7 8 16 11 25" id="E"/><path fill="#666" d="M117-194c89-4 53 116 60 194h-32v-121c0-31-8-49-39-48C34-167 62-67 57 0H25l-1-190h30c1 10-1 24 2 32 11-22 29-35 61-36" id="F"/><path fill="#666" d="M100-194c63 0 86 42 84 106H49c0 40 14 67 53 68 26 1 43-12 49-29l28 8c-11 28-37 45-77 45C44 4 14-33 15-96c1-61 26-98 85-98zm52 81c6-60-76-77-97-28-3 7-6 17-6 28h103" id="G"/><path fill="#666" d="M59-47c-2 24 18 29 38 22v24C64 9 27 4 27-40v-127H5v-23h24l9-43h21v43h35v23H59v120" id="H"/><g id="c"><use transform="matrix(0.04938271604938272,0,0,0.04938271604938272,0,0)" xlink:href="#E"/><use transform="matrix(0.04938271604938272,0,0,0.04938271604938272,11.851851851851853,0)" xlink:href="#z"/><use transform="matrix(0.04938271604938272,0,0,0.04938271604938272,21.7283950617284,0)" xlink:href="#A"/><use transform="matrix(0.04938271604938272,0,0,0.04938271604938272,31.60493827160494,0)" xlink:href="#F"/><use transform="matrix(0.04938271604938272,0,0,0.04938271604938272,41.48148148148149,0)" xlink:href="#G"/><use transform="matrix(0.04938271604938272,0,0,0.04938271604938272,51.35802469135803,0)" xlink:href="#H"/></g><path fill="#666" d="M27 0v-27h64v-190l-56 39v-29l58-41h29v221h61V0H27" id="I"/><use transform="matrix(0.04938271604938272,0,0,0.04938271604938272,0,0)" xlink:href="#I" id="d"/><path fill="#666" d="M199 0l-22-63H83L61 0H9l90-248h61L250 0h-51zm-33-102l-36-108c-10 38-24 72-36 108h72" id="J"/><path fill="#666" d="M128 0H69L1-190h53L99-40l48-150h52" id="K"/><path fill="#666" d="M133-34C117-15 103 5 69 4 32 3 11-16 11-54c-1-60 55-63 116-61 1-26-3-47-28-47-18 1-26 9-28 27l-52-2c7-38 36-58 82-57s74 22 75 68l1 82c-1 14 12 18 25 15v27c-30 8-71 5-69-32zm-48 3c29 0 43-24 42-57-32 0-66-3-65 30 0 17 8 27 23 27" id="L"/><path fill="#666" d="M25-224v-37h50v37H25zM25 0v-190h50V0H25" id="M"/><path fill="#666" d="M25 0v-261h50V0H25" id="N"/><path fill="#666" d="M135-194c52 0 70 43 70 98 0 56-19 99-73 100-30 1-46-15-58-35L72 0H24l1-261h50v104c11-23 29-37 60-37zM114-30c31 0 40-27 40-66 0-37-7-63-39-63s-41 28-41 65c0 36 8 64 40 64" id="O"/><path fill="#666" d="M115-3C79 11 28 4 28-45v-112H4v-33h27l15-45h31v45h36v33H77v99c-1 23 16 31 38 25v30" id="P"/><path fill="#666" d="M123 10C108 53 80 86 19 72V37c35 8 53-11 59-39L3-190h52l48 148c12-52 28-100 44-148h51" id="Q"/><g id="e"><use transform="matrix(0.04938271604938272,0,0,0.04938271604938272,0,0)" xlink:href="#J"/><use transform="matrix(0.04938271604938272,0,0,0.04938271604938272,12.14814814814815,0)" xlink:href="#K"/><use transform="matrix(0.04938271604938272,0,0,0.04938271604938272,22.024691358024697,0)" xlink:href="#L"/><use transform="matrix(0.04938271604938272,0,0,0.04938271604938272,31.90123456790124,0)" xlink:href="#M"/><use transform="matrix(0.04938271604938272,0,0,0.04938271604938272,36.83950617283951,0)" xlink:href="#N"/><use transform="matrix(0.04938271604938272,0,0,0.04938271604938272,41.777777777777786,0)" xlink:href="#L"/><use transform="matrix(0.04938271604938272,0,0,0.04938271604938272,51.65432098765432,0)" xlink:href="#O"/><use transform="matrix(0.04938271604938272,0,0,0.04938271604938272,62.469135802469154,0)" xlink:href="#M"/><use transform="matrix(0.04938271604938272,0,0,0.04938271604938272,67.40740740740742,0)" xlink:href="#N"/><use transform="matrix(0.04938271604938272,0,0,0.04938271604938272,72.3456790123457,0)" xlink:href="#M"/><use transform="matrix(0.04938271604938272,0,0,0.04938271604938272,77.28395061728398,0)" xlink:href="#P"/><use transform="matrix(0.04938271604938272,0,0,0.04938271604938272,83.16049382716052,0)" xlink:href="#Q"/></g><path fill="#666" d="M210 0H11v-37l134-170H24v-41h178v36L68-41h142V0" id="R"/><path fill="#666" d="M110-194c64 0 96 36 96 99 0 64-35 99-97 99-61 0-95-36-95-99 0-62 34-99 96-99zm-1 164c35 0 45-28 45-65 0-40-10-65-43-65-34 0-45 26-45 65 0 36 10 65 43 65" id="S"/><path fill="#666" d="M135-194c87-1 58 113 63 194h-50c-7-57 23-157-34-157-59 0-34 97-39 157H25l-1-190h47c2 12-1 28 3 38 12-26 28-41 61-42" id="T"/><path fill="#666" d="M185-48c-13 30-37 53-82 52C43 2 14-33 14-96s30-98 90-98c62 0 83 45 84 108H66c0 31 8 55 39 56 18 0 30-7 34-22zm-45-69c5-46-57-63-70-21-2 6-4 13-4 21h74" id="U"/><g id="f"><use transform="matrix(0.04938271604938272,0,0,0.04938271604938272,0,0)" xlink:href="#R"/><use transform="matrix(0.04938271604938272,0,0,0.04938271604938272,10.814814814814815,0)" xlink:href="#S"/><use transform="matrix(0.04938271604938272,0,0,0.04938271604938272,21.62962962962963,0)" xlink:href="#T"/><use transform="matrix(0.04938271604938272,0,0,0.04938271604938272,32.44444444444444,0)" xlink:href="#U"/></g><use transform="matrix(0.04938271604938272,0,0,0.04938271604938272,0,0)" xlink:href="#J" id="g"/><path fill="#666" d="M147 0H94L2-248h55l64 206c17-72 42-137 63-206h54" id="V"/><path fill="#666" d="M24-248c93 1 206-16 204 79-1 75-69 88-152 82V0H24v-248zm52 121c47 0 100 7 100-41 0-47-54-39-100-39v80" id="W"/><path fill="#666" d="M67-125c0 53 21 87 73 88 37 1 54-22 65-47l45 17C233-25 199 4 140 4 58 4 20-42 15-125 8-235 124-281 211-232c18 10 29 29 36 50l-46 12c-8-25-30-41-62-41-52 0-71 34-72 86" id="X"/><g id="h"><use transform="matrix(0.04938271604938272,0,0,0.04938271604938272,0,0)" xlink:href="#V"/><use transform="matrix(0.04938271604938272,0,0,0.04938271604938272,11.851851851851853,0)" xlink:href="#W"/><use transform="matrix(0.04938271604938272,0,0,0.04938271604938272,23.703703703703706,0)" xlink:href="#X"/></g><path fill="#666" d="M101-251c68 0 85 55 85 127S166 4 100 4C33 4 14-52 14-124c0-73 17-127 87-127zm-1 229c47 0 54-49 54-102s-4-102-53-102c-51 0-55 48-55 102 0 53 5 102 54 102" id="Y"/><path fill="#666" d="M33 0v-38h34V0H33" id="Z"/><path fill="#666" d="M0 4l72-265h28L28 4H0" id="aa"/><path fill="#666" d="M110-160c48 1 74 30 74 79 0 53-28 85-80 85-65 0-83-55-86-122-5-90 50-162 133-122 14 7 22 21 27 39l-31 6c-5-40-67-38-82-6-9 19-15 44-15 74 11-20 30-34 60-33zm-7 138c34 0 49-23 49-58s-16-56-50-56c-29 0-50 16-49 49 1 36 15 65 50 65" id="ab"/><g id="i"><use transform="matrix(0.04320987654320988,0,0,0.04320987654320988,0,0)" xlink:href="#I"/><use transform="matrix(0.04320987654320988,0,0,0.04320987654320988,8.641975308641976,0)" xlink:href="#Y"/><use transform="matrix(0.04320987654320988,0,0,0.04320987654320988,17.283950617283953,0)" xlink:href="#Z"/><use transform="matrix(0.04320987654320988,0,0,0.04320987654320988,21.60493827160494,0)" xlink:href="#Y"/><use transform="matrix(0.04320987654320988,0,0,0.04320987654320988,30.24691358024692,0)" xlink:href="#Z"/><use transform="matrix(0.04320987654320988,0,0,0.04320987654320988,34.567901234567906,0)" xlink:href="#Y"/><use transform="matrix(0.04320987654320988,0,0,0.04320987654320988,43.20987654320988,0)" xlink:href="#Z"/><use transform="matrix(0.04320987654320988,0,0,0.04320987654320988,47.53086419753087,0)" xlink:href="#Y"/><use transform="matrix(0.04320987654320988,0,0,0.04320987654320988,56.17283950617284,0)" xlink:href="#aa"/><use transform="matrix(0.04320987654320988,0,0,0.04320987654320988,60.49382716049384,0)" xlink:href="#I"/><use transform="matrix(0.04320987654320988,0,0,0.04320987654320988,69.13580246913581,0)" xlink:href="#ab"/></g><path fill="#666" d="M275 0h-61l-44-196L126 0H64L0-248h53L97-49l45-199h58l43 199 44-199h52" id="ac"/><path fill="#666" d="M169-182c-1-43-94-46-97-3 18 66 151 10 154 114 3 95-165 93-204 36-6-8-10-19-12-30l50-8c3 46 112 56 116 5-17-69-150-10-154-114-4-87 153-88 188-35 5 8 8 18 10 28" id="ad"/><g id="j"><use transform="matrix(0.04938271604938272,0,0,0.04938271604938272,0,0)" xlink:href="#J"/><use transform="matrix(0.04938271604938272,0,0,0.04938271604938272,11.80246913580247,0)" xlink:href="#ac"/><use transform="matrix(0.04938271604938272,0,0,0.04938271604938272,28.543209876543205,0)" xlink:href="#ad"/></g><path fill="#666" d="M85 4C-2 5 27-109 22-190h50c7 57-23 150 33 157 60-5 35-97 40-157h50l1 190h-47c-2-12 1-28-3-38-12 25-28 42-61 42" id="ae"/><path fill="#666" d="M88-194c31-1 46 15 58 34l-1-101h50l1 261h-48c-2-10 0-23-3-31C134-8 116 4 84 4 32 4 16-41 15-95c0-56 19-97 73-99zm17 164c33 0 40-30 41-66 1-37-9-64-41-64s-38 30-39 65c0 43 13 65 39 65" id="af"/><g id="k"><use transform="matrix(0.04938271604938272,0,0,0.04938271604938272,0,0)" xlink:href="#X"/><use transform="matrix(0.04938271604938272,0,0,0.04938271604938272,12.790123456790125,0)" xlink:href="#N"/><use transform="matrix(0.04938271604938272,0,0,0.04938271604938272,17.7283950617284,0)" xlink:href="#S"/><use transform="matrix(0.04938271604938272,0,0,0.04938271604938272,28.54320987654322,0)" xlink:href="#ae"/><use transform="matrix(0.04938271604938272,0,0,0.04938271604938272,39.35802469135803,0)" xlink:href="#af"/></g><path fill="#666" d="M33 0v-248h34V0H33" id="ag"/><path fill="#666" d="M114-163C36-179 61-72 57 0H25l-1-190h30c1 12-1 29 2 39 6-27 23-49 58-41v29" id="ah"/><g id="l"><use transform="matrix(0.04938271604938272,0,0,0.04938271604938272,0,0)" xlink:href="#ag"/><use transform="matrix(0.04938271604938272,0,0,0.04938271604938272,4.938271604938272,0)" xlink:href="#F"/><use transform="matrix(0.04938271604938272,0,0,0.04938271604938272,14.814814814814817,0)" xlink:href="#H"/><use transform="matrix(0.04938271604938272,0,0,0.04938271604938272,19.75308641975309,0)" xlink:href="#G"/><use transform="matrix(0.04938271604938272,0,0,0.04938271604938272,29.629629629629633,0)" xlink:href="#ah"/><use transform="matrix(0.04938271604938272,0,0,0.04938271604938272,35.50617283950618,0)" xlink:href="#F"/><use transform="matrix(0.04938271604938272,0,0,0.04938271604938272,45.38271604938272,0)" xlink:href="#G"/><use transform="matrix(0.04938271604938272,0,0,0.04938271604938272,55.25925925925927,0)" xlink:href="#H"/></g><path fill="#666" d="M143 4C61 4 22-44 18-125c-5-107 100-154 193-111 17 8 29 25 37 43l-32 9c-13-25-37-40-76-40-61 0-88 39-88 99 0 61 29 100 91 101 35 0 62-11 79-27v-45h-74v-28h105v86C228-13 192 4 143 4" id="ai"/><path fill="#666" d="M141-36C126-15 110 5 73 4 37 3 15-17 15-53c-1-64 63-63 125-63 3-35-9-54-41-54-24 1-41 7-42 31l-33-3c5-37 33-52 76-52 45 0 72 20 72 64v82c-1 20 7 32 28 27v20c-31 9-61-2-59-35zM48-53c0 20 12 33 32 33 41-3 63-29 60-74-43 2-92-5-92 41" id="aj"/><path fill="#666" d="M206 0h-36l-40-164L89 0H53L-1-190h32L70-26l43-164h34l41 164 42-164h31" id="ak"/><path fill="#666" d="M179-190L93 31C79 59 56 82 12 73V49c39 6 53-20 64-50L1-190h34L92-34l54-156h33" id="al"/><g id="m"><use transform="matrix(0.04938271604938272,0,0,0.04938271604938272,0,0)" xlink:href="#ai"/><use transform="matrix(0.04938271604938272,0,0,0.04938271604938272,13.827160493827162,0)" xlink:href="#aj"/><use transform="matrix(0.04938271604938272,0,0,0.04938271604938272,23.703703703703706,0)" xlink:href="#H"/><use transform="matrix(0.04938271604938272,0,0,0.04938271604938272,28.641975308641978,0)" xlink:href="#G"/><use transform="matrix(0.04938271604938272,0,0,0.04938271604938272,38.51851851851852,0)" xlink:href="#ak"/><use transform="matrix(0.04938271604938272,0,0,0.04938271604938272,51.308641975308646,0)" xlink:href="#aj"/><use transform="matrix(0.04938271604938272,0,0,0.04938271604938272,61.18518518518519,0)" xlink:href="#al"/></g><path fill="#666" d="M30-248c118-7 216 8 213 122C240-48 200 0 122 0H30v-248zM63-27c89 8 146-16 146-99s-60-101-146-95v194" id="am"/><path fill="#666" d="M190 0L58-211 59 0H30v-248h39L202-35l-2-213h31V0h-41" id="an"/><g id="n"><use transform="matrix(0.04938271604938272,0,0,0.04938271604938272,0,0)" xlink:href="#am"/><use transform="matrix(0.04938271604938272,0,0,0.04938271604938272,12.790123456790125,0)" xlink:href="#an"/><use transform="matrix(0.04938271604938272,0,0,0.04938271604938272,25.58024691358025,0)" xlink:href="#E"/></g><path fill="#666" d="M233-177c-1 41-23 64-60 70L243 0h-38l-65-103H63V0H30v-248c88 3 205-21 203 71zM63-129c60-2 137 13 137-47 0-61-80-42-137-45v92" id="ao"/><path fill="#666" d="M135-143c-3-34-86-38-87 0 15 53 115 12 119 90S17 21 10-45l28-5c4 36 97 45 98 0-10-56-113-15-118-90-4-57 82-63 122-42 12 7 21 19 24 35" id="ap"/><path fill="#666" d="M100-194c62-1 85 37 85 99 1 63-27 99-86 99S16-35 15-95c0-66 28-99 85-99zM99-20c44 1 53-31 53-75 0-43-8-75-51-75s-53 32-53 75 10 74 51 75" id="aq"/><g id="o"><use transform="matrix(0.04938271604938272,0,0,0.04938271604938272,0,0)" xlink:href="#ao"/><use transform="matrix(0.04938271604938272,0,0,0.04938271604938272,12.790123456790125,0)" xlink:href="#G"/><use transform="matrix(0.04938271604938272,0,0,0.04938271604938272,22.66666666666667,0)" xlink:href="#ap"/><use transform="matrix(0.04938271604938272,0,0,0.04938271604938272,31.555555555555557,0)" xlink:href="#aq"/><use transform="matrix(0.04938271604938272,0,0,0.04938271604938272,41.4320987654321,0)" xlink:href="#B"/><use transform="matrix(0.04938271604938272,0,0,0.04938271604938272,45.333333333333336,0)" xlink:href="#z"/><use transform="matrix(0.04938271604938272,0,0,0.04938271604938272,55.20987654320988,0)" xlink:href="#H"/><use transform="matrix(0.04938271604938272,0,0,0.04938271604938272,60.14814814814815,0)" xlink:href="#C"/><use transform="matrix(0.04938271604938272,0,0,0.04938271604938272,64.0493827160494,0)" xlink:href="#aq"/><use transform="matrix(0.04938271604938272,0,0,0.04938271604938272,73.92592592592594,0)" xlink:href="#F"/></g><path fill="#3a414a" d="M33 0v-248h34V0H33" id="ar"/><path fill="#3a414a" d="M117-194c89-4 53 116 60 194h-32v-121c0-31-8-49-39-48C34-167 62-67 57 0H25l-1-190h30c1 10-1 24 2 32 11-22 29-35 61-36" id="as"/><path fill="#3a414a" d="M59-47c-2 24 18 29 38 22v24C64 9 27 4 27-40v-127H5v-23h24l9-43h21v43h35v23H59v120" id="at"/><path fill="#3a414a" d="M100-194c63 0 86 42 84 106H49c0 40 14 67 53 68 26 1 43-12 49-29l28 8c-11 28-37 45-77 45C44 4 14-33 15-96c1-61 26-98 85-98zm52 81c6-60-76-77-97-28-3 7-6 17-6 28h103" id="au"/><path fill="#3a414a" d="M114-163C36-179 61-72 57 0H25l-1-190h30c1 12-1 29 2 39 6-27 23-49 58-41v29" id="av"/><g id="p"><use transform="matrix(0.06172839506172839,0,0,0.06172839506172839,0,0)" xlink:href="#ar"/><use transform="matrix(0.06172839506172839,0,0,0.06172839506172839,6.172839506172839,0)" xlink:href="#as"/><use transform="matrix(0.06172839506172839,0,0,0.06172839506172839,18.51851851851852,0)" xlink:href="#at"/><use transform="matrix(0.06172839506172839,0,0,0.06172839506172839,24.691358024691358,0)" xlink:href="#au"/><use transform="matrix(0.06172839506172839,0,0,0.06172839506172839,37.03703703703704,0)" xlink:href="#av"/><use transform="matrix(0.06172839506172839,0,0,0.06172839506172839,44.382716049382715,0)" xlink:href="#as"/><use transform="matrix(0.06172839506172839,0,0,0.06172839506172839,56.72839506172839,0)" xlink:href="#au"/><use transform="matrix(0.06172839506172839,0,0,0.06172839506172839,69.07407407407408,0)" xlink:href="#at"/></g><path fill="#666" d="M182-130c37 4 62 22 62 59C244 23 116-4 24 0v-248c84 5 203-23 205 63 0 31-19 50-47 55zM76-148c40-3 101 13 101-30 0-44-60-28-101-31v61zm0 110c48-3 116 14 116-37 0-48-69-32-116-35v72" id="aw"/><use transform="matrix(0.04938271604938272,0,0,0.04938271604938272,0,0)" xlink:href="#aw" id="q"/><use transform="matrix(0.04938271604938272,0,0,0.04938271604938272,0,0)" xlink:href="#X" id="r"/></defs></g></svg>