<svg xmlns="http://www.w3.org/2000/svg" xmlns:xlink="http://www.w3.org/1999/xlink" xmlns:lucid="lucid" width="2188" height="1798"><g transform="translate(775 -10)" lucid:page-tab-id="0_0"><path d="M-500 127.5a6 6 0 0 1 6-6h1808a6 6 0 0 1 6 6V1714a6 6 0 0 1-6 6H-494a6 6 0 0 1-6-6z" fill="#fff" fill-opacity="0"/><path d="M-499.1 124.36l.25-.4.6-.7.72-.63.4-.24m1.73-.73l.46-.1.94-.08h1.5m2 0h3m2 0h3m2 0h2.98m2 0h3m2 0h3m2 0h2.98m2 0h3m2 0h3m2 0h3m2 0h2.98m2 0h3m2 0h3m2 0h3m1.98 0h3m2 0h3m2 0h3m2 0h2.98m2 0h3m2 0h3m2 0h3m2 0h2.98m2 0h3m2 0h3m2 0h3m1.98 0h3m2 0h3m2 0h3m2 0h2.98m2 0h3m2 0h3m2 0h3m2 0h2.98m2 0h3m2 0h3m2 0h3m1.98 0h3m2 0h3m2 0h3m2 0h2.98m2 0h3m2 0h3m2 0h3m1.98 0h3m2 0h3m2 0h3m2 0h2.98m2 0h3m2 0h3m2 0h3m1.98 0h3m2 0h3m2 0h3m2 0h3m1.98 0h3m2 0h3m2 0h3m2 0h2.98m2 0h3m2 0h3m2 0h3m1.98 0h3m2 0h3m2 0h3m2 0h3m1.98 0h3m2 0h3m2 0h3m2 0h2.98m2 0h3m2 0h3m2 0h3m1.98 0h3m2 0h3m2 0h3m2 0h2.98m2 0h3m2 0h3m2 0h3m1.98 0h3m2 0h3m2 0h3m2 0h2.98m2 0h3m2 0h3m2 0h3m2 0H-63m2 0h3m2 0h3m2 0h3m1.98 0h3m2 0h3m2 0h3m2 0h2.98m2 0h3m2 0h3m2 0h3m2 0h2.98m2 0h3m2 0h3m2 0h3m1.98 0h3m2 0h3m2 0h3m2 0h2.98m2 0h3m2 0h3m2 0h3m1.98 0h3m2 0h3m2 0h3m2 0h2.98m2 0h3m2 0h3m2 0h3m2 0h2.98m2 0h3m2 0h3m2 0h3m1.98 0h3m2 0h3m2 0h3m2 0h2.98m2 0h3m2 0h3m2 0h3m2 0h2.98m2 0h3m2 0h3m2 0h3m1.98 0h3m2 0h3m2 0h3m2 0h2.98m2 0h3m2 0h3m2 0h3m2 0h2.98m2 0h3m2 0h3m2 0h2.98m2 0h3m2 0h3m2 0h3m2 0h2.98m2 0h3m2 0h3m2 0h3m1.98 0h3m2 0h3m2 0h3m2 0h2.98m2 0h3m2 0h3m2 0h3m1.98 0h3m2 0h3m2 0h3m2 0h3m1.98 0h3m2 0h3m2 0h3m2 0h2.98m2 0h3m2 0h3m2 0h3m1.98 0h3m2 0h3m2 0h3m2 0h3m1.98 0h3m2 0h3m2 0h3m2 0h2.98m2 0h3m2 0h3m2 0h3m1.98 0h3m2 0h3m2 0h3m2 0h2.98m2 0h3m2 0h3m2 0h3m2 0h2.98m2 0h3m2 0h3m2 0h2.98m2 0h3m2 0h3m2 0h3m2 0h2.98m2 0h3m2 0h3m2 0h3m1.98 0h3m2 0h3m2 0h3m2 0h2.98m2 0h3m2 0h3m2 0h3m2 0h2.98m2 0h3m2 0h3m2 0h3m1.98 0h3m2 0h3m2 0h3m2 0h2.98m2 0h3m2 0h3m2 0h3m2 0h2.98m2 0h3m2 0h3m2 0h2.98m2 0h3m2 0h3m2 0h3m2 0h2.98m2 0h3m2 0h3m2 0h3m1.98 0h3m2 0h3m2 0h3m2 0h2.98m2 0h3m2 0h3m2 0h3m2 0h2.98m2 0h3m2 0h3m2 0h3m1.98 0h3m2 0h3m2 0h3m2 0h2.98m2 0h3m2 0h3m2 0h3m2 0h2.98m2 0h3m2 0h3m2 0h3m1.98 0h3m2 0h3m2 0h3m2 0h2.98m2 0h3m2 0h3m2 0h3m1.98 0h3m2 0h3m2 0h3m2 0h2.98m2 0h3m2 0h3m2 0h3m2 0h2.98m2 0h3m2 0h3m2 0h3m1.98 0h3m2 0h3m2 0h3m2 0H841m2 0h3m2 0h3m2 0h3m1.98 0h3m2 0h3m2 0h3m2 0h3m1.98 0h3m2 0h3m2 0h3m2 0h2.98m2 0h3m2 0h3m2 0h3m1.98 0h3m2 0h3m2 0h3m2 0h2.98m2 0h3m2 0h3m2 0h3m2 0h2.98m2 0h3m2 0h3m2 0h3m1.98 0h3m2 0h3m2 0h3m2 0h2.98m2 0h3m2 0h3m2 0h3m1.98 0h3m2 0h3m2 0h3m2 0h2.98m2 0h3m2 0h3m2 0h3m2 0h2.98m2 0h3m2 0h3m2 0h3m1.98 0h3m2 0h3m2 0h3m2 0h2.98m2 0h3m2 0h3m2 0h3m1.98 0h3m2 0h3m2 0h3m2 0h2.98m2 0h3m2 0h3m2 0h3m2 0h2.98m2 0h3m2 0h3m2 0h3m1.98 0h3m2 0h3m2 0h3m2 0h2.98m2 0h3m2 0h3m2 0h3m1.98 0h3m2 0h3m2 0h3m2 0h2.98m2 0h3m2 0h3m2 0h3m2 0h2.98m2 0h3m2 0h3m2 0h3m2 0h2.98m2 0h3m2 0h3m2 0h3m1.98 0h3m2 0h3m2 0h3m2 0h2.98m2 0h3m2 0h3m2 0h3m1.98 0h3m2 0h3m2 0h3m2 0h2.98m2 0h1.5l.94.06.46.1m1.72.73l.4.23.72.62.6.7.26.4m.72 1.74l.1.45.08.94v1.5m0 2v3m0 2v3m0 2v3m0 2v3m0 2v3m0 2.02v3m0 2v3m0 2v3m0 2v3m0 2v3.02m0 2v3m0 2v3m0 2v3m0 2v3.02m0 2v3m0 2v3m0 2v3m0 2v3.02m0 2v3m0 2v3m0 2v3m0 2v3m0 2.02v3m0 2v3m0 2v3m0 2v3m0 2.02v3m0 2v3m0 2v3m0 2v3m0 2v3.02m0 2v3m0 2v3m0 2v3m0 2v3.02m0 2v3m0 2v3m0 2v3m0 2v3.02m0 2v3m0 2v3m0 2v3m0 2v3m0 2.02v3m0 2v3m0 2v3m0 2v3m0 2.02v3m0 2v3m0 2v3m0 2v3m0 2.02v3m0 2v3m0 2v3m0 2v3m0 2v3.02m0 2v3m0 2v3m0 2v3m0 2v3.02m0 2v3m0 2v3m0 2v3m0 2v3.02m0 2v3m0 2v3m0 2v3m0 2v3m0 2.02v3m0 2v3m0 2v3m0 2v3m0 2.02v3m0 2v3m0 2v3m0 2v3m0 2.02v3m0 2v3m0 2v3m0 2v3m0 2v3.02m0 2v3m0 2v3m0 2v3m0 2v3.02m0 2v3m0 2v3m0 2v3m0 2v3m0 2.02v3m0 2v3m0 2v3m0 2v3m0 2.02v3m0 2v3m0 2v3m0 2v3m0 2v3.02m0 2v3m0 2v3m0 2v3m0 2v3.02m0 2v3m0 2v3m0 2v3m0 2v3.02m0 2v3m0 2v3m0 2v3m0 2v3m0 2.02v3m0 2v3m0 2v3m0 2v3m0 2.02v3m0 2v3m0 2v3m0 2v3m0 2v3.02m0 2v3m0 2v3m0 2v3m0 2v3.02m0 2v3m0 2v3m0 2v3m0 2v3.02m0 2v3m0 2v3m0 2v3m0 2v3m0 2.02v3m0 2v3m0 2v3m0 2v3m0 2.02v3m0 2v3m0 2v3m0 2v3m0 2v3.02m0 2v3m0 2v3m0 2v3m0 2v3.02m0 2v3m0 2v3m0 2v3m0 2v3.02m0 2v3m0 2v3m0 2v3m0 2v3m0 2.02v3m0 2v3m0 2v3m0 2v3m0 2.02v3m0 2v3m0 2v3m0 2v3m0 2v3.02m0 2v3m0 2v3m0 2v3m0 2v3.02m0 2v3m0 2v3m0 2v3m0 2v3.02m0 2v3m0 2v3m0 2v3m0 2v3.02m0 2v3m0 2v3m0 2v3m0 2v3m0 2.02v3m0 2v3m0 2v3m0 2v3m0 2.02v3m0 2v3m0 2v3m0 2v3m0 2v3.02m0 2v3m0 2v3m0 2v3m0 2v3.02m0 2v3m0 2v3m0 2v3m0 2v3m0 2.02v3m0 2v3m0 2v3m0 2v3m0 2.02v3m0 2v3m0 2v3m0 2v3m0 2v3.02m0 2v3m0 2v3m0 2v3m0 2v3.02m0 2v3m0 2v3m0 2v3m0 2v3.02m0 2v3m0 2v3m0 2v3m0 2v3.02m0 2v3m0 2v3m0 2v3m0 2v3m0 2.02v3m0 2v3m0 2v3m0 2v3m0 2.02v3m0 2v3m0 2v3m0 2v3m0 2v3.02m0 2v3m0 2v3m0 2v3m0 2v3.02m0 2v3m0 2v3m0 2v3m0 2v3.02m0 2v3m0 2v3m0 2v3m0 2v3m0 2.02v3m0 2v3m0 2v3m0 2v3m0 2v3.02m0 2v3m0 2v3m0 2v3m0 2v3.02m0 2v3m0 2v3m0 2v3m0 2v3.02m0 2v3m0 2v3m0 2v3m0 2v3m0 2.02v3m0 2v3m0 2v3m0 2v3m0 2.02v3m0 2v3m0 2v3m0 2v3m0 2.02v3m0 2v3m0 2v3m0 2v3m0 2.02v3m0 2v3m0 2v3m0 2v3m0 2v3.02m0 2v3m0 2v3m0 2v3m0 2v3.02m0 2v3m0 2v3m0 2v3m0 2v3.02m0 2v3m0 2v3m0 2v3m0 2v3m0 2.02v3m0 2v3m0 2v3m0 2v3m0 2.02v3m0 2v3m0 2v3m0 2v3m0 2v3.02m0 2v3m0 2v3m0 2v3m0 2v3.02m0 2v3m0 2v3m0 2v3m0 2v3m0 2.02v3m0 2v3m0 2v3m0 2v3m0 2.02v3m0 2v3m0 2v3m0 2v3m0 2v3.02m0 2v3m0 2v3m0 2v3m0 2v3.02m0 2v1.5l-.07.94-.1.46m-.73 1.72l-.25.4-.6.72-.72.6-.4.26m-1.73.72l-.46.1-.94.08h-1.5m-2 0h-3m-2 0h-3m-1.98 0h-3m-2 0h-3m-2 0h-3m-2 0h-2.98m-2 0h-3m-2 0h-3m-2 0h-3m-2 0h-2.98m-2 0h-3m-2 0h-3m-2 0h-3m-1.98 0h-3m-2 0h-3m-2 0h-3m-2 0h-2.98m-2 0h-3m-2 0h-3m-2 0h-3m-2 0h-2.98m-2 0h-3m-2 0h-3m-2 0h-3m-1.98 0h-3m-2 0h-3m-2 0h-3m-2 0h-2.98m-2 0h-3m-2 0h-3m-2 0h-3m-2 0h-2.98m-2 0h-3m-2 0h-3m-2 0h-3m-1.98 0h-3m-2 0h-3m-2 0h-3m-2 0h-2.98m-2 0h-3m-2 0h-3m-2 0h-3m-1.98 0h-3m-2 0h-3m-2 0h-3m-2 0h-2.98m-2 0h-3m-2 0h-3m-2 0h-3m-1.98 0h-3m-2 0h-3m-2 0h-3m-2 0h-3m-1.98 0h-3m-2 0h-3m-2 0h-3m-2 0h-2.98m-2 0h-3m-2 0h-3m-2 0h-3m-2 0h-2.98m-2 0h-3m-2 0h-3m-2 0h-3m-1.98 0h-3m-2 0h-3m-2 0h-3m-2 0h-2.98m-2 0h-3m-2 0h-3m-2 0h-3m-1.98 0h-3m-2 0h-3m-2 0h-3m-2 0h-2.98m-2 0h-3m-2 0h-3m-2 0h-3m-2 0h-2.98m-2 0h-3m-2 0h-3m-2 0h-3m-1.98 0h-3m-2 0h-3m-2 0h-3m-2 0H883m-2 0h-3m-2 0h-3m-2 0h-3m-1.98 0h-3m-2 0h-3m-2 0h-3m-2 0h-3m-1.98 0h-3m-2 0h-3m-2 0h-3m-2 0h-2.98m-2 0h-3m-2 0h-3m-2 0h-3m-1.98 0h-3m-2 0h-3m-2 0h-3m-2 0h-2.98m-2 0h-3m-2 0h-3m-2 0h-3m-2 0h-2.98m-2 0h-3m-2 0h-3m-2 0h-3m-1.98 0h-3m-2 0h-3m-2 0h-3m-2 0h-2.98m-2 0h-3m-2 0h-3m-2 0h-3m-1.98 0h-3m-2 0h-3m-2 0h-3m-2 0h-2.98m-2 0h-3m-2 0h-3m-2 0h-3m-2 0h-2.98m-2 0h-3m-2 0h-3m-2 0h-3m-1.98 0h-3m-2 0h-3m-2 0h-3m-2 0h-2.98m-2 0h-3m-2 0h-3m-2 0h-3m-2 0h-2.98m-2 0h-3m-2 0h-3m-2 0h-3m-1.98 0h-3m-2 0h-3m-2 0h-3m-2 0h-2.98m-2 0h-3m-2 0h-3m-2 0h-3m-1.98 0h-3m-2 0h-3m-2 0h-3m-2 0h-2.98m-2 0h-3m-2 0h-3m-2 0h-3m-2 0h-2.98m-2 0h-3m-2 0h-3m-2 0h-3m-1.98 0h-3m-2 0h-3m-2 0h-3m-2 0h-2.98m-2 0h-3m-2 0h-3m-2 0h-3m-1.98 0h-3m-2 0h-3m-2 0h-3m-2 0h-3m-1.98 0h-3m-2 0h-3m-2 0h-3m-2 0h-2.98m-2 0h-3m-2 0h-3m-2 0h-3m-1.98 0h-3m-2 0h-3m-2 0h-3m-2 0h-2.98m-2 0h-3m-2 0h-3m-2 0h-3m-2 0h-2.98m-2 0h-3m-2 0h-3m-2 0h-2.98m-2 0h-3m-2 0h-3m-2 0h-3m-2 0h-2.98m-2 0h-3m-2 0h-3m-2 0h-3m-1.98 0h-3m-2 0h-3m-2 0h-3m-2 0h-2.98m-2 0h-3m-2 0h-3m-2 0h-3m-2 0h-2.98m-2 0h-3m-2 0h-3m-2 0h-3m-1.98 0h-3m-2 0h-3m-2 0h-3m-2 0h-2.98m-2 0h-3m-2 0h-3m-2 0h-3m-1.98 0h-3m-2 0h-3m-2 0h-3m-2 0h-3m-1.98 0h-3m-2 0h-3m-2 0h-3m-2 0h-2.98m-2 0h-3m-2 0h-3m-2 0h-3m-1.98 0h-3m-2 0h-3m-2 0h-3m-2 0h-2.98m-2 0h-3m-2 0h-3m-2 0h-3m-1.98 0h-3m-2 0h-3m-2 0h-3m-2 0h-3m-1.98 0h-3m-2 0h-3m-2 0h-3m-2 0h-2.98m-2 0h-3m-2 0h-3m-2 0h-3m-1.98 0h-3m-2 0h-3m-2 0h-3m-2 0h-2.98m-2 0h-3m-2 0h-3m-2 0h-3m-2 0H68.9m-2 0h-3m-2 0h-3m-2 0h-3m-1.98 0h-3m-2 0h-3m-2 0h-3m-2 0h-2.98m-2 0h-3m-2 0h-3m-2 0h-3m-2 0h-2.98m-2 0h-3m-2 0h-3m-2 0h-2.98m-2 0h-3m-2 0h-3m-2 0h-3m-2 0H-21m-2 0h-3m-2 0h-3m-2 0h-3m-1.98 0h-3m-2 0h-3m-2 0h-3m-2 0h-2.98m-2 0h-3m-2 0h-3m-2 0h-3m-2 0h-2.98m-2 0h-3m-2 0h-3m-2 0h-3m-1.98 0h-3m-2 0h-3m-2 0h-3m-2 0h-2.98m-2 0h-3m-2 0h-3m-2 0h-3m-1.98 0h-3m-2 0h-3m-2 0h-3m-2 0h-2.98m-2 0h-3m-2 0h-3m-2 0h-3m-2 0h-2.98m-2 0h-3m-2 0h-3m-2 0h-3m-1.98 0h-3m-2 0h-3m-2 0h-3m-2 0h-2.98m-2 0h-3m-2 0h-3m-2 0h-3m-2 0h-2.98m-2 0h-3m-2 0h-3m-2 0h-3m-1.98 0h-3m-2 0h-3m-2 0h-3m-2 0h-2.98m-2 0h-3m-2 0h-3m-2 0h-3m-2 0h-2.98m-2 0h-3m-2 0h-3m-2 0h-3m-1.98 0h-3m-2 0h-3m-2 0h-3m-2 0h-2.98m-2 0h-3m-2 0h-3m-2 0h-3m-1.98 0h-3m-2 0h-3m-2 0h-3m-2 0h-2.98m-2 0h-3m-2 0h-3m-2 0h-3m-1.98 0h-3m-2 0h-3m-2 0h-3m-2 0h-3m-1.98 0h-3m-2 0h-3m-2 0h-3m-2 0h-2.98m-2 0h-3m-2 0h-3m-2 0h-3m-1.98 0h-3m-2 0h-3m-2 0h-3m-2 0h-3m-1.98 0h-3m-2 0h-3m-2 0h-3m-2 0h-2.98m-2 0h-3m-2 0h-3m-2 0h-3m-1.98 0h-3m-2 0h-3m-2 0h-3m-2 0h-2.98m-2 0h-1.5l-.94-.07-.46-.1m-1.73-.73l-.4-.25-.7-.6-.62-.72-.25-.4m-.72-1.73l-.1-.46-.08-.94v-1.5m0-2v-3m0-2v-3m0-2v-3.02m0-2v-3m0-2v-3m0-2v-3m0-2v-3.02m0-2v-3m0-2v-3m0-2v-3m0-2v-3m0-2.02v-3m0-2v-3m0-2v-3m0-2v-3m0-2.02v-3m0-2v-3m0-2v-3m0-2v-3m0-2v-3.02m0-2v-3m0-2v-3m0-2v-3m0-2v-3.02m0-2v-3m0-2v-3m0-2v-3m0-2v-3.02m0-2v-3m0-2v-3m0-2v-3m0-2v-3m0-2.02v-3m0-2v-3m0-2v-3m0-2v-3m0-2v-3.02m0-2v-3m0-2v-3m0-2v-3m0-2v-3.02m0-2v-3m0-2v-3m0-2v-3m0-2v-3.02m0-2v-3m0-2v-3m0-2v-3m0-2v-3m0-2.02v-3m0-2v-3m0-2v-3m0-2v-3m0-2.02v-3m0-2v-3m0-2v-3m0-2v-3m0-2.02v-3m0-2v-3m0-2v-3m0-2v-3m0-2v-3.02m0-2v-3m0-2v-3m0-2v-3m0-2v-3.02m0-2v-3m0-2v-3m0-2v-3m0-2v-3.02m0-2v-3m0-2v-3m0-2v-3m0-2v-3m0-2.02v-3m0-2v-3m0-2v-3m0-2v-3m0-2.02v-3m0-2v-3m0-2v-3m0-2v-3m0-2v-3.02m0-2v-3m0-2v-3m0-2v-3m0-2v-3.02m0-2v-3m0-2v-3m0-2v-3m0-2v-3m0-2.02v-3m0-2v-3m0-2v-3m0-2v-3m0-2.02v-3m0-2v-3m0-2v-3m0-2v-3m0-2V1212m0-2v-3m0-2v-3m0-2v-3m0-2V1192m0-2v-3m0-2v-3m0-2v-3m0-2v-3.02m0-2v-3m0-2v-3m0-2v-3m0-2v-3.02m0-2v-3m0-2v-3m0-2v-3m0-2v-3m0-2.02v-3m0-2v-3m0-2v-3m0-2v-3m0-2.02v-3m0-2v-3m0-2v-3m0-2v-3m0-2v-3.02m0-2v-3m0-2v-3m0-2v-3m0-2v-3.02m0-2v-3m0-2v-3m0-2v-3m0-2v-3.02m0-2v-3m0-2v-3m0-2v-3m0-2v-3m0-2.02v-3m0-2v-3m0-2v-3m0-2v-3m0-2v-3.02m0-2v-3m0-2v-3m0-2v-3m0-2v-3.02m0-2v-3m0-2v-3m0-2v-3m0-2v-3.02m0-2v-3m0-2v-3m0-2v-3m0-2v-3m0-2.02v-3m0-2v-3m0-2v-3m0-2v-3m0-2.02v-3m0-2v-3m0-2v-3m0-2v-3m0-2v-3.02m0-2v-3m0-2v-3m0-2v-3m0-2v-3.02m0-2v-3m0-2v-3m0-2v-3m0-2v-3.02m0-2v-3m0-2v-3m0-2v-3m0-2v-3.02m0-2v-3m0-2v-3m0-2v-3m0-2v-3m0-2.02v-3m0-2v-3m0-2v-3m0-2v-3m0-2.02v-3m0-2v-3m0-2v-3m0-2v-3m0-2v-3.02m0-2v-3m0-2v-3m0-2v-3m0-2v-3.02m0-2v-3m0-2v-3m0-2v-3m0-2v-3.02m0-2v-3m0-2v-3m0-2v-3m0-2v-3m0-2.02v-3m0-2v-3m0-2v-3m0-2v-3m0-2.02v-3m0-2v-3m0-2v-3m0-2v-3m0-2v-3.02m0-2v-3m0-2v-3m0-2v-3m0-2v-3.02m0-2v-3m0-2v-3m0-2v-3m0-2v-3.02m0-2v-3m0-2v-3m0-2v-3m0-2v-3m0-2.02v-3m0-2v-3m0-2v-3m0-2v-3m0-2.02v-3m0-2v-3m0-2v-3m0-2v-3m0-2v-3.02m0-2v-3m0-2v-3m0-2v-3m0-2v-3.02m0-2v-3m0-2v-3m0-2v-3m0-2v-3.02m0-2v-3m0-2v-3m0-2v-3m0-2v-3m0-2.02v-3m0-2v-3m0-2v-3m0-2v-3m0-2.02v-3m0-2v-3m0-2v-3m0-2v-3m0-2v-3.02m0-2v-3m0-2v-3m0-2v-3m0-2v-3.02m0-2v-3m0-2v-3m0-2v-3m0-2v-3.02m0-2v-3m0-2v-3m0-2v-3m0-2v-3m0-2.02v-3m0-2v-3m0-2v-3m0-2v-3m0-2.02v-3m0-2v-3m0-2v-3m0-2v-3m0-2.02v-3m0-2v-3m0-2v-3m0-2v-3m0-2v-3.02m0-2v-3m0-2v-3m0-2v-3m0-2v-3.02m0-2v-3m0-2v-3m0-2v-3m0-2v-3.02m0-2v-3m0-2v-3m0-2v-3m0-2v-3m0-2.02v-3m0-2v-3m0-2v-3m0-2v-3m0-2.02v-3m0-2v-3m0-2v-3m0-2v-3m0-2v-3.02m0-2v-3m0-2v-3m0-2v-3m0-2v-3.02m0-2v-3m0-2v-3m0-2v-3m0-2v-3.02m0-2v-3m0-2v-3m0-2v-3m0-2v-3m0-2.02v-3m0-2v-3m0-2v-3m0-2v-3m0-2.02v-3m0-2v-3m0-2v-3m0-2v-1.5l.07-.95.1-.46" stroke="#147eba" fill="none"/><path d="M-500 121.5h56v56h-56v-56z" stroke="#fff" stroke-opacity="0" fill="#147eba"/><path d="M-456.16 150.85l-5.96-7.36 5.96-7.42h-26.17V134c.98-.3 1.62-1.15 1.62-2.18-.1-1.16-1.03-2.03-2.17-2.15-1.3-.08-2.44.87-2.53 2.15 0 1.03.63 1.87 1.58 2.2v33.88h-4.02v1.6h9.44v-1.6h-3.93v-17.05zm-26.96-19.75c.4-.04.76.32.76.72 0 .44-.32.75-.73.75-.4.04-.75-.3-.75-.7v-.05c0-.4.32-.72.73-.72zm23.6 6.6l-4.66 5.8 4.66 5.72h-22.8v-11.5z" stroke="#fff" stroke-opacity="0" fill="#fff"/><use xlink:href="#a" transform="matrix(1,0,0,1,-429,141.4890896669035) translate(0 14.4)"/><path d="M800 306a6 6 0 0 1 6-6h308a6 6 0 0 1 6 6v328a6 6 0 0 1-6 6H806a6 6 0 0 1-6-6z" stroke="#d86613" fill="#fff" fill-opacity="0"/><path d="M800 300h56v56h-56v-56z" stroke="#fff" stroke-opacity="0" fill="#d86613"/><path d="M839.98 335.6V334c1.93 0 6.4-.6 6.4-5.94 0-3.18-1.87-5.2-5.6-5.96-.36-.08-.6-.36-.64-.72-.16-3.2-2-4.24-3.48-4.24-1.04 0-1.96.47-2.6 1.3-.16.27-.44.37-.76.32-.28-.05-.52-.23-.64-.5-.52-1.58-1.32-2.8-2.5-3.97-1.67-1.78-3.75-2.68-6.2-2.73-4.92-.13-9.04 3.78-9.16 8.7 0 .4.04.7.08 1.1.04.37-.2.76-.6.86-2.8.5-4.8 2.93-4.7 5.78v.45c.33 3.23 3.06 5.65 6.3 5.55h.92v1.6h-.92c-4.1.1-7.53-2.97-7.9-7.05V328c-.15-3.36 1.97-6.3 5.26-7.2v-.6c.12-5.8 4.96-10.43 10.77-10.3 2.9.08 5.3 1.13 7.3 3.16 1.08 1.05 1.8 2.1 2.44 3.44.88-.7 1.84-1.03 2.96-1.03 2.24 0 4.6 1.6 5.05 5.14 4.04 1 6.28 3.63 6.28 7.4-.04 5.6-4.16 7.6-8.05 7.6z" stroke="#fff" stroke-opacity="0" fill="#fff"/><path d="M833.6 327.46c-2.1.03-3.84 1.46-4.25 3.55-.45 2.35 1.1 4.63 3.44 5.1v3.5H828v-13.65c1.8-.34 3.14-1.66 3.48-3.5.43-2.33-1.12-4.6-3.48-5.04-2.36-.45-4.64 1.12-5.07 3.46-.45 2.38 1.1 4.66 3.46 5.1v9.6h-4.8v-1.6c1.8-.36 3.14-1.67 3.48-3.5.43-2.34-1.12-4.63-3.48-5.05-2.36-.45-4.64 1.12-5.1 3.46-.42 2.37 1.13 4.66 3.5 5.1v2.33c0 .42.36.8.8.8h5.6v8.8h1.6v-4.8h5.6c.43 0 .8-.38.8-.8v-4.2c2.06-.4 3.5-2.15 3.52-4.24.02-2.4-1.9-4.37-4.3-4.4zm-15.54 2.35c0-1.54 1.22-2.77 2.75-2.77 1.5 0 2.75 1.23 2.75 2.78 0 1.52-1.24 2.75-2.74 2.75-1.52 0-2.74-1.23-2.74-2.75zm6.4-8.1c0-1.55 1.22-2.78 2.75-2.78 1.5 0 2.75 1.23 2.75 2.77 0 1.5-1.24 2.73-2.74 2.73-1.52 0-2.74-1.22-2.74-2.74zm9.15 12.88c-1.52 0-2.74-1.23-2.74-2.75 0-1.54 1.22-2.77 2.75-2.77s2.75 1.23 2.75 2.77c0 1.52-1.22 2.75-2.74 2.75z" stroke="#fff" stroke-opacity="0" fill="#fff"/><use xlink:href="#b" transform="matrix(1,0,0,1,871,320) translate(0 14.4)"/><use xlink:href="#c" transform="matrix(1,0,0,1,871,320) translate(57.900000000000006 14.4)"/><use xlink:href="#d" transform="matrix(1,0,0,1,871,320) translate(141.85000000000002 14.4)"/><path d="M340 446a6 6 0 0 1 6-6h268a6 6 0 0 1 6 6v528a6 6 0 0 1-6 6H346a6 6 0 0 1-6-6z" fill="#fff" fill-opacity="0"/><path d="M364.27 440h12.2m12.17 0h12.18m12.18 0h12.18m12.18 0h12.2m12.17 0h12.18m12.2 0h12.17m12.2 0h12.17m12.18 0H547m12.18 0h12.18m12.18 0h12.2m12.17 0h6.1l.94.07.9.22.88.35.8.5.72.6.6.72.5.8.37.88.23.9.07.95v6m0 12v12m0 12v12m0 12v12m0 12v12m0 12v12m0 12v12m0 12v12m0 12v12m0 12v12m0 12v12m0 12v12m0 12v12m0 12v12m0 12v12m0 12v12m0 12v12m0 12v12m0 12v12m0 12v12m0 12v12m0 12v12m0 12v6l-.07.94-.22.9-.35.88-.5.8-.6.72-.72.6-.8.5-.88.37-.9.23-.95.07h-6.1m-12.17 0h-12.2m-12.17 0h-12.18M547 980h-12.18m-12.18 0h-12.2m-12.17 0H486.1m-12.2 0h-12.17m-12.2 0h-12.17m-12.18 0H413m-12.18 0h-12.18m-12.2 0h-12.17m-12.18 0H346l-.94-.07-.9-.22-.88-.35-.8-.5-.72-.6-.6-.72-.5-.8-.37-.88-.23-.9-.07-.95v-6m0-12v-12m0-12v-12m0-12v-12m0-12v-12m0-12v-12m0-12v-12m0-12v-12m0-12v-12m0-12v-12m0-12v-12m0-12v-12m0-12v-12m0-12v-12m0-12v-12m0-12v-12m0-12v-12m0-12v-12m0-12v-12m0-12v-12m0-12v-12m0-12v-12m0-12v-6l.07-.94.22-.9.35-.88.5-.8.6-.72.72-.6.8-.5.88-.37.9-.23.95-.07h6.1" stroke="#5a6c86" stroke-width="3" fill="none"/><use xlink:href="#e" transform="matrix(1,0,0,1,340,460) translate(83.05 14.4)"/><use xlink:href="#f" transform="matrix(1,0,0,1,340,460) translate(128.05 14.4)"/><path d="M240 806a6 6 0 0 1 6-6h408a6 6 0 0 1 6 6v308a6 6 0 0 1-6 6H246a6 6 0 0 1-6-6z" fill="#248814" fill-opacity=".13"/><path d="M240 800h56v56h-56v-56z" stroke="#fff" stroke-opacity="0" fill="#248814"/><path d="M283.38 822.18c-.15-.17-.34-.25-.56-.25h-5.15v-5.58c-.03-2.54-.97-4.7-2.84-6.4-1.9-1.84-4.15-2.75-6.77-2.75-2.65 0-4.9.83-6.8 2.62-1.9 1.7-2.87 3.87-2.9 6.4v5.66h-5.15c-.24 0-.43.1-.58.25-.16.17-.22.34-.22.6V848c0 .43.34.8.8.8h29.6c.46 0 .8-.37.8-.8v-25.28c0-.2-.06-.38-.22-.54zm-23.46-5.9c.03-2.13.8-3.88 2.37-5.3 1.6-1.5 3.52-2.2 5.73-2.2 2.22 0 4.12.75 5.7 2.25 1.54 1.4 2.32 3.2 2.32 5.32v5.58H259.9zm22.1 30.94h-28.03v-23.7h28z" stroke="#fff" stroke-opacity="0" fill="#fff"/><path d="M267.2 837.3v6.25h1.6v-6.23c2.13-.4 3.62-2.2 3.63-4.35 0-2.43-1.97-4.4-4.4-4.43-2.2-.03-4.06 1.5-4.44 3.68-.42 2.4 1.2 4.68 3.6 5.1zm.82-7.15c.78 0 1.44.27 2 .83.54.55.82 1.2.8 2 .03 1.54-1.2 2.8-2.74 2.8h-.06c-1.56.13-2.92-1.04-3.04-2.6-.12-1.56 1.05-2.93 2.6-3.03.16-.02.3-.02.44 0z" stroke="#fff" stroke-opacity="0" fill="#fff"/><use xlink:href="#g" transform="matrix(1,0,0,1,311,820) translate(0 17.77777777777778)"/><use xlink:href="#h" transform="matrix(1,0,0,1,311,820) translate(66.5432098765432 17.77777777777778)"/><path d="M780 226a6 6 0 0 1 6-6h348a6 6 0 0 1 6 6v488a6 6 0 0 1-6 6H786a6 6 0 0 1-6-6z" fill="#147eba" fill-opacity=".13"/><path d="M780 220h56v56h-56v-56z" stroke="#fff" stroke-opacity="0" fill="#147eba"/><path d="M823.38 242.18c-.15-.17-.34-.25-.56-.25h-5.15v-5.58c-.03-2.54-.96-4.7-2.84-6.4-1.9-1.83-4.15-2.75-6.77-2.75-2.65 0-4.9.83-6.8 2.62-1.9 1.7-2.87 3.87-2.9 6.4v5.66h-5.15c-.24 0-.43.1-.58.25-.16.17-.22.34-.22.6V268c0 .43.34.8.8.8h29.6c.46 0 .8-.37.8-.8v-25.28c0-.2-.06-.38-.22-.54zm-23.46-5.9c.03-2.13.8-3.88 2.37-5.3 1.6-1.5 3.52-2.2 5.73-2.2 2.22 0 4.12.75 5.7 2.25 1.54 1.4 2.32 3.2 2.32 5.32v5.58H799.9zm22.1 30.94h-28.03v-23.7h28z" stroke="#fff" stroke-opacity="0" fill="#fff"/><path d="M807.2 257.3v6.25h1.6v-6.23c2.13-.4 3.62-2.2 3.63-4.35 0-2.43-1.97-4.4-4.4-4.43-2.2-.03-4.06 1.5-4.44 3.68-.42 2.4 1.2 4.68 3.6 5.1zm.82-7.15c.78 0 1.44.27 2 .82.54.56.82 1.22.8 2 .03 1.55-1.2 2.8-2.74 2.82h-.06c-1.56.1-2.92-1.06-3.04-2.62-.12-1.56 1.05-2.93 2.6-3.03.16-.02.28-.02.44 0z" stroke="#fff" stroke-opacity="0" fill="#fff"/><use xlink:href="#i" transform="matrix(1,0,0,1,851,240) translate(0 14.4)"/><use xlink:href="#j" transform="matrix(1,0,0,1,851,240) translate(60.9 14.4)"/><path d="M250 1246a6 6 0 0 1 6-6h358a6 6 0 0 1 6 6v268a6 6 0 0 1-6 6H256a6 6 0 0 1-6-6z" fill="#248814" fill-opacity=".13"/><path d="M250 1240h56v56h-56v-56z" stroke="#fff" stroke-opacity="0" fill="#248814"/><path d="M293.38 1262.18c-.15-.17-.34-.25-.56-.25h-5.15v-5.58c-.03-2.54-.97-4.7-2.84-6.4-1.9-1.84-4.15-2.75-6.77-2.75-2.65 0-4.9.83-6.8 2.62-1.9 1.7-2.87 3.87-2.9 6.4v5.66h-5.15c-.24 0-.43.1-.58.25-.16.17-.22.34-.22.6V1288c0 .43.34.8.8.8h29.6c.46 0 .8-.37.8-.8v-25.28c0-.2-.06-.38-.22-.54zm-23.46-5.9c.03-2.13.8-3.88 2.37-5.3 1.6-1.5 3.52-2.2 5.73-2.2 2.22 0 4.12.75 5.7 2.25 1.54 1.4 2.32 3.2 2.32 5.32v5.58H269.9zm22.1 30.94h-28.03v-23.7h28z" stroke="#fff" stroke-opacity="0" fill="#fff"/><path d="M277.2 1277.3v6.25h1.6v-6.23c2.13-.4 3.62-2.2 3.63-4.35 0-2.43-1.97-4.4-4.4-4.43-2.2-.03-4.06 1.5-4.44 3.68-.42 2.4 1.2 4.68 3.6 5.1zm.82-7.15c.78 0 1.44.27 2 .82.54.56.82 1.22.8 2 .03 1.55-1.2 2.8-2.74 2.82h-.06c-1.56.1-2.92-1.06-3.04-2.62-.12-1.56 1.05-2.93 2.6-3.03.16-.02.3-.02.44 0z" stroke="#fff" stroke-opacity="0" fill="#fff"/><use xlink:href="#k" transform="matrix(1,0,0,1,321,1260) translate(0 14.4)"/><use xlink:href="#l" transform="matrix(1,0,0,1,321,1260) translate(53.900000000000006 14.4)"/><path d="M730 786a6 6 0 0 1 6-6h378a6 6 0 0 1 6 6v328a6 6 0 0 1-6 6H736a6 6 0 0 1-6-6z" fill="#147eba" fill-opacity=".13"/><path d="M730 780h56v56h-56v-56z" stroke="#fff" stroke-opacity="0" fill="#147eba"/><path d="M773.38 802.18c-.15-.17-.34-.25-.56-.25h-5.15v-5.58c-.03-2.54-.96-4.7-2.84-6.4-1.9-1.84-4.15-2.75-6.77-2.75-2.65 0-4.9.83-6.8 2.62-1.9 1.7-2.87 3.87-2.9 6.4v5.66h-5.15c-.24 0-.43.1-.58.25-.16.17-.22.34-.22.6V828c0 .43.34.8.8.8h29.6c.46 0 .8-.37.8-.8v-25.28c0-.2-.06-.38-.22-.54zm-23.46-5.9c.03-2.13.8-3.88 2.37-5.3 1.6-1.5 3.52-2.2 5.73-2.2 2.22 0 4.12.75 5.7 2.25 1.54 1.4 2.32 3.2 2.32 5.32v5.58H749.9zm22.1 30.94h-28.03v-23.7h28z" stroke="#fff" stroke-opacity="0" fill="#fff"/><path d="M757.2 817.3v6.25h1.6v-6.23c2.13-.4 3.62-2.2 3.63-4.35 0-2.43-1.97-4.4-4.4-4.43-2.2-.03-4.06 1.5-4.44 3.68-.42 2.4 1.2 4.68 3.6 5.1zm.82-7.15c.78 0 1.44.27 2 .83.54.55.82 1.2.8 2 .03 1.54-1.2 2.8-2.74 2.8h-.06c-1.56.13-2.92-1.04-3.04-2.6-.12-1.56 1.05-2.93 2.6-3.03.16-.02.28-.02.44 0z" stroke="#fff" stroke-opacity="0" fill="#fff"/><use xlink:href="#i" transform="matrix(1,0,0,1,801,800) translate(0 14.4)"/><use xlink:href="#j" transform="matrix(1,0,0,1,801,800) translate(60.9 14.4)"/><path d="M720 1226a6 6 0 0 1 6-6h388a6 6 0 0 1 6 6v328a6 6 0 0 1-6 6H726a6 6 0 0 1-6-6z" fill="#147eba" fill-opacity=".13"/><path d="M720 1220h56v56h-56v-56z" stroke="#fff" stroke-opacity="0" fill="#147eba"/><path d="M763.38 1242.18c-.15-.17-.34-.25-.56-.25h-5.15v-5.58c-.03-2.54-.96-4.7-2.84-6.4-1.9-1.84-4.15-2.75-6.77-2.75-2.65 0-4.9.83-6.8 2.62-1.9 1.7-2.87 3.87-2.9 6.4v5.66h-5.15c-.24 0-.43.1-.58.25-.16.17-.22.34-.22.6V1268c0 .43.34.8.8.8h29.6c.46 0 .8-.37.8-.8v-25.28c0-.2-.06-.38-.22-.54zm-23.46-5.9c.03-2.13.8-3.88 2.37-5.3 1.6-1.5 3.52-2.2 5.73-2.2 2.22 0 4.12.75 5.7 2.25 1.54 1.4 2.32 3.2 2.32 5.32v5.58H739.9zm22.1 30.94h-28.03v-23.7h28z" stroke="#fff" stroke-opacity="0" fill="#fff"/><path d="M747.2 1257.3v6.25h1.6v-6.23c2.13-.4 3.62-2.2 3.63-4.35 0-2.43-1.97-4.4-4.4-4.43-2.2-.03-4.06 1.5-4.44 3.68-.42 2.4 1.2 4.68 3.6 5.1zm.82-7.15c.78 0 1.44.27 2 .82.54.56.82 1.22.8 2 .03 1.55-1.2 2.8-2.74 2.82h-.06c-1.56.1-2.92-1.06-3.04-2.62-.12-1.56 1.05-2.93 2.6-3.03.16-.02.28-.02.44 0z" stroke="#fff" stroke-opacity="0" fill="#fff"/><use xlink:href="#i" transform="matrix(1,0,0,1,791,1240) translate(0 14.4)"/><use xlink:href="#j" transform="matrix(1,0,0,1,791,1240) translate(60.9 14.4)"/><path d="M820 1006a6 6 0 0 1 6-6h248a6 6 0 0 1 6 6v388a6 6 0 0 1-6 6H826a6 6 0 0 1-6-6z" fill="#fff" fill-opacity="0"/><path d="M844.6 1000H857m12.4 0h12.4m12.4 0h12.4m12.4 0h12.4m12.4 0h12.4m12.4 0H981m12.4 0h12.4m12.4 0h12.4m12.4 0h12.4m12.4 0h6.2l.94.07.9.22.88.35.8.5.72.6.6.72.5.8.37.88.23.9.07.95v6.06m0 12.13v12.1m0 12.14v12.12m0 12.13v12.1m0 12.14v12.12m0 12.13v12.1m0 12.14v12.12m0 12.13v12.1m0 12.14v12.12m0 12.13v12.1m0 12.14v12.12m0 12.13v12.1m0 12.14v12.12m0 12.13v12.1m0 12.14v12.12m0 12.13v12.1m0 12.14v6.06l-.07.94-.22.9-.35.88-.5.8-.6.72-.72.6-.8.5-.88.37-.9.23-.95.07h-6.2m-12.4 0H1043m-12.4 0h-12.4m-12.4 0h-12.4m-12.4 0h-12.4m-12.4 0h-12.4m-12.4 0H919m-12.4 0h-12.4m-12.4 0h-12.4m-12.4 0h-12.4m-12.4 0H826l-.94-.07-.9-.22-.88-.35-.8-.5-.72-.6-.6-.72-.5-.8-.37-.88-.23-.9-.07-.95v-6.06m0-12.13v-12.1m0-12.14v-12.12m0-12.13v-12.1m0-12.14v-12.12m0-12.13v-12.1m0-12.14v-12.12m0-12.13v-12.1m0-12.14v-12.12m0-12.13v-12.1m0-12.14v-12.12m0-12.13v-12.1m0-12.14v-12.12m0-12.13v-12.1m0-12.14v-12.12m0-12.13v-12.1m0-12.14V1006l.07-.94.22-.9.35-.88.5-.8.6-.72.72-.6.8-.5.88-.37.9-.23.95-.07h6.2" stroke="#5a6c86" stroke-width="3" fill="none"/><use xlink:href="#m" transform="matrix(1,0,0,1,820,1020) translate(62.099999999999994 14.4)"/><use xlink:href="#n" transform="matrix(1,0,0,1,820,1020) translate(105 14.4)"/><path d="M-534.75 556.8h8.83" stroke="#666" fill="none"/><path d="M-534.73 557.3h-.52v-1h.52z" stroke="#666" stroke-width=".05" fill="#666"/><path d="M-512.65 558.13l-14.66 3.18.92-9.2z" stroke="#666" fill="#666"/><path d="M180 260h980v420H180z" fill="#fff" fill-opacity="0"/><path d="M192.05 260h8.03m8.03 0h8.05m8.03 0h8.03m8.05 0h8.03m8.03 0h8.04m8.04 0h8.03m8.04 0h8.04m8.03 0h8.04m8.03 0h8.04m8.04 0h8.03m8.03 0h8.04m8.03 0h8.03m8.04 0h8.03m8.03 0h8.03m8.04 0H425m8.03 0h8.04m8.03 0h8.03m8.03 0h8.04m8.03 0h8.03m8.04 0h8.03m8.03 0h8.03m8.03 0h8.03m8.03 0h8.02m8.04 0h8.03m8.02 0h8.04m8.03 0h8.02m8.03 0h8.04m8.02 0h8.03m8.03 0h8.04m8.03 0h8.03m8.04 0h8.03m8.03 0h8.03m8.05 0h8.03m8.03 0h8.05m8.03 0h8.03m8.04 0h8.04m8.03 0h8.04m8.03 0h8.04m8.04 0h8.03m8.04 0h8.04m8.03 0h8.04m8.04 0h8.03m8.03 0h8.04m8.03 0h8.03m8.03 0h8.04m8.03 0h8.03m8.04 0h8.03m8.03 0h8.03m8.04 0h8.03m8.03 0h8.03m8.03 0h8.03m8.03 0h8.03m8.03 0h8.03m8.03 0h8.03m8.03 0h8.02m8.04 0h8.03m8.02 0h8.03m8.04 0h8.02m8.03 0h8.04m8.02 0h8.03m8.03 0h4.02v4.04m0 8.07v8.1m0 8.07v8.08m0 8.07v8.08m0 8.08v8.07m0 8.08v8.08m0 8.08v8.08m0 8.08v8.07m0 8.1v8.07m0 8.08v8.07m0 8.08v8.08m0 8.07v8.08m0 8.08v8.08m0 8.08v8.08m0 8.07v8.1m0 8.07v8.08m0 8.07v8.08m0 8.08v8.07m0 8.08v8.08m0 8.1v8.06m0 8.08v8.08m0 8.07v8.07m0 8.08v8.07m0 8.08v8.08m0 8.07v8.08m0 8.08v8.1m0 8.06V680h-4.02m-8.03 0h-8.03m-8.04 0h-8.03m-8.03 0h-8.03m-8.05 0h-8.03m-8.03 0h-8.04m-8.04 0h-8.03m-8.04 0h-8.03m-8.04 0h-8.04m-8.03 0h-8.04m-8.04 0h-8.03m-8.04 0h-8.04m-8.03 0h-8.03m-8.04 0h-8.03m-8.03 0h-8.03m-8.04 0H915m-8.03 0h-8.04m-8.03 0h-8.03m-8.03 0h-8.04m-8.03 0h-8.03m-8.03 0h-8.03m-8.03 0h-8.03m-8.03 0h-8.03m-8.03 0h-8.02m-8.04 0h-8.03m-8.02 0h-8.04m-8.03 0h-8.02m-8.03 0h-8.04m-8.02 0h-8.03m-8.03 0h-8.04m-8.03 0h-8.03m-8.04 0h-8.03m-8.03 0h-8.03m-8.05 0h-8.03m-8.03 0h-8.05m-8.03 0h-8.03m-8.04 0h-8.04m-8.03 0h-8.04m-8.03 0h-8.04m-8.04 0h-8.03m-8.04 0h-8.04m-8.03 0h-8.03m-8.04 0h-8.03m-8.03 0h-8.04m-8.03 0h-8.03m-8.03 0h-8.04m-8.03 0h-8.03m-8.04 0h-8.03m-8.03 0h-8.03m-8.04 0h-8.03m-8.03 0h-8.04m-8.03 0h-8.03m-8.03 0h-8.03m-8.03 0h-8.03m-8.02 0h-8.04m-8.03 0h-8.02m-8.04 0h-8.03m-8.02 0h-8.03m-8.04 0h-8.02m-8.03 0h-8.03m-8.04 0h-8.03m-8.03 0H180v-4.04m0-8.08v-8.07m0-8.07v-8.08m0-8.07v-8.08m0-8.08v-8.07m0-8.08v-8.08m0-8.1v-8.06m0-8.08v-8.08m0-8.07v-8.07m0-8.08v-8.07m0-8.08v-8.08m0-8.07v-8.08m0-8.08v-8.08m0-8.08v-8.08m0-8.07v-8.1m0-8.07v-8.08m0-8.07v-8.08m0-8.08v-8.07m0-8.08v-8.08m0-8.08v-8.08m0-8.08v-8.07m0-8.1v-8.07m0-8.08v-8.07m0-8.08v-8.08m0-8.07v-8.08m0-8.08v-8.08m0-8.08V260h4.02" stroke="#147eba" stroke-width="2" fill="none"/><path d="M180.1 680V260h29.77v420z" stroke="#000" stroke-opacity="0" stroke-width="2" fill="#fff" fill-opacity="0"/><use xlink:href="#o" transform="matrix(6.123233995736766e-17,-1,1,6.123233995736766e-17,185.0896253851838,675.0000000000001) translate(125.98765432098763 19.662222222222223)"/><use xlink:href="#p" transform="matrix(6.123233995736766e-17,-1,1,6.123233995736766e-17,185.0896253851838,675.0000000000001) translate(223.962962962963 19.662222222222223)"/><use xlink:href="#q" transform="matrix(6.123233995736766e-17,-1,1,6.123233995736766e-17,185.0896253851838,675.0000000000001) translate(271.22222222222223 19.662222222222223)"/><path d="M-644.28 485.35h9.9a12 12 0 0 1 12 12v53.44a6 6 0 0 0 6 6" stroke="#666" fill="none"/><path d="M-644.27 485.73l-1.18-.88h1.18z" stroke="#666" stroke-width=".05" fill="#666"/><path d="M-601.62 556.8l-14.26 4.63v-9.27z" stroke="#666" fill="#666"/><path d="M-420 200h1640v1440H-420z" stroke="#248814" stroke-width="2" fill-opacity="0"/><path d="M-420 200h56v56h-56v-56z" stroke="#fff" stroke-opacity="0" fill="#248814"/><path d="M-388.24 228.3h-1.18v-1.1c-.12-1.73-1.47-3.07-3.2-3.2-1.9-.13-3.54 1.3-3.67 3.2v1.07h-1.17c-.44 0-.8.36-.8.8v6.13c0 .44.35.8.8.8h9.23c.44 0 .8-.36.8-.8v-6.1c0-.44-.36-.8-.8-.8zm-6.4-1.06c.1-1.03 1-1.77 2-1.67.9.08 1.58.77 1.67 1.67v1.06h-3.72zm5.65 7.08h-7.67v-4.42h7.63z" stroke="#fff" stroke-opacity="0" fill="#fff"/><path d="M-377.73 225.75c-.08-2.45-1.58-4.48-3.87-5.3-1.58-.47-3.16-.14-4.4.9-.68-1.45-1.47-2.6-2.6-3.76-3.24-3.36-7.94-4.3-12.18-2.4-4.04 1.9-6.4 5.63-6.54 10.05v.7c-3.4.98-5.66 4.08-5.5 7.65v.63c.38 4.28 3.92 7.52 8.2 7.47h26s7.42-.63 7.42-8.1c.04-3.9-2.66-7.2-6.53-7.85zm-.96 14.38h-25.9c-3.47.06-6.3-2.52-6.6-5.96v-.52c-.15-3.05 1.93-5.7 4.92-6.3.38-.12.63-.48.6-.9-.06-.4-.06-.73 0-1.14.07-3.78 2.1-6.94 5.52-8.6 1.25-.56 2.4-.8 3.83-.84 2.62.08 4.87 1.04 6.7 2.94 1.25 1.3 2.04 2.6 2.62 4.3.03.15.1.28.24.37.37.27.87.2 1.12-.17.83-1.18 2.25-1.67 3.62-1.3 1.8.72 2.87 2.4 2.83 4.32-.07.4.22.83.64.9 3.57.36 6.2 3.55 5.82 7.12-.3 3.13-2.7 5.52-5.82 5.85z" stroke="#fff" stroke-opacity="0" fill="#fff"/><use xlink:href="#r" transform="matrix(1,0,0,1,-349,220) translate(0 14.222222222222223)"/><use xlink:href="#s" transform="matrix(1,0,0,1,-349,220) translate(0 33.777777777777786)"/><path d="M-560 53.04h1940V1780H-560z" stroke="#232f3e" stroke-width="2" fill-opacity="0"/><path d="M-560 53.04h56v56h-56v-56z" stroke="#fff" stroke-opacity="0" fill="#232f3e"/><path d="M-541.78 78.9c-.04.5.04.88.17 1.35.1.38.28.7.48 1.07.04.1.08.2.08.33 0 .2-.12.35-.28.45l-.95.62c-.12.1-.25.13-.37.13-.16 0-.33-.07-.45-.2-.2-.22-.36-.44-.52-.7-.17-.26-.3-.54-.46-.87-1.1 1.37-2.62 2.1-4.4 2.06-1.14.06-2.12-.3-2.95-1.08-.78-.8-1.15-1.76-1.1-2.85-.05-1.22.4-2.27 1.35-3.07 1.07-.84 2.3-1.22 3.65-1.15.58 0 1.03.02 1.6.1.58.1 1.1.2 1.73.33v-1.08c.08-.9-.16-1.68-.7-2.38-.74-.56-1.56-.8-2.46-.7-.53 0-1.03.07-1.6.2-.58.14-1.03.3-1.6.52l-.5.2h-.24c-.2 0-.33-.18-.33-.47v-.76c0-.18.04-.33.12-.5.12-.16.24-.26.4-.33.66-.3 1.2-.5 1.9-.66.77-.2 1.47-.3 2.3-.28 1.47-.13 2.78.27 3.9 1.2.94 1.05 1.35 2.28 1.22 3.67zm-6.07 2.3c.57 0 1.06-.1 1.6-.3.57-.2 1.02-.48 1.43-.95.25-.28.42-.57.5-.94.12-.44.16-.83.16-1.28v-.68c-.53-.1-.94-.17-1.44-.2h-1.4c-.8-.08-1.55.12-2.2.58-.54.45-.8 1.04-.75 1.73-.04.6.13 1.15.54 1.6.44.37.97.5 1.55.44zm12 1.6c-.22 0-.42-.04-.6-.16-.15-.17-.23-.36-.32-.6l-3.5-11.5-.1-.62c0-.24.1-.37.36-.37h1.47c.2 0 .37.03.57.14.17.17.25.36.3.58l2.5 9.97 2.38-9.94c0-.23.08-.42.28-.6.17-.1.37-.15.58-.14h1.2c.24 0 .4.03.6.15.17.2.25.37.3.6l2.33 9.95 2.56-10c.04-.22.16-.42.33-.6.15-.1.36-.16.56-.13h1.4c.16 0 .33.12.37.3V70.12s0 .2-.12.36L-526 82c-.05.22-.13.42-.3.6-.2.1-.37.14-.57.13h-1.27c-.25.03-.46-.03-.62-.16-.16-.17-.25-.37-.3-.6l-2.3-9.6-2.28 9.6c-.05.23-.13.43-.3.6-.2.12-.4.18-.6.15zm19.2.37c-.82 0-1.5-.07-2.3-.25-.65-.13-1.14-.3-1.72-.6-.2-.1-.37-.23-.45-.4-.08-.16-.12-.3-.12-.45v-.75c0-.3.12-.46.32-.46h.3l.36.16c.58.23 1.03.4 1.6.5.62.14 1.15.2 1.8.2.8.05 1.5-.1 2.2-.5.48-.3.77-.8.73-1.4.04-.4-.13-.76-.38-1.04-.46-.4-.95-.65-1.52-.8l-2.18-.67c-.95-.25-1.73-.73-2.38-1.5-.5-.64-.74-1.35-.74-2.18 0-.6.12-1.08.4-1.6.3-.5.63-.9 1.08-1.22.5-.38.98-.6 1.6-.78.66-.18 1.2-.26 1.9-.25.32-.03.6-.03.97 0l1 .16.8.23.67.26c.16.1.28.22.45.38.08.15.12.3.12.5v.7c0 .32-.12.47-.37.47-.2-.03-.37-.08-.57-.18-.95-.43-1.8-.62-2.88-.6-.7-.03-1.3.1-1.97.42-.5.3-.74.8-.7 1.35 0 .4.13.76.46 1.05.5.4.98.65 1.6.82l2.1.67c.94.25 1.68.7 2.3 1.45.48.63.7 1.3.7 2.1 0 .62-.14 1.16-.38 1.72-.3.55-.62.95-1.1 1.32-.5.38-1 .65-1.6.83-.75.24-1.4.34-2.15.36zM-513.9 90.53c-5.6 3.8-11.36 5.57-18.15 5.55-8.54.05-15.82-2.73-22.16-8.45-.5-.4 0-1 .48-.67 7.07 4.05 14.02 5.9 22.2 5.9 6.1-.04 11.3-1.1 16.93-3.47.83-.36 1.52.54.7 1.13z" stroke="#fff" stroke-opacity="0" fill="#fff"/><path d="M-511.84 88.24c-.64-.8-4.16-.38-5.75-.2-.46 0-.53-.36-.1-.66 2.8-1.97 7.42-1.4 8-.74.6.67-.14 5.28-2.78 7.5-.4.33-.78.14-.6-.3.54-1.52 1.86-4.83 1.24-5.6z" stroke="#fff" stroke-opacity="0" fill="#fff"/><use xlink:href="#t" transform="matrix(1,0,0,1,-489,73.04086494511853) translate(0 14.222222222222223)"/><use xlink:href="#u" transform="matrix(1,0,0,1,-489,73.04086494511853) translate(45.333333333333336 14.222222222222223)"/><path d="M-477.62 591.7c-18.45 0-33.42-14.96-33.42-33.4 0-18.45 14.97-33.42 33.42-33.42 18.44 0 33.4 14.97 33.4 33.42 0 18.44-14.96 33.4-33.4 33.4zm0-63.94c-16.9 0-30.55 13.63-30.55 30.54 0 16.9 13.64 30.54 30.55 30.54 16.9 0 30.54-13.63 30.54-30.54 0-16.9-13.63-30.54-30.54-30.54z" stroke="#fff" stroke-opacity="0" fill="#693cc5"/><path d="M-461.63 578.38h-5.33c-.8 0-1.43-.64-1.43-1.43v-27.57c-2.88-1.5-5.64-2.17-8.88-2.25-3.55.08-6.5.87-9.65 2.56v27.25c0 .8-.62 1.42-1.4 1.42h-5.28c-.8 0-1.44-.63-1.44-1.42v-31c0-.44.17-.8.5-1.07 5.07-4.18 10.72-6.12 17.27-5.96 6.2-.12 11.53 1.62 16.5 5.3.4.26.56.66.56 1.1v31.63c0 .8-.63 1.42-1.43 1.42zm-3.9-2.85h2.47v-29.5c-4.36-3-8.92-4.35-14.2-4.27-5.62-.16-10.47 1.42-14.93 4.82v28.95h2.45v-26.75c0-.55.28-1.02.77-1.26 3.76-2.13 7.38-3.15 11.7-3.23 3.94.1 7.3.97 10.77 2.83h.13c.52.23.83.7.83 1.3z" stroke="#fff" stroke-opacity="0" fill="#693cc5"/><use xlink:href="#v" transform="matrix(1,0,0,1,-541.0383093168821,600.7123133901592) translate(33.40123456790123 14.222222222222223)"/><use xlink:href="#w" transform="matrix(1,0,0,1,-541.0383093168821,600.7123133901592) translate(28.462962962962962 35.55555555555556)"/><path d="M-600 524.88h64.75v63.83H-600V524.9z" stroke="#fff" stroke-opacity="0" fill="#693cc5"/><path d="M-576.43 561.43c1.14.4 2.16.58 3.38.62.77.06 1.45-.12 2.08-.57.5-.46.74-1.03.7-1.7.08-.7-.15-1.32-.66-1.82-.68-.44-1.4-.62-2.2-.56-1 .02-1.8.07-2.77.18v-1.2l.34-5.26h6.5v1.4h-5.04l-.23 3.58c.6-.1 1.1-.16 1.73-.16 1.14-.08 2.13.26 3 1 .78.74 1.15 1.68 1.1 2.75.03 1.1-.4 2.06-1.27 2.77-.98.77-2.08 1.12-3.34 1.07-1.24 0-2.28-.2-3.4-.7zM-562.33 556.3h.32c1.06-.06 2 .24 2.82.92.74.7 1.1 1.56 1.03 2.55.04 1.1-.4 2.04-1.27 2.74-1 .76-2.1 1.1-3.38 1.03-1.2 0-2.2-.22-3.3-.7v-1.4c1.1.4 2.12.58 3.3.62.78.06 1.46-.14 2.1-.58.5-.45.76-1.04.7-1.7 0-1.43-.9-2.14-2.7-2.14-.6 0-1.13.03-1.73.1v-1.17l3.74-4h-5.2v-1.46h7.24v1.4z" stroke="#fff" stroke-opacity="0" fill="#fff"/><path d="M-567.62 572.97c-.17 0-.3-.04-.45-.13-2.93-1.7-5.7-2.74-9.04-3.4-1.84-.32-7.77-1.7-7.77-5.96 0-1.92.76-3.2 1.72-4.8 1.5-2.2 2.25-4.4 2.35-7 0-2.53-.66-4.64-2.07-6.75-.2-.3-.17-.7.07-1l1.38-1.7c.27-.32.72-.4 1.1-.2 1.87 1.08 3.66 1.55 5.83 1.58 2.4.04 4.43-.6 6.36-1.97.3-.22.73-.22 1 0 1.97 1.38 4 2 6.4 1.98 2.13-.02 3.96-.52 5.82-1.56.38-.22.83-.13 1.1.2l1.4 1.7c.23.27.26.68.05 1-1.4 2.07-2.03 4.2-2.07 6.73 0 3.03 1.25 5.1 2.35 7 .98 1.6 1.74 2.9 1.74 4.8 0 4.27-5.94 5.65-7.77 5.97-3.35.66-6.1 1.67-9.04 3.4-.14.1-.28.13-.45.13zm-13.46-28.5c1.35 2.26 1.97 4.5 1.97 7.1 0 3.5-1.42 5.93-2.6 7.85-.86 1.5-1.45 2.52-1.45 3.97 0 3 5.28 4.12 6.32 4.3 3.4.67 6.17 1.7 9.18 3.4 3-1.7 5.8-2.73 9.18-3.4 1.07-.18 6.35-1.3 6.35-4.3 0-1.46-.6-2.47-1.5-3.98-1.13-1.92-2.58-4.34-2.58-7.84.04-2.62.66-4.85 2.04-7.12l-.55-.66c-1.94.98-3.84 1.45-6.05 1.45-2.55.03-4.73-.57-6.9-1.95-2.14 1.38-4.35 1.98-6.9 1.95-2.2 0-4.08-.47-6.04-1.45z" stroke="#fff" stroke-opacity="0" fill="#fff"/><path d="M-567.6 578.07c-.22 0-.4-.04-.57-.17-3.06-2.17-6.04-3.5-9.7-4.25-7.12-1.28-11.35-5.15-11.35-10.25.1-2.6.78-4.8 2.3-6.97.94-1.58 1.7-2.94 1.7-4.8-.07-2.6-1.15-4.77-3.13-6.52-.4-.24-.48-.8-.18-1.18.05 0 .05-.04.05-.04 0-.08 5.1-6.08 6.25-7.6.13-.27.4-.4.65-.4.3 0 .52.1.73.3 1.64 1.92 3.75 2.98 6.34 3.1 2.4 0 4.3-1.05 6.12-3.4.34-.38.95-.46 1.34-.12l.12.13c1.82 2.37 3.7 3.4 6.13 3.4 2.6-.14 4.7-1.2 6.35-3.12.22-.2.43-.3.73-.3.26 0 .52.13.65.4 1.17 1.52 6.2 7.52 6.25 7.6.13.17.22.38.18.64 0 .25-.13.42-.3.6-2 1.74-3.07 3.9-3.15 6.5 0 1.87.83 3.23 1.73 4.8 1.5 2.17 2.2 4.4 2.3 6.98 0 5.1-4.24 8.97-11.36 10.25-3.66.76-6.64 2.04-9.7 4.25-.13.1-.3.17-.48.17zm-18.94-33.72c2.07 2.04 3.1 4.42 3.15 7.27 0 2.34-1 4.04-1.98 5.7-1.03 1.83-2.02 3.5-2.02 6.12 0 6.2 7.54 8.04 9.83 8.46 3.75.77 6.82 2.05 9.96 4.17 3.1-2.12 6.16-3.4 9.92-4.17 2.28-.42 9.83-2.25 9.83-8.46 0-2.63-1-4.25-2.03-6.12-1-1.7-1.98-3.4-1.98-5.7.04-2.85 1.08-5.23 3.15-7.27-1.18-1.36-3.77-4.47-5.15-6.2-1.94 1.86-4.22 2.84-6.9 2.92-2.8 0-5.17-1.14-6.9-3.27-1.77 2.13-4.14 3.27-6.94 3.27-2.67-.08-4.95-1.06-6.9-2.93-1.25 1.74-3.88 4.85-5.04 6.2z" stroke="#fff" stroke-opacity="0" fill="#fff"/><use xlink:href="#x" transform="matrix(1,0,0,1,-630,597.7083742503376) translate(43.78395061728395 14.222222222222223)"/><use xlink:href="#y" transform="matrix(1,0,0,1,-630,597.7083742503376) translate(20.59876543209876 35.55555555555556)"/><path d="M-655.6 510.7h-8.48v-3.4h8.48c8.16 0 12.08-3.6 12.08-11 0-6.34-3.68-10.34-11.04-11.8-.8-.16-1.36-.82-1.36-1.58-.4-6.14-3.92-8.37-6.8-8.37-2.08.05-3.84.96-5.12 2.64-.56.7-1.6.85-2.4.3-.24-.2-.4-.46-.56-.77-1.04-3.14-2.56-5.53-4.96-7.86-5.36-5.42-12.96-6.9-20-3.85-6.32 2.9-10.24 8.72-10.48 15.72 0 .7.08 1.3.16 2.07.08.88-.48 1.64-1.28 1.84-3.44.86-9.28 3.45-9.28 11.46v.8c.4 6.04 5.44 10.35 12.08 10.35h8.48v3.4h-8.48c-8.48 0-14.96-5.68-15.44-13.5v-1.05c-.24-6.7 3.92-12.52 10.4-14.35v-1.06c.24-11.68 9.92-20.95 21.6-20.7 5.68.15 10.56 2.23 14.64 6.4 2.08 2.02 3.52 4.1 4.72 6.78 1.76-1.37 3.68-1.98 5.92-2.03 4.48 0 9.2 3.2 10.16 10.25 8.08 2.07 12.56 7.3 12.56 14.85-.08 9.33-5.6 14.45-15.6 14.45zm-18.08 0h-12.72v-3.4h12.72z" stroke="#fff" stroke-opacity="0" fill="#232f3e"/><path d="M-668.9 509.1c-.48 0-.86-.16-1.2-.5l-9.56-9.57 2.4-2.42 8.36 8.33 8.37-8.38 2.4 2.42-9.57 9.56c-.32.37-.73.56-1.2.57z" stroke="#fff" stroke-opacity="0" fill="#232f3e"/><path d="M-670.6 481.85h3.4v23.95h-3.4v-23.95zM-682.83 492.65l-8.38-8.38-8.38 8.38-2.4-2.42 9.57-9.56c.66-.67 1.7-.67 2.38 0l9.57 9.56z" stroke="#fff" stroke-opacity="0" fill="#232f3e"/><path d="M-692.9 481.85h3.4v28.75h-3.4v-28.75z" stroke="#fff" stroke-opacity="0" fill="#232f3e"/><path d="M-655.6 510.7h-48.95c-8.48 0-14.95-5.68-15.43-13.48v-1.07c-.24-6.74 3.92-12.5 10.4-14.4v-1.05-.8c.55-8.12 5.2-14.7 12.55-18.06 8.23-3.54 17.27-1.82 23.6 4.57 2.15 2.08 3.6 4.16 4.78 6.8 1.76-1.32 3.68-1.98 5.92-1.98 4.48 0 9.2 3.2 10.16 10.24 8.16 2.03 12.55 7.3 12.55 14.85-.08 9.28-5.6 14.4-15.6 14.4zm-32.96-47.18c-2.64 0-4.87.45-7.27 1.47-6.32 2.93-10.16 8.75-10.4 15.7 0 .76 0 1.42.16 2.13.08.86-.48 1.67-1.28 1.87-3.44.86-9.27 3.4-9.27 11.45v.92c.32 5.93 5.43 10.18 12.07 10.18h48.94c8.15 0 12.07-3.6 12.07-11 0-6.33-3.68-10.33-11.04-11.8-.8-.15-1.28-.8-1.36-1.57-.32-6.2-3.92-8.37-6.8-8.37-2.08.06-3.84.98-5.12 2.65-.55.7-1.6.86-2.4.3-.23-.2-.4-.45-.55-.76-1.04-3.1-2.56-5.53-4.96-7.86-3.52-3.55-7.76-5.32-12.8-5.32z" stroke="#fff" stroke-opacity="0" fill="#fff" fill-opacity="0"/><use xlink:href="#z" transform="matrix(1,0,0,1,-750,519.7) translate(32.376543209876544 17.77777777777778)"/><path d="M180.1 740h980v420h-980z" fill="#fff" fill-opacity="0"/><path d="M192.14 740h8.03m8.03 0h8.04m8.03 0h8.03m8.04 0h8.03m8.03 0h8.03m8.04 0h8.03m8.03 0h8.04m8.03 0h8.03m8.03 0h8.04m8.03 0h8.03m8.04 0h8.03m8.03 0h8.03m8.03 0h8.03m8.03 0H409m8.04 0h8.03m8.02 0h8.03m8.04 0h8.02m8.03 0h8.04m8.02 0h8.03m8.03 0h8.04m8.03 0h8.03m8.04 0h8.03m8.03 0h8.03m8.05 0h8.03m8.03 0h8.04m8.04 0h8.03m8.04 0h8.04m8.03 0h8.04m8.03 0H650m8.04 0h8.03m8.04 0h8.04m8.03 0h8.03m8.04 0h8.03m8.03 0h8.04m8.03 0h8.03m8.03 0h8.04m8.03 0h8.03m8.04 0h8.03m8.03 0h8.03m8.04 0h8.03m8.03 0h8.03m8.03 0h8.03m8.03 0h8.03m8.03 0H891m8.02 0h8.04m8.03 0h8.02m8.03 0h8.04m8.02 0h8.03m8.04 0h8.02m8.03 0h8.03m8.04 0h8.03m8.03 0h8.04m8.03 0h8.03m8.03 0h8.05m8.03 0h8.03m8.04 0h8.04m8.03 0h8.04m8.04 0h8.03m8.04 0h8.03m8.04 0h8.04m8.03 0h4.02v4.04m0 8.08v8.07m0 8.07v8.08m0 8.07v8.08m0 8.08v8.07m0 8.08v8.08m0 8.1v8.06m0 8.08v8.08m0 8.07v8.07m0 8.08v8.07m0 8.08v8.08m0 8.07v8.08m0 8.08v8.1m0 8.06v8.08m0 8.08v8.07m0 8.07v8.08m0 8.07v8.08m0 8.08v8.07m0 8.08v8.08m0 8.1v8.06m0 8.08v8.08m0 8.07v8.07m0 8.08v8.07m0 8.08v8.08m0 8.07v8.08m0 8.08v8.1m0 8.06v4.04h-4.03m-8.03 0H1140m-8.03 0h-8.03m-8.03 0h-8.02m-8.04 0h-8.03m-8.02 0h-8.04m-8.03 0h-8.02m-8.03 0h-8.04m-8.02 0h-8.03m-8.03 0h-8.04m-8.03 0h-8.03m-8.03 0h-8.05m-8.03 0h-8.03m-8.05 0h-8.03m-8.03 0h-8.05m-8.03 0h-8.03m-8.04 0h-8.04m-8.03 0h-8.04m-8.03 0h-8.04m-8.04 0h-8.03m-8.04 0h-8.04m-8.03 0h-8.03m-8.04 0h-8.03m-8.03 0h-8.03m-8.04 0h-8.03m-8.03 0h-8.04m-8.03 0h-8.03m-8.03 0h-8.04m-8.03 0h-8.03m-8.04 0h-8.03m-8.03 0h-8.03m-8.03 0h-8.03m-8.03 0H642m-8.04 0h-8.03m-8.02 0h-8.04m-8.03 0h-8.02m-8.03 0h-8.04m-8.02 0h-8.03m-8.04 0h-8.02m-8.03 0h-8.03m-8.04 0h-8.03m-8.03 0h-8.04m-8.03 0h-8.03m-8.03 0h-8.05m-8.03 0h-8.03m-8.05 0h-8.03m-8.03 0h-8.04m-8.04 0H401m-8.04 0h-8.03m-8.04 0h-8.04m-8.03 0h-8.03m-8.04 0h-8.03m-8.03 0h-8.04m-8.03 0h-8.03m-8.04 0h-8.03m-8.03 0h-8.03m-8.04 0h-8.03m-8.03 0h-8.03m-8.04 0h-8.03m-8.03 0h-8.04m-8.03 0h-8.03m-8.03 0h-4v-4.04m0-8.08v-8.07m0-8.07v-8.08m0-8.07v-8.08m0-8.08v-8.07m0-8.08v-8.08m0-8.1v-8.06m0-8.08v-8.08m0-8.07v-8.07m0-8.08v-8.07m0-8.08v-8.08m0-8.07v-8.08m0-8.08v-8.1m0-8.06v-8.08m0-8.08v-8.07m0-8.07v-8.08m0-8.07v-8.08m0-8.08v-8.07m0-8.08v-8.08m0-8.1v-8.06m0-8.08v-8.08m0-8.07v-8.07m0-8.08v-8.07m0-8.08v-8.08m0-8.07v-8.08m0-8.08v-8.1m0-8.06V740h4" stroke="#147eba" stroke-width="2" fill="none"/><path d="M180.18 1160V740h29.78v420z" stroke="#000" stroke-opacity="0" stroke-width="2" fill="#fff" fill-opacity="0"/><use xlink:href="#A" transform="matrix(6.123233995736766e-17,-1,1,6.123233995736766e-17,185.17925077036762,1155.0000000000002) translate(125.98765432098763 19.662222222222223)"/><use xlink:href="#B" transform="matrix(6.123233995736766e-17,-1,1,6.123233995736766e-17,185.17925077036762,1155.0000000000002) translate(223.962962962963 19.662222222222223)"/><use xlink:href="#C" transform="matrix(6.123233995736766e-17,-1,1,6.123233995736766e-17,185.17925077036762,1155.0000000000002) translate(271.22222222222223 19.662222222222223)"/><path d="M180.18 1180h980v420h-980z" fill="#fff" fill-opacity="0"/><path d="M192.23 1180h8.03m8.03 0h8.03m8.03 0h8.03m8.03 0h8.03m8.03 0h8.02m8.04 0h8.03m8.02 0h8.03m8.04 0h8.02m8.03 0h8.04m8.02 0h8.03m8.03 0h8.04m8.03 0h8.03m8.03 0h8.05m8.03 0h8.03m8.05 0h8.03m8.03 0h8.05m8.03 0h8.03m8.04 0h8.04m8.03 0h8.04m8.03 0h8.04m8.04 0h8.03m8.03 0h8.04m8.03 0h8.03m8.04 0h8.03m8.03 0h8.04m8.03 0h8.03m8.03 0h8.04m8.03 0h8.03m8.03 0h8.04m8.03 0h8.03m8.04 0h8.03m8.03 0h8.03m8.03 0h8.03m8.03 0h8.02m8.04 0h8.03m8.02 0h8.04m8.03 0h8.02m8.03 0h8.04m8.02 0h8.03m8.04 0h8.02m8.03 0h8.03m8.04 0h8.03m8.03 0H875m8.05 0h8.03m8.03 0h8.05m8.03 0h8.03m8.04 0h8.04m8.03 0h8.04m8.04 0h8.03m8.04 0h8.03m8.04 0h8.04m8.03 0h8.03m8.04 0h8.03m8.03 0h8.04m8.03 0h8.03m8.04 0h8.03m8.03 0h8.03m8.04 0h8.03m8.03 0h8.03m8.04 0h8.03m8.03 0h4.02v4.04m0 8.08v8.07m0 8.07v8.08m0 8.07v8.08m0 8.08v8.07m0 8.08v8.08m0 8.1v8.06m0 8.08v8.08m0 8.07v8.07m0 8.08v8.07m0 8.08v8.08m0 8.07v8.08m0 8.08v8.1m0 8.06v8.08m0 8.08v8.07m0 8.07v8.08m0 8.07v8.08m0 8.08v8.07m0 8.08v8.08m0 8.1v8.06m0 8.08v8.08m0 8.07v8.07m0 8.08v8.07m0 8.08v8.08m0 8.07v8.08m0 8.08v8.1m0 8.06v4.04h-4.02m-8.03 0h-8.03m-8.04 0h-8.03m-8.03 0h-8.03m-8.04 0h-8.03m-8.03 0h-8.03m-8.04 0h-8.03m-8.03 0h-8.04m-8.03 0h-8.03m-8.04 0h-8.03m-8.03 0h-8.03m-8.03 0h-8.03m-8.03 0h-8.02m-8.04 0h-8.03m-8.02 0h-8.03m-8.04 0h-8.02m-8.03 0h-8.04m-8.02 0h-8.03m-8.03 0h-8.04m-8.03 0h-8.03m-8.04 0h-8.03m-8.03 0h-8.03m-8.05 0h-8.03m-8.03 0h-8.05m-8.03 0h-8.03m-8.04 0h-8.04m-8.03 0h-8.04m-8.04 0h-8.03m-8.04 0h-8.03m-8.04 0h-8.04m-8.03 0h-8.03m-8.04 0h-8.03m-8.03 0h-8.04m-8.03 0H626m-8.03 0h-8.04m-8.03 0h-8.03m-8.03 0h-8.04m-8.03 0h-8.03m-8.04 0h-8.03m-8.03 0h-8.03m-8.03 0h-8.03m-8.03 0h-8.03m-8.03 0h-8.03m-8.02 0h-8.04m-8.03 0h-8.02m-8.03 0h-8.04m-8.02 0h-8.03m-8.04 0h-8.02m-8.03 0H385m-8.02 0h-8.03m-8.03 0h-8.04m-8.03 0h-8.03m-8.03 0h-8.05m-8.03 0h-8.03m-8.05 0h-8.03m-8.03 0h-8.04m-8.04 0h-8.03m-8.04 0h-8.03m-8.04 0h-8.04m-8.03 0h-8.04m-8.04 0h-8.03m-8.03 0h-4.02v-4.04m0-8.08v-8.07m0-8.07v-8.08m0-8.07v-8.08m0-8.08v-8.07m0-8.08v-8.08m0-8.1v-8.06m0-8.08v-8.08m0-8.07v-8.07m0-8.08v-8.07m0-8.08v-8.08m0-8.07v-8.08m0-8.08v-8.1m0-8.06v-8.08m0-8.08v-8.07m0-8.07v-8.08m0-8.07v-8.08m0-8.08v-8.07m0-8.08v-8.08m0-8.1v-8.06m0-8.08v-8.08m0-8.07v-8.07m0-8.08v-8.07m0-8.08v-8.08m0-8.07v-8.08m0-8.08v-8.1m0-8.06V1180h4.02" stroke="#147eba" stroke-width="2" fill="none"/><path d="M180.27 1600v-420h29.78v420z" stroke="#000" stroke-opacity="0" stroke-width="2" fill="#fff" fill-opacity="0"/><use xlink:href="#A" transform="matrix(6.123233995736766e-17,-1,1,6.123233995736766e-17,185.26887615555142,1595.0000000000002) translate(125.98765432098763 19.662222222222223)"/><use xlink:href="#B" transform="matrix(6.123233995736766e-17,-1,1,6.123233995736766e-17,185.26887615555142,1595.0000000000002) translate(223.962962962963 19.662222222222223)"/><use xlink:href="#D" transform="matrix(6.123233995736766e-17,-1,1,6.123233995736766e-17,185.26887615555142,1595.0000000000002) translate(271.22222222222223 19.662222222222223)"/><path d="M260 331.35a6 6 0 0 1 6-6h468a6 6 0 0 1 6 6v308a6 6 0 0 1-6 6H266a6 6 0 0 1-6-6z" fill="#248814" fill-opacity=".13"/><path d="M260 325.35h56v56h-56v-56z" stroke="#fff" stroke-opacity="0" fill="#248814"/><path d="M303.38 347.53c-.15-.17-.34-.25-.56-.25h-5.15v-5.58c-.03-2.54-.97-4.7-2.84-6.4-1.9-1.84-4.15-2.75-6.77-2.75-2.65 0-4.9.83-6.8 2.62-1.9 1.7-2.87 3.87-2.9 6.4v5.67h-5.15c-.24 0-.43.08-.58.24-.16.17-.22.34-.22.6v25.28c0 .42.34.8.8.8h29.6c.46 0 .8-.38.8-.8v-25.3c0-.2-.06-.37-.22-.53zm-23.46-5.9c.03-2.13.8-3.88 2.37-5.3 1.6-1.5 3.52-2.2 5.73-2.2 2.22 0 4.12.75 5.7 2.25 1.54 1.4 2.32 3.2 2.32 5.32v5.58H279.9zm22.1 30.94h-28.03v-23.7h28z" stroke="#fff" stroke-opacity="0" fill="#fff"/><path d="M287.2 362.66v6.24h1.6v-6.23c2.13-.4 3.62-2.2 3.63-4.35 0-2.43-1.97-4.4-4.4-4.43-2.2-.04-4.06 1.5-4.44 3.67-.42 2.4 1.2 4.68 3.6 5.1zm.82-7.16c.78 0 1.44.27 2 .82.54.56.82 1.22.8 2 .03 1.55-1.2 2.8-2.74 2.82h-.06c-1.56.12-2.92-1.05-3.04-2.6-.12-1.57 1.05-2.94 2.6-3.04.16-.02.3-.02.44 0z" stroke="#fff" stroke-opacity="0" fill="#fff"/><use xlink:href="#g" transform="matrix(1,0,0,1,331,345.35) translate(0 17.77777777777778)"/><use xlink:href="#h" transform="matrix(1,0,0,1,331,345.35) translate(66.5432098765432 17.77777777777778)"/><path d="M930 440h60v60h-60v-60z" stroke="#fff" stroke-opacity="0" stroke-width="2" fill="#d86613"/><path d="M978.4 472.4h-4v-1.6h4v-19.2h-19.22v4h-1.6v-4c0-.88.73-1.6 1.6-1.6h19.22c.88 0 1.6.72 1.6 1.6v19.2c0 .88-.73 1.6-1.6 1.6zM960.8 490h-19.22c-.87 0-1.6-.72-1.6-1.6v-19.2c0-.88.73-1.6 1.6-1.6h4v1.6h-4v19.2h19.22v-4h1.6v4c0 .88-.73 1.6-1.6 1.6z" stroke="#fff" stroke-opacity="0" stroke-width="2" fill="#fff"/><path d="M972.8 462.8v-1.6h-2.4c-.06-.85-.75-1.54-1.6-1.6v-2.4h-1.6v2.4h-2.4v-2.4h-1.6v2.4h-2.4v-2.4h-1.6v2.4h-2.4v-2.4h-1.6v2.4h-2.4v-2.4h-1.6v2.4c-.85.06-1.54.75-1.6 1.6h-2.4v1.6h2.4v2.4h-2.4v1.6h2.4v2.4h-2.4v1.6h2.4v2.4h-2.4v1.6h2.4v2.4h-2.4v1.6h2.4c.06.85.75 1.54 1.6 1.6v2.4h1.6v-2.4h2.4v2.4h1.6v-2.4h2.4v2.4h1.6v-2.4h2.4v2.4h1.6v-2.4h2.4v2.4h1.6v-2.4c.85-.06 1.54-.75 1.6-1.6h2.4v-1.6h-2.4v-2.4h2.4v-1.6h-2.4v-2.4h2.4v-1.6h-2.4v-2.4h2.4v-1.6h-2.4v-2.4zm-4 15.85c0 .08-.07.16-.15.16h-17.3c-.08 0-.16-.07-.16-.15v-17.3c0-.08.07-.16.15-.16h17.3c.08 0 .16.07.16.15z" stroke="#fff" stroke-opacity="0" stroke-width="2" fill="#fff"/><use xlink:href="#E" transform="matrix(1,0,0,1,900,509.0000000000001) translate(19.29012345679012 17.77777777777778)"/><use xlink:href="#F" transform="matrix(1,0,0,1,900,509.0000000000001) translate(38.425925925925924 44.44444444444444)"/><path d="M799 470h-33.5a6 6 0 0 1-6-6v-59.5a6 6 0 0 0-6-6H486a6 6 0 0 0-6 6v17.62" stroke="#3a414a" fill="none"/><path d="M799.5 470.5h-.5v-1h.5z" stroke="#3a414a" stroke-width=".05" fill="#3a414a"/><path d="M480 436.88l-4.63-14.26h9.26z" stroke="#3a414a" fill="#3a414a"/><path d="M779.5 470H686a6 6 0 0 0-6 6v539.5a6 6 0 0 1-6 6H486a6 6 0 0 1-6-6v-17.62" stroke="#3a414a" fill="none"/><path d="M780 470.5h-.5v-1h.5z" stroke="#3a414a" stroke-width=".05" fill="#3a414a"/><path d="M480 983.12l4.63 14.26h-9.26z" stroke="#3a414a" fill="#3a414a"/><path d="M338 710H-46.85a6 6 0 0 1-6-6V564.3a6 6 0 0 0-6-6h-368.97" stroke="#3a414a" fill="none"/><path d="M338.5 710.5h-.5v-1h.5z" stroke="#3a414a" stroke-width=".05" fill="#3a414a"/><path d="M-442.6 558.3l14.28-4.64v9.27z" stroke="#3a414a" fill="#3a414a"/><path d="M480 732.67c-22.08 0-40-17.9-40-40 0-22.07 17.92-40 40-40s40 17.93 40 40c0 22.1-17.92 40-40 40zm0-76.8c-20.32 0-36.8 16.5-36.8 36.8 0 20.33 16.48 36.8 36.8 36.8 20.32 0 36.8-16.48 36.8-36.8 0-20.3-16.48-36.8-36.8-36.8z" stroke="#fff" stroke-opacity="0" stroke-width="3" fill="#693cc5"/><path d="M503.86 703.87h-3.06v-6.4c0-.9-.7-1.6-1.58-1.6h-4.83v-6.4c0-.88-.73-1.58-1.6-1.58h-11.2v-4.82h11.2c.87 0 1.6-.74 1.6-1.58v-14.44c0-.9-.73-1.58-1.6-1.58h-25.6c-.88 0-1.6.7-1.6 1.58v14.44c0 .84.72 1.58 1.6 1.58h11.2v4.8h-11.2c-.88 0-1.6.7-1.6 1.6v6.4h-4.78c-.9 0-1.63.7-1.63 1.6v6.38h-3.06c-.87 0-1.58.75-1.58 1.6v8.03c0 .88.7 1.58 1.58 1.58h7.84c.92 0 1.63-.7 1.63-1.6v-8.03c0-.84-.7-1.6-1.62-1.6h-1.58v-4.8h8v4.82h-1.58c-.92 0-1.63.74-1.63 1.58v8.04c0 .88.7 1.58 1.62 1.58h8c.86 0 1.57-.7 1.57-1.6v-8.03c0-.84-.72-1.6-1.58-1.6h-3.2v-6.38c0-.9-.73-1.6-1.64-1.6h-3.16v-4.8h22.36v4.8h-3.16c-.92 0-1.63.7-1.63 1.6v6.4h-3.22c-.86 0-1.58.74-1.58 1.58v8.04c0 .88.72 1.58 1.58 1.58h8c.9 0 1.63-.7 1.63-1.6v-8.03c0-.84-.7-1.6-1.62-1.6h-1.58v-4.8h8v4.82h-1.74c-.86 0-1.58.74-1.58 1.58v8.04c0 .88.72 1.58 1.58 1.58h8.05c.88 0 1.6-.7 1.6-1.6v-8.03-.05c-.06-.84-.78-1.53-1.64-1.53zm-41.46 7.98h-4.63v-4.76h4.63zm12.8-4.76v4.75h-4.8v-4.76zm-6.38-27.24V668.7h22.36v11.16zm20.78 32h-4.8v-4.77h4.8zm12.63 0h-4.8v-4.77h4.8z" stroke="#fff" stroke-opacity="0" stroke-width="3" fill="#693cc5"/><use xlink:href="#G" transform="matrix(1,0,0,1,410,741.675) translate(15.7716049382716 17.77777777777778)"/><use xlink:href="#H" transform="matrix(1,0,0,1,410,741.675) translate(45.308641975308646 44.44444444444444)"/><use xlink:href="#I" transform="matrix(1,0,0,1,410,741.675) translate(26.234567901234563 71.11111111111111)"/><path d="M920 1140h60v60h-60v-60z" stroke="#fff" stroke-opacity="0" stroke-width="2" fill="#3b48cc"/><path d="M958.76 1162.58c0-2.3-4.55-3.4-8.8-3.4-4.25 0-8.8 1.1-8.8 3.4 0 .13.02.22.04.35v14.43c-.04 2.42 4.53 3.43 8.8 3.43 4.28 0 8.8-1.07 8.8-3.38v-14.84zm-8.78-1.8c4.66 0 7.2 1.3 7.2 1.8 0 .52-2.53 1.8-7.2 1.8-4.7 0-7.2-1.26-7.2-1.8 0-.5 2.52-1.8 7.2-1.8zm7.2 16.64c0 .52-2.53 1.77-7.2 1.77-4.68 0-7.2-1.26-7.2-1.78v-2.53c1.68.92 4.52 1.36 7.2 1.36 2.68 0 5.5-.44 7.2-1.34zm0-4.56c0 .52-2.53 1.8-7.2 1.8-4.7 0-7.2-1.28-7.2-1.8h.02v-3.04c1.7.9 4.52 1.34 7.2 1.34 2.68 0 5.48-.43 7.2-1.32zm0-5.1c0 .53-2.53 1.82-7.2 1.82-4.7 0-7.2-1.3-7.2-1.8h.02v-3.12c1.7.9 4.5 1.3 7.2 1.3s5.54-.42 7.2-1.35zM932.73 1188.4H938v1.6h-7.2c-.44 0-.8-.35-.8-.8v-7.2h1.6v5.27l6-6 1.12 1.13zM970 1182v7.2c0 .45-.35.8-.8.8H962v-1.6h5.27l-5.9-5.92 1.12-1.12 5.9 5.9v-5.25zM970 1150.8v7.2h-1.6v-5.27l-5.9 5.9-1.14-1.12 5.9-5.9H962v-1.6h7.2c.45 0 .8.36.8.8zM938.72 1157.6l-1.12 1.12-6-6v5.28H930v-7.2c0-.45.36-.8.8-.8h7.2v1.6h-5.27zM937.73 1177.17c-4.9-1.76-7.7-4.45-7.7-7.37s2.8-5.6 7.7-7.37l.54 1.5c-4.15 1.5-6.63 3.7-6.63 5.87 0 2.18 2.48 4.36 6.63 5.87zM961.83 1177.34l-.52-1.52c4.45-1.5 7.1-3.74 7.1-6.02 0-2.28-2.65-4.53-7.1-6.03l.53-1.5c5.2 1.74 8.17 4.5 8.17 7.53 0 3.03-2.98 5.78-8.17 7.54z" stroke="#fff" stroke-opacity="0" stroke-width="2" fill="#fff"/><g><use xlink:href="#E" transform="matrix(1,0,0,1,890,1209) translate(19.29012345679012 17.77777777777778)"/><use xlink:href="#J" transform="matrix(1,0,0,1,890,1209) translate(36.60493827160494 44.44444444444444)"/></g><path d="M400 1350h60v60h-60v-60z" stroke="#fff" stroke-opacity="0" stroke-width="2" fill="#d86613"/><path d="M448.4 1382.4h-4v-1.6h4v-19.2h-19.22v4h-1.6v-4c0-.88.73-1.6 1.6-1.6h19.22c.88 0 1.6.72 1.6 1.6v19.2c0 .88-.73 1.6-1.6 1.6zM430.8 1400h-19.22c-.87 0-1.6-.72-1.6-1.6v-19.2c0-.88.73-1.6 1.6-1.6h4v1.6h-4v19.2h19.22v-4h1.6v4c0 .88-.72 1.6-1.6 1.6z" stroke="#fff" stroke-opacity="0" stroke-width="2" fill="#fff"/><path d="M442.8 1372.8v-1.6h-2.4c-.06-.85-.75-1.54-1.6-1.6v-2.4h-1.6v2.4h-2.4v-2.4h-1.6v2.4h-2.4v-2.4h-1.6v2.4h-2.4v-2.4h-1.6v2.4h-2.4v-2.4h-1.6v2.4c-.85.06-1.54.75-1.6 1.6h-2.4v1.6h2.4v2.4h-2.4v1.6h2.4v2.4h-2.4v1.6h2.4v2.4h-2.4v1.6h2.4v2.4h-2.4v1.6h2.4c.06.85.75 1.54 1.6 1.6v2.4h1.6v-2.4h2.4v2.4h1.6v-2.4h2.4v2.4h1.6v-2.4h2.4v2.4h1.6v-2.4h2.4v2.4h1.6v-2.4c.85-.06 1.54-.75 1.6-1.6h2.4v-1.6h-2.4v-2.4h2.4v-1.6h-2.4v-2.4h2.4v-1.6h-2.4v-2.4h2.4v-1.6h-2.4v-2.4zm-4 15.85c0 .08-.07.16-.15.16h-17.3c-.08 0-.16-.07-.16-.15v-17.3c0-.08.07-.16.15-.16h17.3c.08 0 .16.07.16.15z" stroke="#fff" stroke-opacity="0" stroke-width="2" fill="#fff"/><g><use xlink:href="#K" transform="matrix(1,0,0,1,370,1419) translate(-5.987654320987659 17.77777777777778)"/><use xlink:href="#L" transform="matrix(1,0,0,1,370,1419) translate(39.01234567901234 44.44444444444444)"/></g><path d="M818 1200H645.25a6 6 0 0 0-6 6v168a6 6 0 0 1-6 6H476.38" stroke="#3a414a" fill="none"/><path d="M818.5 1200.5h-.5v-1h.5z" stroke="#3a414a" stroke-width=".05" fill="#3a414a"/><path d="M461.62 1380l14.26-4.63v9.27z" stroke="#3a414a" fill="#3a414a"/><path d="M399.5 1380H-204a6 6 0 0 1-6-6V706a6 6 0 0 0-6-6h-255.62a6 6 0 0 1-6-6v-85.9" stroke="#3a414a" fill="none"/><path d="M400 1380.5h-.5v-1h.5z" stroke="#3a414a" stroke-width=".05" fill="#3a414a"/><path d="M-477.62 593.33l4.63 14.27h-9.26z" stroke="#3a414a" fill="#3a414a"/><defs><path fill="#147eba" d="M233-177c-1 41-23 64-60 70L243 0h-38l-65-103H63V0H30v-248c88 3 205-21 203 71zM63-129c60-2 137 13 137-47 0-61-80-42-137-45v92" id="M"/><path fill="#147eba" d="M100-194c63 0 86 42 84 106H49c0 40 14 67 53 68 26 1 43-12 49-29l28 8c-11 28-37 45-77 45C44 4 14-33 15-96c1-61 26-98 85-98zm52 81c6-60-76-77-97-28-3 7-6 17-6 28h103" id="N"/><path fill="#147eba" d="M177-190C167-65 218 103 67 71c-23-6-38-20-44-43l32-5c15 47 100 32 89-28v-30C133-14 115 1 83 1 29 1 15-40 15-95c0-56 16-97 71-98 29-1 48 16 59 35 1-10 0-23 2-32h30zM94-22c36 0 50-32 50-73 0-42-14-75-50-75-39 0-46 34-46 75s6 73 46 73" id="O"/><path fill="#147eba" d="M24-231v-30h32v30H24zM24 0v-190h32V0H24" id="P"/><path fill="#147eba" d="M100-194c62-1 85 37 85 99 1 63-27 99-86 99S16-35 15-95c0-66 28-99 85-99zM99-20c44 1 53-31 53-75 0-43-8-75-51-75s-53 32-53 75 10 74 51 75" id="Q"/><path fill="#147eba" d="M117-194c89-4 53 116 60 194h-32v-121c0-31-8-49-39-48C34-167 62-67 57 0H25l-1-190h30c1 10-1 24 2 32 11-22 29-35 61-36" id="R"/><g id="a"><use transform="matrix(0.05,0,0,0.05,0,0)" xlink:href="#M"/><use transform="matrix(0.05,0,0,0.05,12.950000000000001,0)" xlink:href="#N"/><use transform="matrix(0.05,0,0,0.05,22.950000000000003,0)" xlink:href="#O"/><use transform="matrix(0.05,0,0,0.05,32.95,0)" xlink:href="#P"/><use transform="matrix(0.05,0,0,0.05,36.900000000000006,0)" xlink:href="#Q"/><use transform="matrix(0.05,0,0,0.05,46.900000000000006,0)" xlink:href="#R"/></g><path fill="#d86613" d="M30 0v-248h187v28H63v79h144v27H63v87h162V0H30" id="S"/><path fill="#d86613" d="M24 0v-261h32V0H24" id="T"/><path fill="#d86613" d="M141-36C126-15 110 5 73 4 37 3 15-17 15-53c-1-64 63-63 125-63 3-35-9-54-41-54-24 1-41 7-42 31l-33-3c5-37 33-52 76-52 45 0 72 20 72 64v82c-1 20 7 32 28 27v20c-31 9-61-2-59-35zM48-53c0 20 12 33 32 33 41-3 63-29 60-74-43 2-92-5-92 41" id="U"/><path fill="#d86613" d="M135-143c-3-34-86-38-87 0 15 53 115 12 119 90S17 21 10-45l28-5c4 36 97 45 98 0-10-56-113-15-118-90-4-57 82-63 122-42 12 7 21 19 24 35" id="V"/><path fill="#d86613" d="M59-47c-2 24 18 29 38 22v24C64 9 27 4 27-40v-127H5v-23h24l9-43h21v43h35v23H59v120" id="W"/><path fill="#d86613" d="M24-231v-30h32v30H24zM24 0v-190h32V0H24" id="X"/><path fill="#d86613" d="M96-169c-40 0-48 33-48 73s9 75 48 75c24 0 41-14 43-38l32 2c-6 37-31 61-74 61-59 0-76-41-82-99-10-93 101-131 147-64 4 7 5 14 7 22l-32 3c-4-21-16-35-41-35" id="Y"/><g id="b"><use transform="matrix(0.05,0,0,0.05,0,0)" xlink:href="#S"/><use transform="matrix(0.05,0,0,0.05,12,0)" xlink:href="#T"/><use transform="matrix(0.05,0,0,0.05,15.949999999999998,0)" xlink:href="#U"/><use transform="matrix(0.05,0,0,0.05,25.950000000000003,0)" xlink:href="#V"/><use transform="matrix(0.05,0,0,0.05,34.95,0)" xlink:href="#W"/><use transform="matrix(0.05,0,0,0.05,39.95,0)" xlink:href="#X"/><use transform="matrix(0.05,0,0,0.05,43.900000000000006,0)" xlink:href="#Y"/></g><path fill="#d86613" d="M160-131c35 5 61 23 61 61C221 17 115-2 30 0v-248c76 3 177-17 177 60 0 33-19 50-47 57zm-97-11c50-1 110 9 110-42 0-47-63-36-110-37v79zm0 115c55-2 124 14 124-45 0-56-70-42-124-44v89" id="Z"/><path fill="#d86613" d="M100-194c63 0 86 42 84 106H49c0 40 14 67 53 68 26 1 43-12 49-29l28 8c-11 28-37 45-77 45C44 4 14-33 15-96c1-61 26-98 85-98zm52 81c6-60-76-77-97-28-3 7-6 17-6 28h103" id="aa"/><path fill="#d86613" d="M117-194c89-4 53 116 60 194h-32v-121c0-31-8-49-39-48C34-167 62-67 57 0H25l-1-190h30c1 10-1 24 2 32 11-22 29-35 61-36" id="ab"/><path fill="#d86613" d="M143 0L79-87 56-68V0H24v-261h32v163l83-92h37l-77 82L181 0h-38" id="ac"/><g id="c"><use transform="matrix(0.05,0,0,0.05,0,0)" xlink:href="#Z"/><use transform="matrix(0.05,0,0,0.05,12,0)" xlink:href="#aa"/><use transform="matrix(0.05,0,0,0.05,22,0)" xlink:href="#U"/><use transform="matrix(0.05,0,0,0.05,32,0)" xlink:href="#ab"/><use transform="matrix(0.05,0,0,0.05,42,0)" xlink:href="#V"/><use transform="matrix(0.05,0,0,0.05,51,0)" xlink:href="#W"/><use transform="matrix(0.05,0,0,0.05,56,0)" xlink:href="#U"/><use transform="matrix(0.05,0,0,0.05,66,0)" xlink:href="#T"/><use transform="matrix(0.05,0,0,0.05,69.95,0)" xlink:href="#ac"/></g><path fill="#d86613" d="M212-179c-10-28-35-45-73-45-59 0-87 40-87 99 0 60 29 101 89 101 43 0 62-24 78-52l27 14C228-24 195 4 139 4 59 4 22-46 18-125c-6-104 99-153 187-111 19 9 31 26 39 46" id="ad"/><path fill="#d86613" d="M100-194c62-1 85 37 85 99 1 63-27 99-86 99S16-35 15-95c0-66 28-99 85-99zM99-20c44 1 53-31 53-75 0-43-8-75-51-75s-53 32-53 75 10 74 51 75" id="ae"/><path fill="#d86613" d="M114-163C36-179 61-72 57 0H25l-1-190h30c1 12-1 29 2 39 6-27 23-49 58-41v29" id="af"/><g id="d"><use transform="matrix(0.05,0,0,0.05,0,0)" xlink:href="#ad"/><use transform="matrix(0.05,0,0,0.05,12.950000000000001,0)" xlink:href="#ae"/><use transform="matrix(0.05,0,0,0.05,22.950000000000003,0)" xlink:href="#ab"/><use transform="matrix(0.05,0,0,0.05,32.95,0)" xlink:href="#W"/><use transform="matrix(0.05,0,0,0.05,37.95,0)" xlink:href="#U"/><use transform="matrix(0.05,0,0,0.05,47.95,0)" xlink:href="#X"/><use transform="matrix(0.05,0,0,0.05,51.900000000000006,0)" xlink:href="#ab"/><use transform="matrix(0.05,0,0,0.05,61.900000000000006,0)" xlink:href="#aa"/><use transform="matrix(0.05,0,0,0.05,71.9,0)" xlink:href="#af"/></g><path fill="#5a6c86" d="M30 0v-248h33v221h125V0H30" id="ag"/><path fill="#5a6c86" d="M100-194c62-1 85 37 85 99 1 63-27 99-86 99S16-35 15-95c0-66 28-99 85-99zM99-20c44 1 53-31 53-75 0-43-8-75-51-75s-53 32-53 75 10 74 51 75" id="ah"/><path fill="#5a6c86" d="M141-36C126-15 110 5 73 4 37 3 15-17 15-53c-1-64 63-63 125-63 3-35-9-54-41-54-24 1-41 7-42 31l-33-3c5-37 33-52 76-52 45 0 72 20 72 64v82c-1 20 7 32 28 27v20c-31 9-61-2-59-35zM48-53c0 20 12 33 32 33 41-3 63-29 60-74-43 2-92-5-92 41" id="ai"/><path fill="#5a6c86" d="M85-194c31 0 48 13 60 33l-1-100h32l1 261h-30c-2-10 0-23-3-31C134-8 116 4 85 4 32 4 16-35 15-94c0-66 23-100 70-100zm9 24c-40 0-46 34-46 75 0 40 6 74 45 74 42 0 51-32 51-76 0-42-9-74-50-73" id="aj"/><g id="e"><use transform="matrix(0.05,0,0,0.05,0,0)" xlink:href="#ag"/><use transform="matrix(0.05,0,0,0.05,10,0)" xlink:href="#ah"/><use transform="matrix(0.05,0,0,0.05,20,0)" xlink:href="#ai"/><use transform="matrix(0.05,0,0,0.05,30,0)" xlink:href="#aj"/></g><path fill="#5a6c86" d="M115-194c53 0 69 39 70 98 0 66-23 100-70 100C84 3 66-7 56-30L54 0H23l1-261h32v101c10-23 28-34 59-34zm-8 174c40 0 45-34 45-75 0-40-5-75-45-74-42 0-51 32-51 76 0 43 10 73 51 73" id="ak"/><path fill="#5a6c86" d="M24 0v-261h32V0H24" id="al"/><path fill="#5a6c86" d="M117-194c89-4 53 116 60 194h-32v-121c0-31-8-49-39-48C34-167 62-67 57 0H25l-1-190h30c1 10-1 24 2 32 11-22 29-35 61-36" id="am"/><path fill="#5a6c86" d="M96-169c-40 0-48 33-48 73s9 75 48 75c24 0 41-14 43-38l32 2c-6 37-31 61-74 61-59 0-76-41-82-99-10-93 101-131 147-64 4 7 5 14 7 22l-32 3c-4-21-16-35-41-35" id="an"/><path fill="#5a6c86" d="M100-194c63 0 86 42 84 106H49c0 40 14 67 53 68 26 1 43-12 49-29l28 8c-11 28-37 45-77 45C44 4 14-33 15-96c1-61 26-98 85-98zm52 81c6-60-76-77-97-28-3 7-6 17-6 28h103" id="ao"/><path fill="#5a6c86" d="M114-163C36-179 61-72 57 0H25l-1-190h30c1 12-1 29 2 39 6-27 23-49 58-41v29" id="ap"/><g id="f"><use transform="matrix(0.05,0,0,0.05,0,0)" xlink:href="#ak"/><use transform="matrix(0.05,0,0,0.05,10,0)" xlink:href="#ai"/><use transform="matrix(0.05,0,0,0.05,20,0)" xlink:href="#al"/><use transform="matrix(0.05,0,0,0.05,23.95,0)" xlink:href="#ai"/><use transform="matrix(0.05,0,0,0.05,33.95,0)" xlink:href="#am"/><use transform="matrix(0.05,0,0,0.05,43.95,0)" xlink:href="#an"/><use transform="matrix(0.05,0,0,0.05,52.95,0)" xlink:href="#ao"/><use transform="matrix(0.05,0,0,0.05,62.95,0)" xlink:href="#ap"/></g><path fill="#3a414a" d="M30-248c87 1 191-15 191 75 0 78-77 80-158 76V0H30v-248zm33 125c57 0 124 11 124-50 0-59-68-47-124-48v98" id="aq"/><path fill="#3a414a" d="M84 4C-5 8 30-112 23-190h32v120c0 31 7 50 39 49 72-2 45-101 50-169h31l1 190h-30c-1-10 1-25-2-33-11 22-28 36-60 37" id="ar"/><path fill="#3a414a" d="M115-194c53 0 69 39 70 98 0 66-23 100-70 100C84 3 66-7 56-30L54 0H23l1-261h32v101c10-23 28-34 59-34zm-8 174c40 0 45-34 45-75 0-40-5-75-45-74-42 0-51 32-51 76 0 43 10 73 51 73" id="as"/><path fill="#3a414a" d="M24 0v-261h32V0H24" id="at"/><path fill="#3a414a" d="M24-231v-30h32v30H24zM24 0v-190h32V0H24" id="au"/><path fill="#3a414a" d="M96-169c-40 0-48 33-48 73s9 75 48 75c24 0 41-14 43-38l32 2c-6 37-31 61-74 61-59 0-76-41-82-99-10-93 101-131 147-64 4 7 5 14 7 22l-32 3c-4-21-16-35-41-35" id="av"/><g id="g"><use transform="matrix(0.06172839506172839,0,0,0.06172839506172839,0,0)" xlink:href="#aq"/><use transform="matrix(0.06172839506172839,0,0,0.06172839506172839,14.814814814814813,0)" xlink:href="#ar"/><use transform="matrix(0.06172839506172839,0,0,0.06172839506172839,27.160493827160494,0)" xlink:href="#as"/><use transform="matrix(0.06172839506172839,0,0,0.06172839506172839,39.50617283950617,0)" xlink:href="#at"/><use transform="matrix(0.06172839506172839,0,0,0.06172839506172839,44.382716049382715,0)" xlink:href="#au"/><use transform="matrix(0.06172839506172839,0,0,0.06172839506172839,49.25925925925926,0)" xlink:href="#av"/></g><path fill="#3a414a" d="M185-189c-5-48-123-54-124 2 14 75 158 14 163 119 3 78-121 87-175 55-17-10-28-26-33-46l33-7c5 56 141 63 141-1 0-78-155-14-162-118-5-82 145-84 179-34 5 7 8 16 11 25" id="aw"/><path fill="#3a414a" d="M117-194c89-4 53 116 60 194h-32v-121c0-31-8-49-39-48C34-167 62-67 57 0H25l-1-190h30c1 10-1 24 2 32 11-22 29-35 61-36" id="ax"/><path fill="#3a414a" d="M100-194c63 0 86 42 84 106H49c0 40 14 67 53 68 26 1 43-12 49-29l28 8c-11 28-37 45-77 45C44 4 14-33 15-96c1-61 26-98 85-98zm52 81c6-60-76-77-97-28-3 7-6 17-6 28h103" id="ay"/><path fill="#3a414a" d="M59-47c-2 24 18 29 38 22v24C64 9 27 4 27-40v-127H5v-23h24l9-43h21v43h35v23H59v120" id="az"/><g id="h"><use transform="matrix(0.06172839506172839,0,0,0.06172839506172839,0,0)" xlink:href="#aw"/><use transform="matrix(0.06172839506172839,0,0,0.06172839506172839,14.814814814814813,0)" xlink:href="#ar"/><use transform="matrix(0.06172839506172839,0,0,0.06172839506172839,27.160493827160494,0)" xlink:href="#as"/><use transform="matrix(0.06172839506172839,0,0,0.06172839506172839,39.50617283950617,0)" xlink:href="#ax"/><use transform="matrix(0.06172839506172839,0,0,0.06172839506172839,51.85185185185185,0)" xlink:href="#ay"/><use transform="matrix(0.06172839506172839,0,0,0.06172839506172839,64.19753086419753,0)" xlink:href="#az"/></g><path fill="#147eba" d="M30-248c87 1 191-15 191 75 0 78-77 80-158 76V0H30v-248zm33 125c57 0 124 11 124-50 0-59-68-47-124-48v98" id="aA"/><path fill="#147eba" d="M114-163C36-179 61-72 57 0H25l-1-190h30c1 12-1 29 2 39 6-27 23-49 58-41v29" id="aB"/><path fill="#147eba" d="M108 0H70L1-190h34L89-25l56-165h34" id="aC"/><path fill="#147eba" d="M141-36C126-15 110 5 73 4 37 3 15-17 15-53c-1-64 63-63 125-63 3-35-9-54-41-54-24 1-41 7-42 31l-33-3c5-37 33-52 76-52 45 0 72 20 72 64v82c-1 20 7 32 28 27v20c-31 9-61-2-59-35zM48-53c0 20 12 33 32 33 41-3 63-29 60-74-43 2-92-5-92 41" id="aD"/><path fill="#147eba" d="M59-47c-2 24 18 29 38 22v24C64 9 27 4 27-40v-127H5v-23h24l9-43h21v43h35v23H59v120" id="aE"/><g id="i"><use transform="matrix(0.05,0,0,0.05,0,0)" xlink:href="#aA"/><use transform="matrix(0.05,0,0,0.05,12,0)" xlink:href="#aB"/><use transform="matrix(0.05,0,0,0.05,17.95,0)" xlink:href="#P"/><use transform="matrix(0.05,0,0,0.05,21.9,0)" xlink:href="#aC"/><use transform="matrix(0.05,0,0,0.05,30.899999999999995,0)" xlink:href="#aD"/><use transform="matrix(0.05,0,0,0.05,40.9,0)" xlink:href="#aE"/><use transform="matrix(0.05,0,0,0.05,45.9,0)" xlink:href="#N"/></g><path fill="#147eba" d="M185-189c-5-48-123-54-124 2 14 75 158 14 163 119 3 78-121 87-175 55-17-10-28-26-33-46l33-7c5 56 141 63 141-1 0-78-155-14-162-118-5-82 145-84 179-34 5 7 8 16 11 25" id="aF"/><path fill="#147eba" d="M84 4C-5 8 30-112 23-190h32v120c0 31 7 50 39 49 72-2 45-101 50-169h31l1 190h-30c-1-10 1-25-2-33-11 22-28 36-60 37" id="aG"/><path fill="#147eba" d="M115-194c53 0 69 39 70 98 0 66-23 100-70 100C84 3 66-7 56-30L54 0H23l1-261h32v101c10-23 28-34 59-34zm-8 174c40 0 45-34 45-75 0-40-5-75-45-74-42 0-51 32-51 76 0 43 10 73 51 73" id="aH"/><g id="j"><use transform="matrix(0.05,0,0,0.05,0,0)" xlink:href="#aF"/><use transform="matrix(0.05,0,0,0.05,12,0)" xlink:href="#aG"/><use transform="matrix(0.05,0,0,0.05,22,0)" xlink:href="#aH"/><use transform="matrix(0.05,0,0,0.05,32,0)" xlink:href="#R"/><use transform="matrix(0.05,0,0,0.05,42,0)" xlink:href="#N"/><use transform="matrix(0.05,0,0,0.05,52,0)" xlink:href="#aE"/></g><path fill="#248814" d="M30-248c87 1 191-15 191 75 0 78-77 80-158 76V0H30v-248zm33 125c57 0 124 11 124-50 0-59-68-47-124-48v98" id="aI"/><path fill="#248814" d="M84 4C-5 8 30-112 23-190h32v120c0 31 7 50 39 49 72-2 45-101 50-169h31l1 190h-30c-1-10 1-25-2-33-11 22-28 36-60 37" id="aJ"/><path fill="#248814" d="M115-194c53 0 69 39 70 98 0 66-23 100-70 100C84 3 66-7 56-30L54 0H23l1-261h32v101c10-23 28-34 59-34zm-8 174c40 0 45-34 45-75 0-40-5-75-45-74-42 0-51 32-51 76 0 43 10 73 51 73" id="aK"/><path fill="#248814" d="M24 0v-261h32V0H24" id="aL"/><path fill="#248814" d="M24-231v-30h32v30H24zM24 0v-190h32V0H24" id="aM"/><path fill="#248814" d="M96-169c-40 0-48 33-48 73s9 75 48 75c24 0 41-14 43-38l32 2c-6 37-31 61-74 61-59 0-76-41-82-99-10-93 101-131 147-64 4 7 5 14 7 22l-32 3c-4-21-16-35-41-35" id="aN"/><g id="k"><use transform="matrix(0.05,0,0,0.05,0,0)" xlink:href="#aI"/><use transform="matrix(0.05,0,0,0.05,12,0)" xlink:href="#aJ"/><use transform="matrix(0.05,0,0,0.05,22,0)" xlink:href="#aK"/><use transform="matrix(0.05,0,0,0.05,32,0)" xlink:href="#aL"/><use transform="matrix(0.05,0,0,0.05,35.95,0)" xlink:href="#aM"/><use transform="matrix(0.05,0,0,0.05,39.900000000000006,0)" xlink:href="#aN"/></g><path fill="#248814" d="M185-189c-5-48-123-54-124 2 14 75 158 14 163 119 3 78-121 87-175 55-17-10-28-26-33-46l33-7c5 56 141 63 141-1 0-78-155-14-162-118-5-82 145-84 179-34 5 7 8 16 11 25" id="aO"/><path fill="#248814" d="M117-194c89-4 53 116 60 194h-32v-121c0-31-8-49-39-48C34-167 62-67 57 0H25l-1-190h30c1 10-1 24 2 32 11-22 29-35 61-36" id="aP"/><path fill="#248814" d="M100-194c63 0 86 42 84 106H49c0 40 14 67 53 68 26 1 43-12 49-29l28 8c-11 28-37 45-77 45C44 4 14-33 15-96c1-61 26-98 85-98zm52 81c6-60-76-77-97-28-3 7-6 17-6 28h103" id="aQ"/><path fill="#248814" d="M59-47c-2 24 18 29 38 22v24C64 9 27 4 27-40v-127H5v-23h24l9-43h21v43h35v23H59v120" id="aR"/><g id="l"><use transform="matrix(0.05,0,0,0.05,0,0)" xlink:href="#aO"/><use transform="matrix(0.05,0,0,0.05,12,0)" xlink:href="#aJ"/><use transform="matrix(0.05,0,0,0.05,22,0)" xlink:href="#aK"/><use transform="matrix(0.05,0,0,0.05,32,0)" xlink:href="#aP"/><use transform="matrix(0.05,0,0,0.05,42,0)" xlink:href="#aQ"/><use transform="matrix(0.05,0,0,0.05,52,0)" xlink:href="#aR"/></g><path fill="#5a6c86" d="M233-177c-1 41-23 64-60 70L243 0h-38l-65-103H63V0H30v-248c88 3 205-21 203 71zM63-129c60-2 137 13 137-47 0-61-80-42-137-45v92" id="aS"/><path fill="#5a6c86" d="M30-248c118-7 216 8 213 122C240-48 200 0 122 0H30v-248zM63-27c89 8 146-16 146-99s-60-101-146-95v194" id="aT"/><path fill="#5a6c86" d="M185-189c-5-48-123-54-124 2 14 75 158 14 163 119 3 78-121 87-175 55-17-10-28-26-33-46l33-7c5 56 141 63 141-1 0-78-155-14-162-118-5-82 145-84 179-34 5 7 8 16 11 25" id="aU"/><g id="m"><use transform="matrix(0.05,0,0,0.05,0,0)" xlink:href="#aS"/><use transform="matrix(0.05,0,0,0.05,12.950000000000001,0)" xlink:href="#aT"/><use transform="matrix(0.05,0,0,0.05,25.900000000000002,0)" xlink:href="#aU"/></g><path fill="#5a6c86" d="M115-194c55 1 70 41 70 98S169 2 115 4C84 4 66-9 55-30l1 105H24l-1-265h31l2 30c10-21 28-34 59-34zm-8 174c40 0 45-34 45-75s-6-73-45-74c-42 0-51 32-51 76 0 43 10 73 51 73" id="aV"/><path fill="#5a6c86" d="M179-190L93 31C79 59 56 82 12 73V49c39 6 53-20 64-50L1-190h34L92-34l54-156h33" id="aW"/><path fill="#5a6c86" d="M210-169c-67 3-38 105-44 169h-31v-121c0-29-5-50-35-48C34-165 62-65 56 0H25l-1-190h30c1 10-1 24 2 32 10-44 99-50 107 0 11-21 27-35 58-36 85-2 47 119 55 194h-31v-121c0-29-5-49-35-48" id="aX"/><path fill="#5a6c86" d="M59-47c-2 24 18 29 38 22v24C64 9 27 4 27-40v-127H5v-23h24l9-43h21v43h35v23H59v120" id="aY"/><g id="n"><use transform="matrix(0.05,0,0,0.05,0,0)" xlink:href="#aj"/><use transform="matrix(0.05,0,0,0.05,10,0)" xlink:href="#ao"/><use transform="matrix(0.05,0,0,0.05,20,0)" xlink:href="#aV"/><use transform="matrix(0.05,0,0,0.05,30,0)" xlink:href="#al"/><use transform="matrix(0.05,0,0,0.05,33.95,0)" xlink:href="#ah"/><use transform="matrix(0.05,0,0,0.05,43.95,0)" xlink:href="#aW"/><use transform="matrix(0.05,0,0,0.05,52.95,0)" xlink:href="#aX"/><use transform="matrix(0.05,0,0,0.05,67.9,0)" xlink:href="#ao"/><use transform="matrix(0.05,0,0,0.05,77.9,0)" xlink:href="#am"/><use transform="matrix(0.05,0,0,0.05,87.9,0)" xlink:href="#aY"/></g><path fill="#666" d="M199 0l-22-63H83L61 0H9l90-248h61L250 0h-51zm-33-102l-36-108c-10 38-24 72-36 108h72" id="aZ"/><path fill="#666" d="M128 0H69L1-190h53L99-40l48-150h52" id="ba"/><path fill="#666" d="M133-34C117-15 103 5 69 4 32 3 11-16 11-54c-1-60 55-63 116-61 1-26-3-47-28-47-18 1-26 9-28 27l-52-2c7-38 36-58 82-57s74 22 75 68l1 82c-1 14 12 18 25 15v27c-30 8-71 5-69-32zm-48 3c29 0 43-24 42-57-32 0-66-3-65 30 0 17 8 27 23 27" id="bb"/><path fill="#666" d="M25-224v-37h50v37H25zM25 0v-190h50V0H25" id="bc"/><path fill="#666" d="M25 0v-261h50V0H25" id="bd"/><path fill="#666" d="M135-194c52 0 70 43 70 98 0 56-19 99-73 100-30 1-46-15-58-35L72 0H24l1-261h50v104c11-23 29-37 60-37zM114-30c31 0 40-27 40-66 0-37-7-63-39-63s-41 28-41 65c0 36 8 64 40 64" id="be"/><path fill="#666" d="M115-3C79 11 28 4 28-45v-112H4v-33h27l15-45h31v45h36v33H77v99c-1 23 16 31 38 25v30" id="bf"/><path fill="#666" d="M123 10C108 53 80 86 19 72V37c35 8 53-11 59-39L3-190h52l48 148c12-52 28-100 44-148h51" id="bg"/><g id="o"><use transform="matrix(0.04938271604938272,0,0,0.04938271604938272,0,0)" xlink:href="#aZ"/><use transform="matrix(0.04938271604938272,0,0,0.04938271604938272,12.14814814814815,0)" xlink:href="#ba"/><use transform="matrix(0.04938271604938272,0,0,0.04938271604938272,22.024691358024697,0)" xlink:href="#bb"/><use transform="matrix(0.04938271604938272,0,0,0.04938271604938272,31.90123456790124,0)" xlink:href="#bc"/><use transform="matrix(0.04938271604938272,0,0,0.04938271604938272,36.83950617283951,0)" xlink:href="#bd"/><use transform="matrix(0.04938271604938272,0,0,0.04938271604938272,41.777777777777786,0)" xlink:href="#bb"/><use transform="matrix(0.04938271604938272,0,0,0.04938271604938272,51.65432098765432,0)" xlink:href="#be"/><use transform="matrix(0.04938271604938272,0,0,0.04938271604938272,62.469135802469154,0)" xlink:href="#bc"/><use transform="matrix(0.04938271604938272,0,0,0.04938271604938272,67.40740740740742,0)" xlink:href="#bd"/><use transform="matrix(0.04938271604938272,0,0,0.04938271604938272,72.3456790123457,0)" xlink:href="#bc"/><use transform="matrix(0.04938271604938272,0,0,0.04938271604938272,77.28395061728398,0)" xlink:href="#bf"/><use transform="matrix(0.04938271604938272,0,0,0.04938271604938272,83.16049382716052,0)" xlink:href="#bg"/></g><path fill="#666" d="M210 0H11v-37l134-170H24v-41h178v36L68-41h142V0" id="bh"/><path fill="#666" d="M110-194c64 0 96 36 96 99 0 64-35 99-97 99-61 0-95-36-95-99 0-62 34-99 96-99zm-1 164c35 0 45-28 45-65 0-40-10-65-43-65-34 0-45 26-45 65 0 36 10 65 43 65" id="bi"/><path fill="#666" d="M135-194c87-1 58 113 63 194h-50c-7-57 23-157-34-157-59 0-34 97-39 157H25l-1-190h47c2 12-1 28 3 38 12-26 28-41 61-42" id="bj"/><path fill="#666" d="M185-48c-13 30-37 53-82 52C43 2 14-33 14-96s30-98 90-98c62 0 83 45 84 108H66c0 31 8 55 39 56 18 0 30-7 34-22zm-45-69c5-46-57-63-70-21-2 6-4 13-4 21h74" id="bk"/><g id="p"><use transform="matrix(0.04938271604938272,0,0,0.04938271604938272,0,0)" xlink:href="#bh"/><use transform="matrix(0.04938271604938272,0,0,0.04938271604938272,10.814814814814815,0)" xlink:href="#bi"/><use transform="matrix(0.04938271604938272,0,0,0.04938271604938272,21.62962962962963,0)" xlink:href="#bj"/><use transform="matrix(0.04938271604938272,0,0,0.04938271604938272,32.44444444444444,0)" xlink:href="#bk"/></g><use transform="matrix(0.04938271604938272,0,0,0.04938271604938272,0,0)" xlink:href="#aZ" id="q"/><path fill="#666" d="M147 0H94L2-248h55l64 206c17-72 42-137 63-206h54" id="bl"/><path fill="#666" d="M24-248c93 1 206-16 204 79-1 75-69 88-152 82V0H24v-248zm52 121c47 0 100 7 100-41 0-47-54-39-100-39v80" id="bm"/><path fill="#666" d="M67-125c0 53 21 87 73 88 37 1 54-22 65-47l45 17C233-25 199 4 140 4 58 4 20-42 15-125 8-235 124-281 211-232c18 10 29 29 36 50l-46 12c-8-25-30-41-62-41-52 0-71 34-72 86" id="bn"/><g id="r"><use transform="matrix(0.04938271604938272,0,0,0.04938271604938272,0,0)" xlink:href="#bl"/><use transform="matrix(0.04938271604938272,0,0,0.04938271604938272,11.851851851851853,0)" xlink:href="#bm"/><use transform="matrix(0.04938271604938272,0,0,0.04938271604938272,23.703703703703706,0)" xlink:href="#bn"/></g><path fill="#666" d="M27 0v-27h64v-190l-56 39v-29l58-41h29v221h61V0H27" id="bo"/><path fill="#666" d="M101-251c68 0 85 55 85 127S166 4 100 4C33 4 14-52 14-124c0-73 17-127 87-127zm-1 229c47 0 54-49 54-102s-4-102-53-102c-51 0-55 48-55 102 0 53 5 102 54 102" id="bp"/><path fill="#666" d="M33 0v-38h34V0H33" id="bq"/><path fill="#666" d="M0 4l72-265h28L28 4H0" id="br"/><path fill="#666" d="M110-160c48 1 74 30 74 79 0 53-28 85-80 85-65 0-83-55-86-122-5-90 50-162 133-122 14 7 22 21 27 39l-31 6c-5-40-67-38-82-6-9 19-15 44-15 74 11-20 30-34 60-33zm-7 138c34 0 49-23 49-58s-16-56-50-56c-29 0-50 16-49 49 1 36 15 65 50 65" id="bs"/><g id="s"><use transform="matrix(0.04320987654320988,0,0,0.04320987654320988,0,0)" xlink:href="#bo"/><use transform="matrix(0.04320987654320988,0,0,0.04320987654320988,8.641975308641976,0)" xlink:href="#bp"/><use transform="matrix(0.04320987654320988,0,0,0.04320987654320988,17.283950617283953,0)" xlink:href="#bq"/><use transform="matrix(0.04320987654320988,0,0,0.04320987654320988,21.60493827160494,0)" xlink:href="#bp"/><use transform="matrix(0.04320987654320988,0,0,0.04320987654320988,30.24691358024692,0)" xlink:href="#bq"/><use transform="matrix(0.04320987654320988,0,0,0.04320987654320988,34.567901234567906,0)" xlink:href="#bp"/><use transform="matrix(0.04320987654320988,0,0,0.04320987654320988,43.20987654320988,0)" xlink:href="#bq"/><use transform="matrix(0.04320987654320988,0,0,0.04320987654320988,47.53086419753087,0)" xlink:href="#bp"/><use transform="matrix(0.04320987654320988,0,0,0.04320987654320988,56.17283950617284,0)" xlink:href="#br"/><use transform="matrix(0.04320987654320988,0,0,0.04320987654320988,60.49382716049384,0)" xlink:href="#bo"/><use transform="matrix(0.04320987654320988,0,0,0.04320987654320988,69.13580246913581,0)" xlink:href="#bs"/></g><path fill="#666" d="M275 0h-61l-44-196L126 0H64L0-248h53L97-49l45-199h58l43 199 44-199h52" id="bt"/><path fill="#666" d="M169-182c-1-43-94-46-97-3 18 66 151 10 154 114 3 95-165 93-204 36-6-8-10-19-12-30l50-8c3 46 112 56 116 5-17-69-150-10-154-114-4-87 153-88 188-35 5 8 8 18 10 28" id="bu"/><g id="t"><use transform="matrix(0.04938271604938272,0,0,0.04938271604938272,0,0)" xlink:href="#aZ"/><use transform="matrix(0.04938271604938272,0,0,0.04938271604938272,11.80246913580247,0)" xlink:href="#bt"/><use transform="matrix(0.04938271604938272,0,0,0.04938271604938272,28.543209876543205,0)" xlink:href="#bu"/></g><path fill="#666" d="M85 4C-2 5 27-109 22-190h50c7 57-23 150 33 157 60-5 35-97 40-157h50l1 190h-47c-2-12 1-28-3-38-12 25-28 42-61 42" id="bv"/><path fill="#666" d="M88-194c31-1 46 15 58 34l-1-101h50l1 261h-48c-2-10 0-23-3-31C134-8 116 4 84 4 32 4 16-41 15-95c0-56 19-97 73-99zm17 164c33 0 40-30 41-66 1-37-9-64-41-64s-38 30-39 65c0 43 13 65 39 65" id="bw"/><g id="u"><use transform="matrix(0.04938271604938272,0,0,0.04938271604938272,0,0)" xlink:href="#bn"/><use transform="matrix(0.04938271604938272,0,0,0.04938271604938272,12.790123456790125,0)" xlink:href="#bd"/><use transform="matrix(0.04938271604938272,0,0,0.04938271604938272,17.7283950617284,0)" xlink:href="#bi"/><use transform="matrix(0.04938271604938272,0,0,0.04938271604938272,28.54320987654322,0)" xlink:href="#bv"/><use transform="matrix(0.04938271604938272,0,0,0.04938271604938272,39.35802469135803,0)" xlink:href="#bw"/></g><path fill="#666" d="M33 0v-248h34V0H33" id="bx"/><path fill="#666" d="M117-194c89-4 53 116 60 194h-32v-121c0-31-8-49-39-48C34-167 62-67 57 0H25l-1-190h30c1 10-1 24 2 32 11-22 29-35 61-36" id="by"/><path fill="#666" d="M59-47c-2 24 18 29 38 22v24C64 9 27 4 27-40v-127H5v-23h24l9-43h21v43h35v23H59v120" id="bz"/><path fill="#666" d="M100-194c63 0 86 42 84 106H49c0 40 14 67 53 68 26 1 43-12 49-29l28 8c-11 28-37 45-77 45C44 4 14-33 15-96c1-61 26-98 85-98zm52 81c6-60-76-77-97-28-3 7-6 17-6 28h103" id="bA"/><path fill="#666" d="M114-163C36-179 61-72 57 0H25l-1-190h30c1 12-1 29 2 39 6-27 23-49 58-41v29" id="bB"/><g id="v"><use transform="matrix(0.04938271604938272,0,0,0.04938271604938272,0,0)" xlink:href="#bx"/><use transform="matrix(0.04938271604938272,0,0,0.04938271604938272,4.938271604938272,0)" xlink:href="#by"/><use transform="matrix(0.04938271604938272,0,0,0.04938271604938272,14.814814814814817,0)" xlink:href="#bz"/><use transform="matrix(0.04938271604938272,0,0,0.04938271604938272,19.75308641975309,0)" xlink:href="#bA"/><use transform="matrix(0.04938271604938272,0,0,0.04938271604938272,29.629629629629633,0)" xlink:href="#bB"/><use transform="matrix(0.04938271604938272,0,0,0.04938271604938272,35.50617283950618,0)" xlink:href="#by"/><use transform="matrix(0.04938271604938272,0,0,0.04938271604938272,45.38271604938272,0)" xlink:href="#bA"/><use transform="matrix(0.04938271604938272,0,0,0.04938271604938272,55.25925925925927,0)" xlink:href="#bz"/></g><path fill="#666" d="M143 4C61 4 22-44 18-125c-5-107 100-154 193-111 17 8 29 25 37 43l-32 9c-13-25-37-40-76-40-61 0-88 39-88 99 0 61 29 100 91 101 35 0 62-11 79-27v-45h-74v-28h105v86C228-13 192 4 143 4" id="bC"/><path fill="#666" d="M141-36C126-15 110 5 73 4 37 3 15-17 15-53c-1-64 63-63 125-63 3-35-9-54-41-54-24 1-41 7-42 31l-33-3c5-37 33-52 76-52 45 0 72 20 72 64v82c-1 20 7 32 28 27v20c-31 9-61-2-59-35zM48-53c0 20 12 33 32 33 41-3 63-29 60-74-43 2-92-5-92 41" id="bD"/><path fill="#666" d="M206 0h-36l-40-164L89 0H53L-1-190h32L70-26l43-164h34l41 164 42-164h31" id="bE"/><path fill="#666" d="M179-190L93 31C79 59 56 82 12 73V49c39 6 53-20 64-50L1-190h34L92-34l54-156h33" id="bF"/><g id="w"><use transform="matrix(0.04938271604938272,0,0,0.04938271604938272,0,0)" xlink:href="#bC"/><use transform="matrix(0.04938271604938272,0,0,0.04938271604938272,13.827160493827162,0)" xlink:href="#bD"/><use transform="matrix(0.04938271604938272,0,0,0.04938271604938272,23.703703703703706,0)" xlink:href="#bz"/><use transform="matrix(0.04938271604938272,0,0,0.04938271604938272,28.641975308641978,0)" xlink:href="#bA"/><use transform="matrix(0.04938271604938272,0,0,0.04938271604938272,38.51851851851852,0)" xlink:href="#bE"/><use transform="matrix(0.04938271604938272,0,0,0.04938271604938272,51.308641975308646,0)" xlink:href="#bD"/><use transform="matrix(0.04938271604938272,0,0,0.04938271604938272,61.18518518518519,0)" xlink:href="#bF"/></g><path fill="#666" d="M30-248c118-7 216 8 213 122C240-48 200 0 122 0H30v-248zM63-27c89 8 146-16 146-99s-60-101-146-95v194" id="bG"/><path fill="#666" d="M190 0L58-211 59 0H30v-248h39L202-35l-2-213h31V0h-41" id="bH"/><path fill="#666" d="M185-189c-5-48-123-54-124 2 14 75 158 14 163 119 3 78-121 87-175 55-17-10-28-26-33-46l33-7c5 56 141 63 141-1 0-78-155-14-162-118-5-82 145-84 179-34 5 7 8 16 11 25" id="bI"/><g id="x"><use transform="matrix(0.04938271604938272,0,0,0.04938271604938272,0,0)" xlink:href="#bG"/><use transform="matrix(0.04938271604938272,0,0,0.04938271604938272,12.790123456790125,0)" xlink:href="#bH"/><use transform="matrix(0.04938271604938272,0,0,0.04938271604938272,25.58024691358025,0)" xlink:href="#bI"/></g><path fill="#666" d="M233-177c-1 41-23 64-60 70L243 0h-38l-65-103H63V0H30v-248c88 3 205-21 203 71zM63-129c60-2 137 13 137-47 0-61-80-42-137-45v92" id="bJ"/><path fill="#666" d="M135-143c-3-34-86-38-87 0 15 53 115 12 119 90S17 21 10-45l28-5c4 36 97 45 98 0-10-56-113-15-118-90-4-57 82-63 122-42 12 7 21 19 24 35" id="bK"/><path fill="#666" d="M100-194c62-1 85 37 85 99 1 63-27 99-86 99S16-35 15-95c0-66 28-99 85-99zM99-20c44 1 53-31 53-75 0-43-8-75-51-75s-53 32-53 75 10 74 51 75" id="bL"/><path fill="#666" d="M24 0v-261h32V0H24" id="bM"/><path fill="#666" d="M84 4C-5 8 30-112 23-190h32v120c0 31 7 50 39 49 72-2 45-101 50-169h31l1 190h-30c-1-10 1-25-2-33-11 22-28 36-60 37" id="bN"/><path fill="#666" d="M24-231v-30h32v30H24zM24 0v-190h32V0H24" id="bO"/><g id="y"><use transform="matrix(0.04938271604938272,0,0,0.04938271604938272,0,0)" xlink:href="#bJ"/><use transform="matrix(0.04938271604938272,0,0,0.04938271604938272,12.790123456790125,0)" xlink:href="#bA"/><use transform="matrix(0.04938271604938272,0,0,0.04938271604938272,22.66666666666667,0)" xlink:href="#bK"/><use transform="matrix(0.04938271604938272,0,0,0.04938271604938272,31.555555555555557,0)" xlink:href="#bL"/><use transform="matrix(0.04938271604938272,0,0,0.04938271604938272,41.4320987654321,0)" xlink:href="#bM"/><use transform="matrix(0.04938271604938272,0,0,0.04938271604938272,45.333333333333336,0)" xlink:href="#bN"/><use transform="matrix(0.04938271604938272,0,0,0.04938271604938272,55.20987654320988,0)" xlink:href="#bz"/><use transform="matrix(0.04938271604938272,0,0,0.04938271604938272,60.14814814814815,0)" xlink:href="#bO"/><use transform="matrix(0.04938271604938272,0,0,0.04938271604938272,64.0493827160494,0)" xlink:href="#bL"/><use transform="matrix(0.04938271604938272,0,0,0.04938271604938272,73.92592592592594,0)" xlink:href="#by"/></g><path fill="#3a414a" d="M33 0v-248h34V0H33" id="bP"/><path fill="#3a414a" d="M114-163C36-179 61-72 57 0H25l-1-190h30c1 12-1 29 2 39 6-27 23-49 58-41v29" id="bQ"/><g id="z"><use transform="matrix(0.06172839506172839,0,0,0.06172839506172839,0,0)" xlink:href="#bP"/><use transform="matrix(0.06172839506172839,0,0,0.06172839506172839,6.172839506172839,0)" xlink:href="#ax"/><use transform="matrix(0.06172839506172839,0,0,0.06172839506172839,18.51851851851852,0)" xlink:href="#az"/><use transform="matrix(0.06172839506172839,0,0,0.06172839506172839,24.691358024691358,0)" xlink:href="#ay"/><use transform="matrix(0.06172839506172839,0,0,0.06172839506172839,37.03703703703704,0)" xlink:href="#bQ"/><use transform="matrix(0.06172839506172839,0,0,0.06172839506172839,44.382716049382715,0)" xlink:href="#ax"/><use transform="matrix(0.06172839506172839,0,0,0.06172839506172839,56.72839506172839,0)" xlink:href="#ay"/><use transform="matrix(0.06172839506172839,0,0,0.06172839506172839,69.07407407407408,0)" xlink:href="#az"/></g><g id="A"><use transform="matrix(0.04938271604938272,0,0,0.04938271604938272,0,0)" xlink:href="#aZ"/><use transform="matrix(0.04938271604938272,0,0,0.04938271604938272,12.14814814814815,0)" xlink:href="#ba"/><use transform="matrix(0.04938271604938272,0,0,0.04938271604938272,22.024691358024697,0)" xlink:href="#bb"/><use transform="matrix(0.04938271604938272,0,0,0.04938271604938272,31.90123456790124,0)" xlink:href="#bc"/><use transform="matrix(0.04938271604938272,0,0,0.04938271604938272,36.83950617283951,0)" xlink:href="#bd"/><use transform="matrix(0.04938271604938272,0,0,0.04938271604938272,41.777777777777786,0)" xlink:href="#bb"/><use transform="matrix(0.04938271604938272,0,0,0.04938271604938272,51.65432098765432,0)" xlink:href="#be"/><use transform="matrix(0.04938271604938272,0,0,0.04938271604938272,62.469135802469154,0)" xlink:href="#bc"/><use transform="matrix(0.04938271604938272,0,0,0.04938271604938272,67.40740740740742,0)" xlink:href="#bd"/><use transform="matrix(0.04938271604938272,0,0,0.04938271604938272,72.3456790123457,0)" xlink:href="#bc"/><use transform="matrix(0.04938271604938272,0,0,0.04938271604938272,77.28395061728398,0)" xlink:href="#bf"/><use transform="matrix(0.04938271604938272,0,0,0.04938271604938272,83.16049382716052,0)" xlink:href="#bg"/></g><g id="B"><use transform="matrix(0.04938271604938272,0,0,0.04938271604938272,0,0)" xlink:href="#bh"/><use transform="matrix(0.04938271604938272,0,0,0.04938271604938272,10.814814814814815,0)" xlink:href="#bi"/><use transform="matrix(0.04938271604938272,0,0,0.04938271604938272,21.62962962962963,0)" xlink:href="#bj"/><use transform="matrix(0.04938271604938272,0,0,0.04938271604938272,32.44444444444444,0)" xlink:href="#bk"/></g><path fill="#666" d="M182-130c37 4 62 22 62 59C244 23 116-4 24 0v-248c84 5 203-23 205 63 0 31-19 50-47 55zM76-148c40-3 101 13 101-30 0-44-60-28-101-31v61zm0 110c48-3 116 14 116-37 0-48-69-32-116-35v72" id="bR"/><use transform="matrix(0.04938271604938272,0,0,0.04938271604938272,0,0)" xlink:href="#bR" id="C"/><use transform="matrix(0.04938271604938272,0,0,0.04938271604938272,0,0)" xlink:href="#bn" id="D"/><path fill="#3a414a" d="M205 0l-28-72H64L36 0H1l101-248h38L239 0h-34zm-38-99l-47-123c-12 45-31 82-46 123h93" id="bS"/><path fill="#3a414a" d="M210-169c-67 3-38 105-44 169h-31v-121c0-29-5-50-35-48C34-165 62-65 56 0H25l-1-190h30c1 10-1 24 2 32 10-44 99-50 107 0 11-21 27-35 58-36 85-2 47 119 55 194h-31v-121c0-29-5-49-35-48" id="bT"/><path fill="#3a414a" d="M141-36C126-15 110 5 73 4 37 3 15-17 15-53c-1-64 63-63 125-63 3-35-9-54-41-54-24 1-41 7-42 31l-33-3c5-37 33-52 76-52 45 0 72 20 72 64v82c-1 20 7 32 28 27v20c-31 9-61-2-59-35zM48-53c0 20 12 33 32 33 41-3 63-29 60-74-43 2-92-5-92 41" id="bU"/><path fill="#3a414a" d="M9 0v-24l116-142H16v-24h144v24L44-24h123V0H9" id="bV"/><path fill="#3a414a" d="M100-194c62-1 85 37 85 99 1 63-27 99-86 99S16-35 15-95c0-66 28-99 85-99zM99-20c44 1 53-31 53-75 0-43-8-75-51-75s-53 32-53 75 10 74 51 75" id="bW"/><g id="E"><use transform="matrix(0.06172839506172839,0,0,0.06172839506172839,0,0)" xlink:href="#bS"/><use transform="matrix(0.06172839506172839,0,0,0.06172839506172839,14.814814814814813,0)" xlink:href="#bT"/><use transform="matrix(0.06172839506172839,0,0,0.06172839506172839,33.2716049382716,0)" xlink:href="#bU"/><use transform="matrix(0.06172839506172839,0,0,0.06172839506172839,45.61728395061728,0)" xlink:href="#bV"/><use transform="matrix(0.06172839506172839,0,0,0.06172839506172839,56.72839506172839,0)" xlink:href="#bW"/><use transform="matrix(0.06172839506172839,0,0,0.06172839506172839,69.07407407407408,0)" xlink:href="#ax"/></g><path fill="#3a414a" d="M30 0v-248h187v28H63v79h144v27H63v87h162V0H30" id="bX"/><path fill="#3a414a" d="M212-179c-10-28-35-45-73-45-59 0-87 40-87 99 0 60 29 101 89 101 43 0 62-24 78-52l27 14C228-24 195 4 139 4 59 4 22-46 18-125c-6-104 99-153 187-111 19 9 31 26 39 46" id="bY"/><path fill="#3a414a" d="M101-251c82-7 93 87 43 132L82-64C71-53 59-42 53-27h129V0H18c2-99 128-94 128-182 0-28-16-43-45-43s-46 15-49 41l-32-3c6-41 34-60 81-64" id="bZ"/><g id="F"><use transform="matrix(0.06172839506172839,0,0,0.06172839506172839,0,0)" xlink:href="#bX"/><use transform="matrix(0.06172839506172839,0,0,0.06172839506172839,14.814814814814813,0)" xlink:href="#bY"/><use transform="matrix(0.06172839506172839,0,0,0.06172839506172839,30.80246913580247,0)" xlink:href="#bZ"/></g><path fill="#3a414a" d="M115-194c55 1 70 41 70 98S169 2 115 4C84 4 66-9 55-30l1 105H24l-1-265h31l2 30c10-21 28-34 59-34zm-8 174c40 0 45-34 45-75s-6-73-45-74c-42 0-51 32-51 76 0 43 10 73 51 73" id="ca"/><g id="G"><use transform="matrix(0.06172839506172839,0,0,0.06172839506172839,0,0)" xlink:href="#bS"/><use transform="matrix(0.06172839506172839,0,0,0.06172839506172839,14.814814814814813,0)" xlink:href="#ca"/><use transform="matrix(0.06172839506172839,0,0,0.06172839506172839,27.160493827160494,0)" xlink:href="#ca"/><use transform="matrix(0.06172839506172839,0,0,0.06172839506172839,39.50617283950617,0)" xlink:href="#at"/><use transform="matrix(0.06172839506172839,0,0,0.06172839506172839,44.382716049382715,0)" xlink:href="#au"/><use transform="matrix(0.06172839506172839,0,0,0.06172839506172839,49.25925925925926,0)" xlink:href="#av"/><use transform="matrix(0.06172839506172839,0,0,0.06172839506172839,60.37037037037037,0)" xlink:href="#bU"/><use transform="matrix(0.06172839506172839,0,0,0.06172839506172839,72.71604938271605,0)" xlink:href="#az"/><use transform="matrix(0.06172839506172839,0,0,0.06172839506172839,78.88888888888889,0)" xlink:href="#au"/><use transform="matrix(0.06172839506172839,0,0,0.06172839506172839,83.76543209876543,0)" xlink:href="#bW"/><use transform="matrix(0.06172839506172839,0,0,0.06172839506172839,96.11111111111111,0)" xlink:href="#ax"/></g><path fill="#3a414a" d="M30 0v-248h33v221h125V0H30" id="cb"/><path fill="#3a414a" d="M85-194c31 0 48 13 60 33l-1-100h32l1 261h-30c-2-10 0-23-3-31C134-8 116 4 85 4 32 4 16-35 15-94c0-66 23-100 70-100zm9 24c-40 0-46 34-46 75 0 40 6 74 45 74 42 0 51-32 51-76 0-42-9-74-50-73" id="cc"/><g id="H"><use transform="matrix(0.06172839506172839,0,0,0.06172839506172839,0,0)" xlink:href="#cb"/><use transform="matrix(0.06172839506172839,0,0,0.06172839506172839,12.345679012345679,0)" xlink:href="#bW"/><use transform="matrix(0.06172839506172839,0,0,0.06172839506172839,24.691358024691358,0)" xlink:href="#bU"/><use transform="matrix(0.06172839506172839,0,0,0.06172839506172839,37.03703703703704,0)" xlink:href="#cc"/></g><path fill="#3a414a" d="M160-131c35 5 61 23 61 61C221 17 115-2 30 0v-248c76 3 177-17 177 60 0 33-19 50-47 57zm-97-11c50-1 110 9 110-42 0-47-63-36-110-37v79zm0 115c55-2 124 14 124-45 0-56-70-42-124-44v89" id="cd"/><g id="I"><use transform="matrix(0.06172839506172839,0,0,0.06172839506172839,0,0)" xlink:href="#cd"/><use transform="matrix(0.06172839506172839,0,0,0.06172839506172839,14.814814814814813,0)" xlink:href="#bU"/><use transform="matrix(0.06172839506172839,0,0,0.06172839506172839,27.160493827160494,0)" xlink:href="#at"/><use transform="matrix(0.06172839506172839,0,0,0.06172839506172839,32.03703703703704,0)" xlink:href="#bU"/><use transform="matrix(0.06172839506172839,0,0,0.06172839506172839,44.382716049382715,0)" xlink:href="#ax"/><use transform="matrix(0.06172839506172839,0,0,0.06172839506172839,56.72839506172839,0)" xlink:href="#av"/><use transform="matrix(0.06172839506172839,0,0,0.06172839506172839,67.8395061728395,0)" xlink:href="#ay"/><use transform="matrix(0.06172839506172839,0,0,0.06172839506172839,80.18518518518519,0)" xlink:href="#bQ"/></g><path fill="#3a414a" d="M233-177c-1 41-23 64-60 70L243 0h-38l-65-103H63V0H30v-248c88 3 205-21 203 71zM63-129c60-2 137 13 137-47 0-61-80-42-137-45v92" id="ce"/><path fill="#3a414a" d="M30-248c118-7 216 8 213 122C240-48 200 0 122 0H30v-248zM63-27c89 8 146-16 146-99s-60-101-146-95v194" id="cf"/><g id="J"><use transform="matrix(0.06172839506172839,0,0,0.06172839506172839,0,0)" xlink:href="#ce"/><use transform="matrix(0.06172839506172839,0,0,0.06172839506172839,15.987654320987653,0)" xlink:href="#cf"/><use transform="matrix(0.06172839506172839,0,0,0.06172839506172839,31.975308641975307,0)" xlink:href="#aw"/></g><path fill="#3a414a" d="M153-248C145-148 188 4 80 4 36 3 13-21 6-62l32-5c4 25 16 42 43 43 27 0 39-20 39-49v-147H72v-28h81" id="cg"/><path fill="#3a414a" d="M0 4l72-265h28L28 4H0" id="ch"/><path fill="#3a414a" d="M135-143c-3-34-86-38-87 0 15 53 115 12 119 90S17 21 10-45l28-5c4 36 97 45 98 0-10-56-113-15-118-90-4-57 82-63 122-42 12 7 21 19 24 35" id="ci"/><g id="K"><use transform="matrix(0.06172839506172839,0,0,0.06172839506172839,0,0)" xlink:href="#cg"/><use transform="matrix(0.06172839506172839,0,0,0.06172839506172839,11.11111111111111,0)" xlink:href="#ar"/><use transform="matrix(0.06172839506172839,0,0,0.06172839506172839,23.45679012345679,0)" xlink:href="#bT"/><use transform="matrix(0.06172839506172839,0,0,0.06172839506172839,41.91358024691358,0)" xlink:href="#ca"/><use transform="matrix(0.06172839506172839,0,0,0.06172839506172839,54.25925925925926,0)" xlink:href="#ch"/><use transform="matrix(0.06172839506172839,0,0,0.06172839506172839,60.4320987654321,0)" xlink:href="#as"/><use transform="matrix(0.06172839506172839,0,0,0.06172839506172839,72.77777777777779,0)" xlink:href="#bU"/><use transform="matrix(0.06172839506172839,0,0,0.06172839506172839,85.12345679012347,0)" xlink:href="#ci"/><use transform="matrix(0.06172839506172839,0,0,0.06172839506172839,96.23456790123458,0)" xlink:href="#az"/><use transform="matrix(0.06172839506172839,0,0,0.06172839506172839,102.40740740740742,0)" xlink:href="#au"/><use transform="matrix(0.06172839506172839,0,0,0.06172839506172839,107.28395061728396,0)" xlink:href="#bW"/><use transform="matrix(0.06172839506172839,0,0,0.06172839506172839,119.62962962962965,0)" xlink:href="#ax"/></g><path fill="#3a414a" d="M106-169C34-169 62-67 57 0H25v-261h32l-1 103c12-21 28-36 61-36 89 0 53 116 60 194h-32v-121c2-32-8-49-39-48" id="cj"/><g id="L"><use transform="matrix(0.06172839506172839,0,0,0.06172839506172839,0,0)" xlink:href="#cj"/><use transform="matrix(0.06172839506172839,0,0,0.06172839506172839,12.345679012345679,0)" xlink:href="#bW"/><use transform="matrix(0.06172839506172839,0,0,0.06172839506172839,24.691358024691358,0)" xlink:href="#ci"/><use transform="matrix(0.06172839506172839,0,0,0.06172839506172839,35.80246913580247,0)" xlink:href="#az"/></g></defs></g></svg>