<svg xmlns="http://www.w3.org/2000/svg" xmlns:xlink="http://www.w3.org/1999/xlink" xmlns:lucid="lucid" width="1717" height="1113"><g transform="translate(721 -1)" lucid:page-tab-id="0_0"><path d="M-420 132.38a6 6 0 0 1 6-6H869.17a6 6 0 0 1 6 6V994a6 6 0 0 1-6 6H-414a6 6 0 0 1-6-6z" fill="#fff" fill-opacity="0"/><path d="M-419.1 129.26l.25-.4.6-.72.72-.6.4-.26m1.73-.7l.46-.12.94-.08h1.5m2 0h3m2 0h2.98m2 0h3m2 0h3m2 0h2.98m2 0h3m2 0h3m2 0h2.98m2 0h3m2 0h3m1.98 0h3m2 0h3m2 0h2.98m2 0h3m2 0h3m2 0h2.98m2 0h3m2 0h3m2 0h2.98m2 0h3m2 0h3m2 0h2.98m2 0h3m2 0h3m1.98 0h3m2 0h3m2 0h3m1.98 0h3m2 0h3m2 0h2.98m2 0h3m2 0h3m2 0h2.98m2 0h3m2 0h3m2 0h2.98m2 0h3m2 0h3m1.98 0h3m2 0h3m2 0h3m1.98 0h3m2 0h3m2 0h2.98m2 0h3m2 0h3m2 0h2.98m2 0h3m2 0h3m2 0h2.98m2 0h3m2 0h3m1.98 0h3m2 0h3m2 0h3m1.98 0h3m2 0h3m2 0h2.98m2 0h3m2 0h3m2 0h2.98m2 0h3m2 0h3m2 0h2.98m2 0h3m2 0h3m1.98 0h3m2 0h3m2 0h3m1.98 0h3m2 0h3m2 0h2.98m2 0h3m2 0h3m2 0h2.98m2 0h3m2 0h3m2 0h2.98m2 0h3m2 0h3m1.98 0h3m2 0h3m2 0h3m1.98 0h3m2 0h3m2 0h2.98m2 0h3m2 0h3m2 0h2.98m2 0h3m2 0h3m2 0h2.98m2 0h3m2 0h3m1.98 0h3m2 0h3m2 0h3m1.98 0h3m2 0h3m2 0h2.98m2 0h3m2 0h3m2 0h2.98m2 0h3m2 0h3m2 0h2.98m2 0h3m2 0h3m1.98 0h3m2 0h3m2 0h3m1.98 0h3m2 0h3m2 0h3m1.98 0h3m2 0h3m2 0h2.98m2 0h3m2 0h3m2 0h2.98m2 0h3m2 0h3m2 0h2.98m2 0h3m2 0h3m1.98 0h3m2 0h3m2 0h3m1.98 0h3m2 0h3m2 0h2.98m2 0h3m2 0h3m2 0h2.98m2 0h3m2 0h3m1.98 0h3m2 0h3m2 0h3m1.98 0h3m2 0h3m2 0h3m1.98 0h3m2 0h3m2 0h2.98m2 0h3m2 0h3m2 0h2.98m2 0h3m2 0h3m2 0h2.98m2 0h3m2 0h3m1.98 0h3m2 0h3m2 0h3m1.98 0h3m2 0h3m2 0h2.98m2 0h3m2 0h3m2 0h2.98m2 0h3m2 0h3m2 0h2.98m2 0h3m2 0h3m1.98 0h3m2 0h3m2 0h3m1.98 0h3m2 0h3m2 0h2.98m2 0h3m2 0h3m2 0h2.98m2 0h3m2 0h3m2 0h2.98m2 0h3m2 0h3m1.98 0h3m2 0h3m2 0h3m1.98 0h3m2 0h3m2 0h2.98m2 0h3m2 0h3m2 0h2.98m2 0h3m2 0h3m2 0h2.98m2 0h3m2 0h3m1.98 0h3m2 0h3m2 0h3m1.98 0h3m2 0h3m2 0h2.98m2 0h3m2 0h3m2 0h2.98m2 0h3m2 0h3m2 0H621m2 0h3m2 0h3m1.98 0h3m2 0h3m2 0h3m1.98 0h3m2 0h3m2 0h2.98m2 0h3m2 0h3m2 0h2.98m2 0h3m2 0h3m2 0h2.98m2 0h3m2 0h3m1.98 0h3m2 0h3m2 0h3m1.98 0h3m2 0h3m2 0h2.98m2 0h3m2 0h3m2 0h2.98m2 0h3m2 0h3m2 0h2.98m2 0h3m2 0h3m1.98 0h3m2 0h3m2 0h3m1.98 0h3m2 0h3m2 0h2.98m2 0h3m2 0h3m2 0h2.98m2 0h3m2 0h3m2 0h2.98m2 0h3m2 0h3m1.98 0h3m2 0h3m2 0h3m1.98 0h3m2 0h3m2 0h1.5l.93.08.46.1m1.73.72l.4.25.7.6.62.73.25.4m.7 1.73l.12.44.07.94v1.5m0 2v3.02m0 2v3m0 2v3m0 2.02v3m0 2v3m0 2.02v3m0 2v3m0 2.02v3m0 2v3m0 2V184m0 2v3m0 2V194m0 2v3m0 2v3.02m0 2v3m0 2v3.02m0 2v3m0 2v3.02m0 2v3m0 2v3m0 2.02v3m0 2v3m0 2.02v3m0 2v3m0 2.02v3m0 2v3m0 2v3.02m0 2v3m0 2v3.02m0 2v3m0 2v3.02m0 2v3m0 2v3.02m0 2v3m0 2v3.02m0 2v3m0 2v3m0 2.02v3m0 2v3m0 2.02v3m0 2v3m0 2.02v3m0 2v3m0 2.02v3m0 2v3m0 2v3.02m0 2v3m0 2v3.02m0 2v3m0 2v3.02m0 2v3m0 2v3m0 2.02v3m0 2v3m0 2.02v3m0 2v3m0 2.02v3m0 2v3m0 2v3.02m0 2v3m0 2v3.02m0 2v3m0 2v3.02m0 2v3m0 2v3.02m0 2v3m0 2v3.02m0 2v3m0 2v3.02m0 2v3m0 2v3m0 2.02v3m0 2v3m0 2.02v3m0 2v3m0 2.02v3m0 2v3m0 2v3.02m0 2v3m0 2v3.02m0 2v3m0 2v3.02m0 2v3m0 2v3.02m0 2v3m0 2v3.02m0 2v3m0 2v3m0 2.02v3m0 2v3m0 2.02v3m0 2v3m0 2v3.02m0 2v3m0 2v3.02m0 2v3m0 2v3.02m0 2v3m0 2v3.02m0 2v3m0 2v3.02m0 2v3m0 2v3m0 2.02v3m0 2v3m0 2.02v3m0 2v3m0 2.02v3m0 2v3m0 2v3.02m0 2v3m0 2v3.02m0 2v3m0 2v3.02m0 2v3m0 2V715m0 2v3m0 2v3m0 2.02v3m0 2v3m0 2.02v3m0 2v3m0 2.02v3m0 2v3m0 2.02v3m0 2v3m0 2v3.02m0 2v3m0 2v3.02m0 2v3m0 2v3.02m0 2v3m0 2v3.02m0 2v3m0 2v3m0 2.02v3m0 2v3m0 2.02v3m0 2v3m0 2.02v3m0 2v3m0 2v3.02m0 2v3m0 2v3.02m0 2v3m0 2v3.02m0 2v3m0 2v3.02m0 2v3m0 2v3.02m0 2v3m0 2v3.02m0 2v3m0 2v3m0 2.02v3m0 2v3m0 2.02v3m0 2v3m0 2v3.02m0 2v3m0 2v3.02m0 2v3m0 2v3.02m0 2v3m0 2v3.02m0 2v3m0 2v3.02m0 2v3m0 2v3m0 2.02v3m0 2v3m0 2.02v1.5l-.08.94-.12.46m-.7 1.73l-.26.4-.6.7-.73.62-.4.25m-1.74.72l-.45.1-.93.08h-1.5m-2 0h-3m-2 0h-3m-1.98 0h-3m-2 0h-3m-2 0h-3m-2 0h-3m-2 0h-2.98m-2 0h-3m-2 0h-3m-1.98 0h-3m-2 0h-3m-2 0h-3m-1.98 0h-3m-2 0h-3m-2 0h-2.98m-2 0h-3m-2 0h-3m-2 0h-2.98m-2 0h-3m-2 0h-3m-2 0h-2.98m-2 0h-3m-2 0h-3m-1.98 0h-3m-2 0h-3m-2 0h-3m-1.98 0h-3m-2 0h-3m-2 0h-2.98m-2 0h-3m-2 0h-3m-2 0h-2.98m-2 0h-3m-2 0h-3m-2 0h-2.98m-2 0h-3m-2 0h-3m-1.98 0h-3m-2 0h-3m-2 0h-3m-1.98 0h-3m-2 0h-3m-2 0H653m-2 0h-3m-2 0h-3m-2 0H638m-2 0h-3m-2 0h-3m-2 0h-2.98m-2 0h-3m-2 0h-3m-2 0h-2.98m-2 0h-3m-2 0h-3m-1.98 0h-3m-2 0h-3m-2 0h-2.98m-2 0h-3m-2 0h-3m-2 0h-2.98m-2 0h-3m-2 0h-3m-2 0h-2.98m-2 0h-3m-2 0h-3m-2 0h-2.98m-2 0h-3m-2 0h-3m-1.98 0h-3m-2 0h-3m-2 0h-3m-1.98 0h-3m-2 0h-3m-2 0h-2.98m-2 0h-3m-2 0h-3m-2 0h-2.98m-2 0h-3m-2 0h-3m-2 0h-2.98m-2 0h-3m-2 0h-3m-1.98 0h-3m-2 0h-3m-2 0h-3m-1.98 0h-3m-2 0h-3m-2 0h-2.98m-2 0h-3m-2 0h-3m-2 0h-2.98m-2 0h-3m-2 0h-3m-2 0h-2.98m-2 0h-3m-2 0h-3m-1.98 0h-3m-2 0h-3m-2 0h-3m-1.98 0h-3m-2 0h-3m-2 0h-2.98m-2 0h-3m-2 0h-3m-2 0h-2.98m-2 0h-3m-2 0h-3m-2 0h-2.98m-2 0h-3m-2 0h-3m-1.98 0h-3m-2 0h-3m-2 0h-2.98m-2 0h-3m-2 0h-3m-2 0h-2.98m-2 0h-3m-2 0h-3m-2 0h-2.98m-2 0h-3m-2 0h-3m-1.98 0h-3m-2 0h-3m-2 0h-3m-1.98 0h-3m-2 0h-3m-2 0h-3m-1.98 0h-3m-2 0h-3m-2 0h-2.98m-2 0h-3m-2 0h-3m-2 0h-2.98m-2 0h-3m-2 0h-3m-2 0h-2.98m-2 0h-3m-2 0h-3m-1.98 0h-3m-2 0h-3m-2 0h-2.98m-2 0h-3m-2 0h-3m-2 0h-2.98m-2 0h-3m-2 0h-3m-2 0h-2.98m-2 0h-3m-2 0h-3m-1.98 0h-3m-2 0h-3m-2 0h-3m-1.98 0h-3m-2 0h-3m-2 0H93.8m-2 0h-3m-2 0h-3m-2 0H78.8m-2 0h-3m-2 0h-3m-2 0h-2.98m-2 0h-3m-2 0h-3m-2 0h-2.98m-2 0h-3m-2 0h-3m-1.98 0h-3m-2 0h-3m-2 0h-3m-1.98 0h-3m-2 0h-3m-2 0H8.9m-2 0h-3m-2 0h-3m-2 0h-2.98m-2 0h-3m-2 0h-3m-2 0h-2.98m-2 0h-3m-2 0h-3m-1.98 0h-3m-2 0h-3m-2 0h-3m-1.98 0h-3m-2 0h-3m-2 0H-61m-2 0h-3m-2 0h-3m-2 0h-2.98m-2 0h-3m-2 0h-3m-2 0h-2.98m-2 0h-3m-2 0h-3m-1.98 0h-3m-2 0h-3m-2 0h-3m-1.98 0h-3m-2 0h-3m-2 0h-2.98m-2 0h-3m-2 0h-3m-2 0h-2.98m-2 0h-3m-2 0h-3m-2 0h-2.98m-2 0h-3m-2 0h-3m-1.98 0h-3m-2 0h-3m-2 0h-3m-1.98 0h-3m-2 0h-3m-2 0h-3m-1.98 0h-3m-2 0h-3m-2 0h-2.98m-2 0h-3m-2 0h-3m-2 0h-2.98m-2 0h-3m-2 0h-3m-2 0h-2.98m-2 0h-3m-2 0h-3m-1.98 0h-3m-2 0h-3m-2 0h-2.98m-2 0h-3m-2 0h-3m-2 0h-2.98m-2 0h-3m-2 0h-3m-2 0h-2.98m-2 0h-3m-2 0h-3m-1.98 0h-3m-2 0h-3m-2 0h-3m-1.98 0h-3m-2 0h-3m-2 0h-3m-1.98 0h-3m-2 0h-3m-2 0h-2.98m-2 0h-3m-2 0h-3m-2 0h-2.98m-2 0h-3m-2 0h-3m-2 0h-2.98m-2 0h-3m-2 0h-3m-1.98 0h-3m-2 0h-3m-2 0h-3m-1.98 0h-1.5l-.94-.07-.46-.1m-1.73-.73l-.4-.25-.7-.6-.62-.72-.25-.4m-.72-1.73l-.1-.46-.08-.94v-1.5m0-2v-3m0-2.02v-3m0-2v-3m0-2v-3.02m0-2v-3m0-2v-3.02m0-2v-3m0-2v-3.02m0-2v-3m0-2v-3.02m0-2v-3m0-2v-3.02m0-2v-3m0-2v-3m0-2.02v-3m0-2v-3m0-2.02v-3m0-2v-3m0-2.02v-3m0-2v-3m0-2v-3.02m0-2v-3m0-2v-3.02m0-2v-3m0-2v-3.02m0-2v-3m0-2v-3.02m0-2v-3m0-2v-3m0-2.02v-3m0-2v-3m0-2.02v-3m0-2v-3m0-2.02v-3m0-2v-3m0-2v-3.02m0-2v-3m0-2v-3.02m0-2v-3m0-2v-3.02m0-2v-3m0-2v-3.02m0-2v-3m0-2v-3.02m0-2v-3m0-2v-3m0-2.02v-3m0-2v-3m0-2.02v-3m0-2v-3m0-2.02v-3m0-2v-3m0-2V727m0-2v-3m0-2v-3.02m0-2v-3m0-2v-3.02m0-2v-3m0-2v-3.02m0-2v-3m0-2v-3.02m0-2v-3m0-2v-3m0-2.02v-3m0-2v-3m0-2.02v-3m0-2v-3m0-2.02v-3m0-2v-3m0-2v-3.02m0-2v-3m0-2v-3.02m0-2v-3m0-2v-3.02m0-2v-3m0-2v-3.02m0-2v-3m0-2v-3.02m0-2v-3m0-2v-3m0-2.02v-3m0-2v-3m0-2.02v-3m0-2v-3m0-2.02v-3m0-2v-3m0-2.02v-3m0-2v-3m0-2v-3.02m0-2v-3m0-2v-3.02m0-2v-3m0-2v-3.02m0-2v-3m0-2v-3m0-2.02v-3m0-2v-3m0-2.02v-3m0-2v-3m0-2.02v-3m0-2v-3m0-2.02v-3m0-2v-3m0-2v-3.02m0-2v-3m0-2v-3.02m0-2v-3m0-2v-3.02m0-2v-3m0-2v-3.02m0-2v-3m0-2v-3m0-2.02v-3m0-2v-3m0-2.02v-3m0-2v-3m0-2.02v-3m0-2v-3m0-2v-3.02m0-2v-3m0-2v-3.02m0-2v-3m0-2v-3.02m0-2v-3m0-2v-3.02m0-2v-3m0-2v-3.02m0-2v-3m0-2v-3m0-2.02v-3m0-2v-3m0-2.02v-3m0-2v-3m0-2.02v-3m0-2v-3m0-2v-3.02m0-2v-3m0-2v-3.02m0-2v-3m0-2v-3.02m0-2v-3m0-2v-3.02m0-2v-3m0-2v-3.02m0-2v-3m0-2v-3m0-2.02v-3m0-2v-3m0-2.02v-3m0-2v-3m0-2.02v-3m0-2v-3m0-2.02v-3m0-2v-3m0-2v-3.02m0-2v-3m0-2V206m0-2v-3m0-2V196m0-2v-3m0-2v-3.02m0-2v-3m0-2v-3m0-2.02v-3m0-2v-3m0-2.02v-3m0-2v-3m0-2.02v-3m0-2v-3m0-2v-3.02m0-2v-3m0-2v-1.52l.07-.94.1-.45" stroke="#147eba" fill="none"/><path d="M-420 126.38h56v56h-56v-56z" stroke="#fff" stroke-opacity="0" fill="#147eba"/><path d="M-376.16 155.75l-5.96-7.37 5.96-7.4h-26.17v-2.08c.98-.32 1.62-1.15 1.62-2.2-.1-1.14-1.03-2.02-2.17-2.14-1.3-.08-2.44.88-2.53 2.15 0 1.05.63 1.88 1.58 2.2v33.9h-4.02v1.58h9.44v-1.6h-3.93v-17.03zM-403.12 136c.4-.04.76.3.76.7 0 .45-.32.77-.73.77-.4.04-.75-.32-.75-.72v-.04c0-.4.32-.7.73-.7zm23.6 6.6l-4.66 5.78 4.66 5.73h-22.8v-11.5z" stroke="#fff" stroke-opacity="0" fill="#fff"/><use xlink:href="#a" transform="matrix(1,0,0,1,-349,146.38391775677928) translate(0 14.4)"/><path d="M-452.03 558.3h57.14" stroke="#666" fill="none"/><path d="M-452.02 558.8h-.5v-1h.5z" stroke="#666" stroke-width=".05" fill="#666"/><path d="M-380.1 558.3l-14.28 4.63v-9.27z" stroke="#666" fill="#666"/><path d="M-311.66 380H780v380H-311.66z" fill="#fff" fill-opacity="0"/><path d="M-299.62 380h8.03m8.03 0h8.03m8.03 0h8m8.04 0h8.03m8.03 0h8.02m8.03 0h8.03m8.02 0h8.03m8.03 0h8.02m8.03 0h8.04m8.02 0h8.03m8.02 0h8.03m8.02 0h8.03m8.03 0h8.02m8.03 0h8.03m8.03 0h8.03m8.03 0h8m8.04 0h8.03m8.02 0h8.02m8.03 0h8.03m8.02 0h8.03m8.03 0h8.02m8.03 0h8.04m8.02 0h8.03m8.02 0h8.02m8.03 0h8.03m8.03 0h8.02m8.03 0h8.03m8.03 0h8.03m8.03 0h8m8.04 0h8.03m8.03 0h8.02m8.03 0h8.02m8.03 0h8.03m8.03 0h8.02m8.03 0h8.04m8.02 0h8.03m8.02 0h8.03m8.02 0h8.03m8.03 0h8.02m8.03 0h8.03m8.03 0h8.03m8.03 0h8m8.04 0h8.03m8.02 0h8.02m8.03 0h8.02m8.03 0h8.03m8.03 0h8.02m8.03 0h8.04m8.02 0H479m8.02 0h8.02m8.03 0h8.03m8.02 0h8.03m8.03 0h8.03m8.03 0h8.03m8.03 0h8m8.04 0h8.03m8.02 0h8.02m8.03 0h8.02m8.03 0h8.03m8.03 0h8.02m8.03 0h8.04m8.02 0h8.03m8.02 0h8.02m8.03 0h8.03m8.03 0h8.02m8.03 0h8.03m8.03 0h8.03m8.03 0h4v3.96m0 7.92v7.9m0 7.93v7.93m0 7.9v7.93m0 7.92v7.9m0 7.93v7.93m0 7.9v7.93m0 7.92v7.9m0 7.93v7.93m0 7.9v7.93m0 7.9v7.93m0 7.9v7.92m0 7.92v7.92m0 7.9v7.93m0 7.9v7.92m0 7.92v7.92m0 7.9v7.93m0 7.9v7.92m0 7.92v7.92m0 7.9v7.93m0 7.9v7.92m0 7.92v7.92m0 7.9v7.93m0 7.9v7.92m0 7.92V760h-4m-8.04 0h-8.03m-8.02 0h-8.02m-8.03 0h-8.02m-8.03 0h-8.03m-8.03 0h-8.02m-8.03 0h-8.04m-8.02 0h-8.03m-8.02 0h-8.02m-8.03 0h-8.03m-8.02 0h-8.03m-8.03 0h-8.03m-8.03 0h-8.03m-8.03 0h-8m-8.04 0h-8.03m-8.02 0h-8.02m-8.03 0h-8.02m-8.03 0h-8.03m-8.03 0h-8.02m-8.03 0h-8.04m-8.02 0h-8.03m-8.02 0h-8.02m-8.03 0h-8.03m-8.03 0h-8.02m-8.03 0h-8.03m-8.03 0h-8.03m-8.03 0h-8m-8.04 0h-8.03m-8.02 0h-8.02m-8.03 0h-8.02m-8.03 0h-8.03m-8.02 0h-8.03m-8.03 0h-8.04m-8.02 0h-8.03m-8.02 0h-8.02m-8.03 0h-8.03m-8.03 0h-8.02m-8.03 0H182m-8.03 0h-8.03m-8.03 0h-8m-8.04 0h-8.03m-8.02 0h-8.02m-8.03 0h-8.02m-8.03 0h-8.03m-8.03 0h-8.02m-8.03 0h-8.04m-8.02 0H37.5m-8.02 0h-8.02m-8.03 0H5.4m-8.02 0h-8.03m-8.03 0h-8.02m-8.03 0h-8.03m-8.03 0h-8m-8.04 0h-8.03m-8.02 0h-8.02m-8.03 0h-8.02m-8.03 0h-8.03m-8.03 0h-8.02m-8.03 0h-8.04m-8.02 0h-8.03m-8.02 0h-8.02m-8.03 0h-8.03m-8.02 0h-8.03m-8.03 0h-8.03m-8.03 0h-8.03m-8.03 0h-8m-8.04 0h-8.03m-8.02 0h-8.02m-8.03 0h-4v-3.96m0-7.9v-7.93m0-7.9v-7.92m0-7.92v-7.92m0-7.9v-7.93m0-7.9v-7.92m0-7.92v-7.92m0-7.9v-7.93m0-7.9v-7.92m0-7.92v-7.92m0-7.9v-7.93m0-7.9v-7.92m0-7.92v-7.92m0-7.9v-7.93m0-7.9v-7.92m0-7.92v-7.92m0-7.9v-7.93m0-7.9v-7.93m0-7.9v-7.93m0-7.92v-7.9m0-7.93v-7.93m0-7.9v-7.93m0-7.92v-7.9m0-7.93v-7.93m0-7.9V380h4" stroke="#147eba" stroke-width="2" fill="none"/><path d="M-311.56 760V380h33.18v380z" stroke="#000" stroke-opacity="0" stroke-width="2" fill="#fff" fill-opacity="0"/><use xlink:href="#b" transform="matrix(6.123233995736766e-17,-1,1,6.123233995736766e-17,-306.56084193380616,755) translate(105.98765432098763 23.342222222222226)"/><use xlink:href="#c" transform="matrix(6.123233995736766e-17,-1,1,6.123233995736766e-17,-306.56084193380616,755) translate(203.962962962963 23.342222222222226)"/><use xlink:href="#d" transform="matrix(6.123233995736766e-17,-1,1,6.123233995736766e-17,-306.56084193380616,755) translate(251.22222222222223 23.342222222222226)"/><path d="M40 470h360v200H40z" fill="#248814" fill-opacity=".13"/><path d="M40 470h56v56H40v-56z" stroke="#fff" stroke-opacity="0" fill="#248814"/><path d="M83.38 492.18c-.15-.17-.34-.25-.56-.25h-5.15v-5.58c-.03-2.54-.97-4.7-2.84-6.4-1.9-1.83-4.15-2.75-6.77-2.75-2.65 0-4.9.83-6.8 2.62-1.9 1.7-2.87 3.87-2.9 6.4v5.66H53.2c-.24 0-.43.1-.58.25-.16.17-.22.34-.22.6V518c0 .43.34.8.8.8h29.6c.46 0 .8-.37.8-.8v-25.28c0-.2-.06-.38-.22-.54zm-23.46-5.9c.03-2.13.8-3.88 2.37-5.3 1.6-1.5 3.52-2.2 5.73-2.2 2.22 0 4.12.75 5.7 2.25 1.54 1.4 2.32 3.2 2.32 5.32v5.58H59.9zm22.1 30.94H53.98v-23.7h28z" stroke="#fff" stroke-opacity="0" fill="#fff"/><path d="M67.2 507.3v6.25h1.6v-6.23c2.13-.4 3.62-2.2 3.63-4.35 0-2.43-1.97-4.4-4.4-4.43-2.2-.03-4.06 1.5-4.44 3.68-.42 2.4 1.2 4.68 3.6 5.1zm.82-7.15c.78 0 1.44.27 2 .83.54.55.82 1.2.8 2 .03 1.54-1.2 2.8-2.74 2.8h-.06c-1.56.13-2.92-1.04-3.04-2.6-.12-1.56 1.05-2.93 2.6-3.03.16-.02.28-.02.44 0z" stroke="#fff" stroke-opacity="0" fill="#fff"/><use xlink:href="#e" transform="matrix(1,0,0,1,111,490.0000000000001) translate(0 14.222222222222223)"/><use xlink:href="#f" transform="matrix(1,0,0,1,111,490.0000000000001) translate(53.23456790123458 14.222222222222223)"/><use xlink:href="#g" transform="matrix(1,0,0,1,111,490.0000000000001) translate(114.46913580246915 14.222222222222223)"/><path d="M-586.23 490.76H-564a12 12 0 0 1 12 12v43.54a12 12 0 0 0 12 12h6.33M-586.2 490.76h-.53" stroke="#666" fill="none"/><path d="M-518.9 558.3l-14.27 4.63v-9.27z" stroke="#666" fill="#666"/><path d="M-240 190h920v750h-920z" stroke="#248814" stroke-width="2" fill-opacity="0"/><path d="M-240 190h56v56h-56v-56z" stroke="#fff" stroke-opacity="0" fill="#248814"/><path d="M-208.24 218.3h-1.18v-1.1c-.12-1.73-1.48-3.07-3.2-3.2-1.9-.13-3.54 1.3-3.67 3.2v1.07h-1.17c-.44 0-.8.36-.8.8v6.13c0 .44.36.8.8.8h9.23c.44 0 .8-.36.8-.8v-6.1c0-.44-.36-.8-.8-.8zm-6.4-1.06c.1-1.03 1-1.77 2-1.67.9.08 1.58.77 1.67 1.67v1.06h-3.72zm5.65 7.08h-7.67v-4.42h7.63z" stroke="#fff" stroke-opacity="0" fill="#fff"/><path d="M-197.73 215.75c-.1-2.45-1.58-4.48-3.87-5.3-1.58-.47-3.16-.14-4.4.9-.68-1.45-1.47-2.6-2.6-3.76-3.24-3.36-7.94-4.3-12.18-2.4-4.04 1.9-6.4 5.63-6.54 10.05v.7c-3.4.98-5.66 4.08-5.5 7.65v.63c.38 4.28 3.92 7.52 8.2 7.47h26s7.42-.63 7.42-8.1c.04-3.9-2.66-7.2-6.53-7.85zm-.96 14.38h-25.9c-3.47.06-6.3-2.52-6.6-5.96v-.52c-.15-3.05 1.93-5.7 4.92-6.3.38-.12.63-.48.6-.9-.06-.4-.06-.73 0-1.14.07-3.78 2.1-6.94 5.52-8.6 1.25-.56 2.4-.8 3.83-.84 2.62.08 4.87 1.04 6.7 2.94 1.25 1.3 2.04 2.6 2.62 4.3.03.15.1.28.24.37.37.27.87.2 1.12-.17.83-1.18 2.25-1.67 3.62-1.3 1.8.72 2.87 2.4 2.83 4.32-.07.4.22.83.64.9 3.57.36 6.2 3.55 5.82 7.12-.3 3.13-2.7 5.52-5.82 5.85z" stroke="#fff" stroke-opacity="0" fill="#fff"/><use xlink:href="#h" transform="matrix(1,0,0,1,-169,210.0000000000001) translate(0 14.222222222222223)"/><use xlink:href="#i" transform="matrix(1,0,0,1,-169,210.0000000000001) translate(0 33.777777777777786)"/><path d="M-484.83 53.04h1420v1000h-1420z" stroke="#232f3e" stroke-width="2" fill-opacity="0"/><path d="M-484.83 53.04h56v56h-56v-56z" stroke="#fff" stroke-opacity="0" fill="#232f3e"/><path d="M-466.6 78.9c-.05.5.03.88.16 1.35.12.38.28.7.5 1.07.03.1.07.2.07.33 0 .2-.12.35-.3.45l-.93.62c-.13.1-.25.13-.37.13-.17 0-.33-.07-.45-.2-.2-.22-.37-.44-.54-.7-.16-.26-.3-.54-.45-.87-1.12 1.37-2.64 2.1-4.4 2.06-1.15.06-2.14-.3-2.96-1.08-.78-.8-1.15-1.76-1.1-2.85-.05-1.22.4-2.27 1.35-3.07 1.06-.84 2.3-1.22 3.64-1.15.58 0 1.03.02 1.6.1.58.1 1.1.2 1.73.33v-1.08c.08-.9-.17-1.68-.7-2.38-.74-.56-1.56-.8-2.46-.7-.53 0-1.02.07-1.6.2-.57.14-1.02.3-1.6.52l-.5.2h-.24c-.2 0-.32-.18-.32-.47v-.76c0-.18.04-.33.12-.5.12-.16.24-.26.4-.33.67-.3 1.2-.5 1.9-.66.78-.2 1.48-.3 2.3-.28 1.48-.13 2.8.27 3.9 1.2.94 1.05 1.35 2.28 1.23 3.67zm-6.1 2.3c.6 0 1.08-.1 1.62-.3.57-.2 1.02-.48 1.43-.95.25-.28.4-.57.5-.94.12-.44.16-.83.16-1.28v-.68c-.52-.1-.94-.17-1.43-.2h-1.4c-.82-.08-1.56.12-2.2.58-.55.45-.8 1.04-.75 1.73-.04.6.12 1.15.53 1.6.45.37 1 .5 1.56.44zm12 1.6c-.2 0-.4-.04-.57-.16-.17-.17-.25-.36-.33-.6l-3.5-11.5-.1-.62c0-.24.1-.37.36-.37h1.47c.2 0 .37.03.58.14.17.17.26.36.3.58l2.5 9.97 2.38-9.94c0-.23.1-.42.3-.6.15-.1.36-.15.57-.14h1.2c.23 0 .4.03.6.15.17.2.25.37.3.6l2.33 9.95 2.55-10c.04-.22.16-.42.32-.6.17-.1.38-.16.58-.13h1.4c.16 0 .33.12.37.3V70.12s0 .2-.13.36l-3.6 11.52c-.05.22-.13.42-.3.6-.2.1-.37.14-.57.13h-1.28c-.24.03-.45-.03-.6-.16-.18-.17-.26-.37-.3-.6l-2.3-9.6-2.3 9.6c-.04.23-.12.43-.3.6-.2.12-.4.18-.6.15zm19.22.37c-.82 0-1.52-.07-2.3-.25-.66-.13-1.15-.3-1.72-.6-.2-.1-.37-.23-.45-.4-.1-.16-.13-.3-.13-.45v-.75c0-.3.13-.46.33-.46h.3l.36.16c.58.23 1.03.4 1.6.5.63.14 1.16.2 1.82.2.78.05 1.47-.1 2.17-.5.5-.3.77-.8.73-1.4.04-.4-.12-.76-.37-1.04-.45-.4-.94-.65-1.52-.8l-2.17-.67c-.95-.25-1.73-.73-2.38-1.5-.5-.64-.75-1.35-.75-2.18 0-.6.12-1.08.4-1.6.3-.5.62-.9 1.07-1.22.5-.38 1-.6 1.6-.78.66-.18 1.2-.26 1.9-.25.32-.03.6-.03.98 0l1 .16.8.23.66.26c.17.1.3.22.46.38.08.15.12.3.12.5v.7c0 .32-.13.47-.37.47-.2-.03-.37-.08-.58-.18-.95-.43-1.8-.62-2.88-.6-.7-.03-1.32.1-1.97.42-.5.3-.74.8-.7 1.35 0 .4.12.76.45 1.05.5.4 1 .65 1.6.82l2.1.67c.94.25 1.68.7 2.3 1.45.5.63.7 1.3.7 2.1 0 .62-.13 1.16-.37 1.72-.3.55-.62.95-1.1 1.32-.5.38-1 .65-1.6.83-.75.24-1.4.34-2.15.36zM-438.73 90.53c-5.6 3.8-11.36 5.57-18.15 5.55-8.55.05-15.83-2.73-22.16-8.45-.5-.4 0-1 .5-.67 7.06 4.05 14 5.9 22.2 5.9 6.08-.04 11.27-1.1 16.92-3.47.82-.36 1.5.54.7 1.13z" stroke="#fff" stroke-opacity="0" fill="#fff"/><path d="M-436.67 88.24c-.64-.8-4.16-.38-5.75-.2-.47 0-.54-.36-.1-.66 2.8-1.97 7.4-1.4 8-.74.58.67-.16 5.28-2.8 7.5-.4.33-.78.14-.6-.3.55-1.52 1.87-4.83 1.25-5.6z" stroke="#fff" stroke-opacity="0" fill="#fff"/><use xlink:href="#j" transform="matrix(1,0,0,1,-413.83333333333326,73.04086494511853) translate(0 14.222222222222223)"/><use xlink:href="#k" transform="matrix(1,0,0,1,-413.83333333333326,73.04086494511853) translate(45.333333333333336 14.222222222222223)"/><path d="M-345.08 591.7c-18.44 0-33.4-14.96-33.4-33.4 0-18.45 14.96-33.42 33.4-33.42 18.45 0 33.42 14.97 33.42 33.42 0 18.44-14.97 33.4-33.42 33.4zm0-63.94c-16.9 0-30.54 13.63-30.54 30.54 0 16.9 13.64 30.54 30.54 30.54s30.55-13.63 30.55-30.54c0-16.9-13.64-30.54-30.55-30.54z" stroke="#fff" stroke-opacity="0" fill="#693cc5"/><path d="M-329.1 578.38h-5.32c-.8 0-1.42-.64-1.42-1.43v-27.57c-2.9-1.5-5.65-2.17-8.9-2.25-3.54.08-6.5.87-9.64 2.56v27.25c0 .8-.62 1.42-1.4 1.42h-5.3c-.8 0-1.4-.63-1.4-1.42v-31c0-.44.16-.8.47-1.07 5.08-4.18 10.72-6.12 17.27-5.96 6.2-.12 11.53 1.62 16.52 5.3.37.26.54.66.54 1.1v31.63c0 .8-.62 1.42-1.43 1.42zm-3.9-2.85h2.5v-29.5c-4.37-3-8.93-4.35-14.23-4.27-5.6-.16-10.45 1.42-14.9 4.82v28.95h2.43v-26.75c0-.55.28-1.02.77-1.26 3.76-2.13 7.38-3.15 11.7-3.23 3.94.1 7.28.97 10.77 2.83h.14c.52.23.83.7.83 1.3z" stroke="#fff" stroke-opacity="0" fill="#693cc5"/><use xlink:href="#l" transform="matrix(1,0,0,1,-408.4910443910379,600.7123133901592) translate(33.40123456790123 14.222222222222223)"/><use xlink:href="#m" transform="matrix(1,0,0,1,-408.4910443910379,600.7123133901592) translate(28.462962962962962 35.55555555555556)"/><path d="M-517.3 526.38h64.77v63.83h-64.76V526.4z" stroke="#fff" stroke-opacity="0" fill="#693cc5"/><path d="M-493.72 562.93c1.14.4 2.17.6 3.38.62.77.07 1.45-.12 2.08-.57.5-.46.75-1.03.7-1.7.08-.7-.14-1.32-.66-1.8-.68-.46-1.4-.63-2.2-.57-.98.02-1.8.07-2.77.18v-1.2l.35-5.26h6.5v1.42h-5.04l-.22 3.56c.6-.1 1.1-.16 1.73-.16 1.15-.07 2.15.26 3.02 1 .77.74 1.14 1.68 1.08 2.75.04 1.1-.4 2.07-1.26 2.77-.98.77-2.08 1.12-3.33 1.07-1.23 0-2.27-.2-3.4-.7zM-479.6 557.82H-479.3c1.07-.08 2 .22 2.83.9.74.7 1.1 1.56 1.04 2.55.03 1.1-.42 2.05-1.28 2.74-1.02.76-2.12 1.1-3.38 1.03-1.2 0-2.22-.22-3.3-.7v-1.4c1.1.4 2.1.58 3.3.62.78.06 1.45-.14 2.08-.58.52-.45.77-1.04.73-1.7 0-1.43-.9-2.13-2.72-2.13-.6 0-1.1.02-1.72.08v-1.15l3.75-4.02h-5.23v-1.45h7.25v1.4z" stroke="#fff" stroke-opacity="0" fill="#fff"/><path d="M-484.9 574.47c-.18 0-.32-.04-.45-.13-2.94-1.7-5.7-2.74-9.05-3.4-1.83-.32-7.76-1.7-7.76-5.95 0-1.93.76-3.23 1.73-4.83 1.48-2.18 2.24-4.38 2.34-7 0-2.5-.64-4.62-2.06-6.74-.2-.3-.17-.7.07-1l1.4-1.7c.27-.32.7-.4 1.1-.2 1.86 1.08 3.65 1.55 5.83 1.58 2.38.04 4.4-.6 6.35-1.97.3-.22.72-.22 1 0 1.97 1.38 4 2 6.38 1.98 2.14-.02 3.97-.52 5.83-1.56.37-.22.82-.13 1.1.2l1.38 1.7c.24.27.28.68.07 1-1.42 2.07-2.04 4.22-2.07 6.73 0 3.03 1.24 5.1 2.34 7 .97 1.6 1.73 2.9 1.73 4.82 0 4.24-5.94 5.62-7.77 5.94-3.34.66-6.1 1.67-9.04 3.4-.14.1-.27.13-.45.13zm-13.46-28.5c1.34 2.26 1.96 4.5 1.96 7.1 0 3.5-1.4 5.93-2.6 7.85-.85 1.5-1.44 2.52-1.44 3.97 0 3 5.3 4.12 6.32 4.3 3.42.67 6.18 1.7 9.18 3.4 3-1.7 5.8-2.73 9.18-3.4 1.07-.18 6.35-1.3 6.35-4.3 0-1.46-.6-2.47-1.5-3.98-1.13-1.92-2.58-4.34-2.58-7.84.03-2.6.65-4.85 2.03-7.12l-.55-.66c-1.93.98-3.83 1.45-6.04 1.45-2.55.03-4.73-.57-6.9-1.95-2.14 1.38-4.35 1.98-6.9 1.95-2.2 0-4.07-.47-6.04-1.45z" stroke="#fff" stroke-opacity="0" fill="#fff"/><path d="M-484.9 579.57c-.2 0-.38-.04-.55-.17-3.07-2.17-6.04-3.48-9.7-4.25-7.13-1.28-11.35-5.14-11.35-10.25.08-2.6.77-4.8 2.28-6.97.95-1.58 1.73-2.94 1.73-4.8-.08-2.6-1.16-4.77-3.14-6.5-.4-.27-.48-.82-.17-1.2.03 0 .03-.05.03-.05 0-.08 5.1-6.08 6.25-7.6.13-.26.4-.4.65-.4.3 0 .52.1.74.3 1.63 1.92 3.75 2.98 6.34 3.1 2.42 0 4.32-1.05 6.13-3.4.35-.37.95-.46 1.34-.12.04.04.08.1.13.13 1.8 2.37 3.7 3.4 6.12 3.4 2.6-.14 4.7-1.2 6.34-3.1.22-.23.44-.3.74-.3.25 0 .5.12.64.37 1.17 1.53 6.22 7.53 6.26 7.6.13.18.2.4.17.65 0 .26-.13.43-.3.6-1.98 1.74-3.06 3.9-3.15 6.5 0 1.87.82 3.23 1.73 4.8 1.5 2.18 2.2 4.4 2.28 6.98 0 5.1-4.23 8.97-11.34 10.25-3.68.77-6.66 2.04-9.72 4.25-.13.1-.3.17-.47.17zm-18.93-33.72c2.07 2.04 3.1 4.42 3.15 7.27 0 2.34-1 4.04-1.98 5.7-1.04 1.83-2.03 3.5-2.03 6.12 0 6.2 7.56 8.04 9.84 8.47 3.76.77 6.82 2.05 9.97 4.17 3.1-2.12 6.18-3.4 9.93-4.16 2.28-.42 9.83-2.25 9.83-8.46 0-2.63-1-4.25-2.02-6.12-1-1.7-2-3.4-2-5.7.06-2.85 1.1-5.23 3.16-7.27-1.16-1.36-3.75-4.46-5.13-6.2-1.94 1.86-4.23 2.84-6.9 2.93-2.8 0-5.18-1.15-6.9-3.28-1.77 2.13-4.15 3.28-6.95 3.28-2.68-.1-4.96-1.07-6.9-2.94-1.25 1.75-3.88 4.85-5.05 6.2z" stroke="#fff" stroke-opacity="0" fill="#fff"/><use xlink:href="#n" transform="matrix(1,0,0,1,-547.2868504031453,599.2103438202482) translate(43.78395061728395 14.222222222222223)"/><use xlink:href="#o" transform="matrix(1,0,0,1,-547.2868504031453,599.2103438202482) translate(20.59876543209876 35.55555555555556)"/><path d="M-272.94-68.8a8 8 0 0 1 8-8h837.7a8 8 0 0 1 8 8v2.84a8 8 0 0 1-8 8h-837.7a8 8 0 0 1-8-8z" stroke="#000" stroke-opacity="0" stroke-width="2" fill="#fff" fill-opacity="0"/><use xlink:href="#p" transform="matrix(1,0,0,1,-268.93678054798966,-72.8039110979826) translate(305.1718312757202 14.917037037037037)"/><use xlink:href="#q" transform="matrix(1,0,0,1,-268.93678054798966,-72.8039110979826) translate(363.4252263374486 14.917037037037037)"/><use xlink:href="#r" transform="matrix(1,0,0,1,-268.93678054798966,-72.8039110979826) translate(423.6756378600823 14.917037037037037)"/><use xlink:href="#s" transform="matrix(1,0,0,1,-268.93678054798966,-72.8039110979826) translate(436.1251234567901 14.917037037037037)"/><use xlink:href="#t" transform="matrix(1,0,0,1,-268.93678054798966,-72.8039110979826) translate(487.96257201646085 14.917037037037037)"/><use xlink:href="#u" transform="matrix(1,0,0,1,-268.93678054798966,-72.8039110979826) translate(513.4563991769547 14.917037037037037)"/><path d="M-595.6 510.7h-8.48v-3.4h8.48c8.16 0 12.08-3.6 12.08-11 0-6.34-3.68-10.34-11.04-11.8-.8-.16-1.36-.82-1.36-1.58-.4-6.14-3.92-8.37-6.8-8.37-2.08.05-3.84.96-5.12 2.64-.56.7-1.6.85-2.4.3-.24-.2-.4-.46-.56-.77-1.04-3.14-2.56-5.53-4.96-7.86-5.36-5.42-12.96-6.9-20-3.85-6.32 2.9-10.24 8.72-10.48 15.72 0 .7.08 1.3.16 2.07.08.88-.48 1.64-1.28 1.84-3.44.86-9.28 3.45-9.28 11.46v.8c.4 6.04 5.44 10.35 12.08 10.35h8.48v3.4h-8.48c-8.48 0-14.96-5.68-15.44-13.5v-1.05c-.24-6.7 3.92-12.52 10.4-14.35v-1.06c.24-11.68 9.92-20.95 21.6-20.7 5.68.15 10.56 2.23 14.64 6.4 2.08 2.02 3.52 4.1 4.72 6.78 1.76-1.37 3.68-1.98 5.92-2.03 4.48 0 9.2 3.2 10.16 10.25 8.08 2.07 12.56 7.3 12.56 14.85-.08 9.33-5.6 14.45-15.6 14.45zm-18.08 0h-12.72v-3.4h12.72z" stroke="#fff" stroke-opacity="0" fill="#232f3e"/><path d="M-608.9 509.1c-.48 0-.86-.16-1.2-.5l-9.56-9.57 2.4-2.42 8.36 8.33 8.37-8.38 2.4 2.42-9.57 9.56c-.32.37-.73.56-1.2.57z" stroke="#fff" stroke-opacity="0" fill="#232f3e"/><path d="M-610.6 481.85h3.4v23.95h-3.4v-23.95zM-622.83 492.65l-8.38-8.38-8.38 8.38-2.4-2.42 9.57-9.56c.66-.67 1.7-.67 2.38 0l9.57 9.56z" stroke="#fff" stroke-opacity="0" fill="#232f3e"/><path d="M-632.9 481.85h3.4v28.75h-3.4v-28.75z" stroke="#fff" stroke-opacity="0" fill="#232f3e"/><path d="M-595.6 510.7h-48.95c-8.48 0-14.95-5.68-15.43-13.48v-1.07c-.24-6.74 3.92-12.5 10.4-14.4v-1.05-.8c.55-8.12 5.2-14.7 12.55-18.06 8.23-3.54 17.27-1.82 23.6 4.57 2.15 2.08 3.6 4.16 4.78 6.8 1.76-1.32 3.68-1.98 5.92-1.98 4.48 0 9.2 3.2 10.16 10.24 8.16 2.03 12.55 7.3 12.55 14.85-.08 9.28-5.6 14.4-15.6 14.4zm-32.96-47.18c-2.64 0-4.87.45-7.27 1.47-6.32 2.93-10.16 8.75-10.4 15.7 0 .76 0 1.42.16 2.13.08.86-.48 1.67-1.28 1.87-3.44.86-9.27 3.4-9.27 11.45v.92c.32 5.93 5.43 10.18 12.07 10.18h48.94c8.15 0 12.07-3.6 12.07-11 0-6.33-3.68-10.33-11.04-11.8-.8-.15-1.28-.8-1.36-1.57-.32-6.2-3.92-8.37-6.8-8.37-2.08.06-3.84.98-5.12 2.65-.55.7-1.6.86-2.4.3-.23-.2-.4-.45-.55-.76-1.04-3.1-2.56-5.53-4.96-7.86-3.52-3.55-7.76-5.32-12.8-5.32z" stroke="#fff" stroke-opacity="0" fill="#fff" fill-opacity="0"/><g><use xlink:href="#v" transform="matrix(1,0,0,1,-690,519.7) translate(32.376543209876544 17.77777777777778)"/></g><defs><path fill="#147eba" d="M233-177c-1 41-23 64-60 70L243 0h-38l-65-103H63V0H30v-248c88 3 205-21 203 71zM63-129c60-2 137 13 137-47 0-61-80-42-137-45v92" id="w"/><path fill="#147eba" d="M100-194c63 0 86 42 84 106H49c0 40 14 67 53 68 26 1 43-12 49-29l28 8c-11 28-37 45-77 45C44 4 14-33 15-96c1-61 26-98 85-98zm52 81c6-60-76-77-97-28-3 7-6 17-6 28h103" id="x"/><path fill="#147eba" d="M177-190C167-65 218 103 67 71c-23-6-38-20-44-43l32-5c15 47 100 32 89-28v-30C133-14 115 1 83 1 29 1 15-40 15-95c0-56 16-97 71-98 29-1 48 16 59 35 1-10 0-23 2-32h30zM94-22c36 0 50-32 50-73 0-42-14-75-50-75-39 0-46 34-46 75s6 73 46 73" id="y"/><path fill="#147eba" d="M24-231v-30h32v30H24zM24 0v-190h32V0H24" id="z"/><path fill="#147eba" d="M100-194c62-1 85 37 85 99 1 63-27 99-86 99S16-35 15-95c0-66 28-99 85-99zM99-20c44 1 53-31 53-75 0-43-8-75-51-75s-53 32-53 75 10 74 51 75" id="A"/><path fill="#147eba" d="M117-194c89-4 53 116 60 194h-32v-121c0-31-8-49-39-48C34-167 62-67 57 0H25l-1-190h30c1 10-1 24 2 32 11-22 29-35 61-36" id="B"/><g id="a"><use transform="matrix(0.05,0,0,0.05,0,0)" xlink:href="#w"/><use transform="matrix(0.05,0,0,0.05,12.950000000000001,0)" xlink:href="#x"/><use transform="matrix(0.05,0,0,0.05,22.950000000000003,0)" xlink:href="#y"/><use transform="matrix(0.05,0,0,0.05,32.95,0)" xlink:href="#z"/><use transform="matrix(0.05,0,0,0.05,36.900000000000006,0)" xlink:href="#A"/><use transform="matrix(0.05,0,0,0.05,46.900000000000006,0)" xlink:href="#B"/></g><path fill="#666" d="M199 0l-22-63H83L61 0H9l90-248h61L250 0h-51zm-33-102l-36-108c-10 38-24 72-36 108h72" id="C"/><path fill="#666" d="M128 0H69L1-190h53L99-40l48-150h52" id="D"/><path fill="#666" d="M133-34C117-15 103 5 69 4 32 3 11-16 11-54c-1-60 55-63 116-61 1-26-3-47-28-47-18 1-26 9-28 27l-52-2c7-38 36-58 82-57s74 22 75 68l1 82c-1 14 12 18 25 15v27c-30 8-71 5-69-32zm-48 3c29 0 43-24 42-57-32 0-66-3-65 30 0 17 8 27 23 27" id="E"/><path fill="#666" d="M25-224v-37h50v37H25zM25 0v-190h50V0H25" id="F"/><path fill="#666" d="M25 0v-261h50V0H25" id="G"/><path fill="#666" d="M135-194c52 0 70 43 70 98 0 56-19 99-73 100-30 1-46-15-58-35L72 0H24l1-261h50v104c11-23 29-37 60-37zM114-30c31 0 40-27 40-66 0-37-7-63-39-63s-41 28-41 65c0 36 8 64 40 64" id="H"/><path fill="#666" d="M115-3C79 11 28 4 28-45v-112H4v-33h27l15-45h31v45h36v33H77v99c-1 23 16 31 38 25v30" id="I"/><path fill="#666" d="M123 10C108 53 80 86 19 72V37c35 8 53-11 59-39L3-190h52l48 148c12-52 28-100 44-148h51" id="J"/><g id="b"><use transform="matrix(0.04938271604938272,0,0,0.04938271604938272,0,0)" xlink:href="#C"/><use transform="matrix(0.04938271604938272,0,0,0.04938271604938272,12.14814814814815,0)" xlink:href="#D"/><use transform="matrix(0.04938271604938272,0,0,0.04938271604938272,22.024691358024697,0)" xlink:href="#E"/><use transform="matrix(0.04938271604938272,0,0,0.04938271604938272,31.90123456790124,0)" xlink:href="#F"/><use transform="matrix(0.04938271604938272,0,0,0.04938271604938272,36.83950617283951,0)" xlink:href="#G"/><use transform="matrix(0.04938271604938272,0,0,0.04938271604938272,41.777777777777786,0)" xlink:href="#E"/><use transform="matrix(0.04938271604938272,0,0,0.04938271604938272,51.65432098765432,0)" xlink:href="#H"/><use transform="matrix(0.04938271604938272,0,0,0.04938271604938272,62.469135802469154,0)" xlink:href="#F"/><use transform="matrix(0.04938271604938272,0,0,0.04938271604938272,67.40740740740742,0)" xlink:href="#G"/><use transform="matrix(0.04938271604938272,0,0,0.04938271604938272,72.3456790123457,0)" xlink:href="#F"/><use transform="matrix(0.04938271604938272,0,0,0.04938271604938272,77.28395061728398,0)" xlink:href="#I"/><use transform="matrix(0.04938271604938272,0,0,0.04938271604938272,83.16049382716052,0)" xlink:href="#J"/></g><path fill="#666" d="M210 0H11v-37l134-170H24v-41h178v36L68-41h142V0" id="K"/><path fill="#666" d="M110-194c64 0 96 36 96 99 0 64-35 99-97 99-61 0-95-36-95-99 0-62 34-99 96-99zm-1 164c35 0 45-28 45-65 0-40-10-65-43-65-34 0-45 26-45 65 0 36 10 65 43 65" id="L"/><path fill="#666" d="M135-194c87-1 58 113 63 194h-50c-7-57 23-157-34-157-59 0-34 97-39 157H25l-1-190h47c2 12-1 28 3 38 12-26 28-41 61-42" id="M"/><path fill="#666" d="M185-48c-13 30-37 53-82 52C43 2 14-33 14-96s30-98 90-98c62 0 83 45 84 108H66c0 31 8 55 39 56 18 0 30-7 34-22zm-45-69c5-46-57-63-70-21-2 6-4 13-4 21h74" id="N"/><g id="c"><use transform="matrix(0.04938271604938272,0,0,0.04938271604938272,0,0)" xlink:href="#K"/><use transform="matrix(0.04938271604938272,0,0,0.04938271604938272,10.814814814814815,0)" xlink:href="#L"/><use transform="matrix(0.04938271604938272,0,0,0.04938271604938272,21.62962962962963,0)" xlink:href="#M"/><use transform="matrix(0.04938271604938272,0,0,0.04938271604938272,32.44444444444444,0)" xlink:href="#N"/></g><use transform="matrix(0.04938271604938272,0,0,0.04938271604938272,0,0)" xlink:href="#C" id="d"/><path fill="#666" d="M30-248c87 1 191-15 191 75 0 78-77 80-158 76V0H30v-248zm33 125c57 0 124 11 124-50 0-59-68-47-124-48v98" id="O"/><path fill="#666" d="M84 4C-5 8 30-112 23-190h32v120c0 31 7 50 39 49 72-2 45-101 50-169h31l1 190h-30c-1-10 1-25-2-33-11 22-28 36-60 37" id="P"/><path fill="#666" d="M115-194c53 0 69 39 70 98 0 66-23 100-70 100C84 3 66-7 56-30L54 0H23l1-261h32v101c10-23 28-34 59-34zm-8 174c40 0 45-34 45-75 0-40-5-75-45-74-42 0-51 32-51 76 0 43 10 73 51 73" id="Q"/><path fill="#666" d="M24 0v-261h32V0H24" id="R"/><path fill="#666" d="M24-231v-30h32v30H24zM24 0v-190h32V0H24" id="S"/><path fill="#666" d="M96-169c-40 0-48 33-48 73s9 75 48 75c24 0 41-14 43-38l32 2c-6 37-31 61-74 61-59 0-76-41-82-99-10-93 101-131 147-64 4 7 5 14 7 22l-32 3c-4-21-16-35-41-35" id="T"/><g id="e"><use transform="matrix(0.04938271604938272,0,0,0.04938271604938272,0,0)" xlink:href="#O"/><use transform="matrix(0.04938271604938272,0,0,0.04938271604938272,11.851851851851853,0)" xlink:href="#P"/><use transform="matrix(0.04938271604938272,0,0,0.04938271604938272,21.7283950617284,0)" xlink:href="#Q"/><use transform="matrix(0.04938271604938272,0,0,0.04938271604938272,31.60493827160494,0)" xlink:href="#R"/><use transform="matrix(0.04938271604938272,0,0,0.04938271604938272,35.50617283950618,0)" xlink:href="#S"/><use transform="matrix(0.04938271604938272,0,0,0.04938271604938272,39.40740740740741,0)" xlink:href="#T"/></g><path fill="#666" d="M185-189c-5-48-123-54-124 2 14 75 158 14 163 119 3 78-121 87-175 55-17-10-28-26-33-46l33-7c5 56 141 63 141-1 0-78-155-14-162-118-5-82 145-84 179-34 5 7 8 16 11 25" id="U"/><path fill="#666" d="M117-194c89-4 53 116 60 194h-32v-121c0-31-8-49-39-48C34-167 62-67 57 0H25l-1-190h30c1 10-1 24 2 32 11-22 29-35 61-36" id="V"/><path fill="#666" d="M100-194c63 0 86 42 84 106H49c0 40 14 67 53 68 26 1 43-12 49-29l28 8c-11 28-37 45-77 45C44 4 14-33 15-96c1-61 26-98 85-98zm52 81c6-60-76-77-97-28-3 7-6 17-6 28h103" id="W"/><path fill="#666" d="M59-47c-2 24 18 29 38 22v24C64 9 27 4 27-40v-127H5v-23h24l9-43h21v43h35v23H59v120" id="X"/><g id="f"><use transform="matrix(0.04938271604938272,0,0,0.04938271604938272,0,0)" xlink:href="#U"/><use transform="matrix(0.04938271604938272,0,0,0.04938271604938272,11.851851851851853,0)" xlink:href="#P"/><use transform="matrix(0.04938271604938272,0,0,0.04938271604938272,21.7283950617284,0)" xlink:href="#Q"/><use transform="matrix(0.04938271604938272,0,0,0.04938271604938272,31.60493827160494,0)" xlink:href="#V"/><use transform="matrix(0.04938271604938272,0,0,0.04938271604938272,41.48148148148149,0)" xlink:href="#W"/><use transform="matrix(0.04938271604938272,0,0,0.04938271604938272,51.35802469135803,0)" xlink:href="#X"/></g><path fill="#666" d="M27 0v-27h64v-190l-56 39v-29l58-41h29v221h61V0H27" id="Y"/><use transform="matrix(0.04938271604938272,0,0,0.04938271604938272,0,0)" xlink:href="#Y" id="g"/><path fill="#666" d="M147 0H94L2-248h55l64 206c17-72 42-137 63-206h54" id="Z"/><path fill="#666" d="M24-248c93 1 206-16 204 79-1 75-69 88-152 82V0H24v-248zm52 121c47 0 100 7 100-41 0-47-54-39-100-39v80" id="aa"/><path fill="#666" d="M67-125c0 53 21 87 73 88 37 1 54-22 65-47l45 17C233-25 199 4 140 4 58 4 20-42 15-125 8-235 124-281 211-232c18 10 29 29 36 50l-46 12c-8-25-30-41-62-41-52 0-71 34-72 86" id="ab"/><g id="h"><use transform="matrix(0.04938271604938272,0,0,0.04938271604938272,0,0)" xlink:href="#Z"/><use transform="matrix(0.04938271604938272,0,0,0.04938271604938272,11.851851851851853,0)" xlink:href="#aa"/><use transform="matrix(0.04938271604938272,0,0,0.04938271604938272,23.703703703703706,0)" xlink:href="#ab"/></g><path fill="#666" d="M101-251c68 0 85 55 85 127S166 4 100 4C33 4 14-52 14-124c0-73 17-127 87-127zm-1 229c47 0 54-49 54-102s-4-102-53-102c-51 0-55 48-55 102 0 53 5 102 54 102" id="ac"/><path fill="#666" d="M33 0v-38h34V0H33" id="ad"/><path fill="#666" d="M0 4l72-265h28L28 4H0" id="ae"/><path fill="#666" d="M110-160c48 1 74 30 74 79 0 53-28 85-80 85-65 0-83-55-86-122-5-90 50-162 133-122 14 7 22 21 27 39l-31 6c-5-40-67-38-82-6-9 19-15 44-15 74 11-20 30-34 60-33zm-7 138c34 0 49-23 49-58s-16-56-50-56c-29 0-50 16-49 49 1 36 15 65 50 65" id="af"/><g id="i"><use transform="matrix(0.04320987654320988,0,0,0.04320987654320988,0,0)" xlink:href="#Y"/><use transform="matrix(0.04320987654320988,0,0,0.04320987654320988,8.641975308641976,0)" xlink:href="#ac"/><use transform="matrix(0.04320987654320988,0,0,0.04320987654320988,17.283950617283953,0)" xlink:href="#ad"/><use transform="matrix(0.04320987654320988,0,0,0.04320987654320988,21.60493827160494,0)" xlink:href="#ac"/><use transform="matrix(0.04320987654320988,0,0,0.04320987654320988,30.24691358024692,0)" xlink:href="#ad"/><use transform="matrix(0.04320987654320988,0,0,0.04320987654320988,34.567901234567906,0)" xlink:href="#ac"/><use transform="matrix(0.04320987654320988,0,0,0.04320987654320988,43.20987654320988,0)" xlink:href="#ad"/><use transform="matrix(0.04320987654320988,0,0,0.04320987654320988,47.53086419753087,0)" xlink:href="#ac"/><use transform="matrix(0.04320987654320988,0,0,0.04320987654320988,56.17283950617284,0)" xlink:href="#ae"/><use transform="matrix(0.04320987654320988,0,0,0.04320987654320988,60.49382716049384,0)" xlink:href="#Y"/><use transform="matrix(0.04320987654320988,0,0,0.04320987654320988,69.13580246913581,0)" xlink:href="#af"/></g><path fill="#666" d="M275 0h-61l-44-196L126 0H64L0-248h53L97-49l45-199h58l43 199 44-199h52" id="ag"/><path fill="#666" d="M169-182c-1-43-94-46-97-3 18 66 151 10 154 114 3 95-165 93-204 36-6-8-10-19-12-30l50-8c3 46 112 56 116 5-17-69-150-10-154-114-4-87 153-88 188-35 5 8 8 18 10 28" id="ah"/><g id="j"><use transform="matrix(0.04938271604938272,0,0,0.04938271604938272,0,0)" xlink:href="#C"/><use transform="matrix(0.04938271604938272,0,0,0.04938271604938272,11.80246913580247,0)" xlink:href="#ag"/><use transform="matrix(0.04938271604938272,0,0,0.04938271604938272,28.543209876543205,0)" xlink:href="#ah"/></g><path fill="#666" d="M85 4C-2 5 27-109 22-190h50c7 57-23 150 33 157 60-5 35-97 40-157h50l1 190h-47c-2-12 1-28-3-38-12 25-28 42-61 42" id="ai"/><path fill="#666" d="M88-194c31-1 46 15 58 34l-1-101h50l1 261h-48c-2-10 0-23-3-31C134-8 116 4 84 4 32 4 16-41 15-95c0-56 19-97 73-99zm17 164c33 0 40-30 41-66 1-37-9-64-41-64s-38 30-39 65c0 43 13 65 39 65" id="aj"/><g id="k"><use transform="matrix(0.04938271604938272,0,0,0.04938271604938272,0,0)" xlink:href="#ab"/><use transform="matrix(0.04938271604938272,0,0,0.04938271604938272,12.790123456790125,0)" xlink:href="#G"/><use transform="matrix(0.04938271604938272,0,0,0.04938271604938272,17.7283950617284,0)" xlink:href="#L"/><use transform="matrix(0.04938271604938272,0,0,0.04938271604938272,28.54320987654322,0)" xlink:href="#ai"/><use transform="matrix(0.04938271604938272,0,0,0.04938271604938272,39.35802469135803,0)" xlink:href="#aj"/></g><path fill="#666" d="M33 0v-248h34V0H33" id="ak"/><path fill="#666" d="M114-163C36-179 61-72 57 0H25l-1-190h30c1 12-1 29 2 39 6-27 23-49 58-41v29" id="al"/><g id="l"><use transform="matrix(0.04938271604938272,0,0,0.04938271604938272,0,0)" xlink:href="#ak"/><use transform="matrix(0.04938271604938272,0,0,0.04938271604938272,4.938271604938272,0)" xlink:href="#V"/><use transform="matrix(0.04938271604938272,0,0,0.04938271604938272,14.814814814814817,0)" xlink:href="#X"/><use transform="matrix(0.04938271604938272,0,0,0.04938271604938272,19.75308641975309,0)" xlink:href="#W"/><use transform="matrix(0.04938271604938272,0,0,0.04938271604938272,29.629629629629633,0)" xlink:href="#al"/><use transform="matrix(0.04938271604938272,0,0,0.04938271604938272,35.50617283950618,0)" xlink:href="#V"/><use transform="matrix(0.04938271604938272,0,0,0.04938271604938272,45.38271604938272,0)" xlink:href="#W"/><use transform="matrix(0.04938271604938272,0,0,0.04938271604938272,55.25925925925927,0)" xlink:href="#X"/></g><path fill="#666" d="M143 4C61 4 22-44 18-125c-5-107 100-154 193-111 17 8 29 25 37 43l-32 9c-13-25-37-40-76-40-61 0-88 39-88 99 0 61 29 100 91 101 35 0 62-11 79-27v-45h-74v-28h105v86C228-13 192 4 143 4" id="am"/><path fill="#666" d="M141-36C126-15 110 5 73 4 37 3 15-17 15-53c-1-64 63-63 125-63 3-35-9-54-41-54-24 1-41 7-42 31l-33-3c5-37 33-52 76-52 45 0 72 20 72 64v82c-1 20 7 32 28 27v20c-31 9-61-2-59-35zM48-53c0 20 12 33 32 33 41-3 63-29 60-74-43 2-92-5-92 41" id="an"/><path fill="#666" d="M206 0h-36l-40-164L89 0H53L-1-190h32L70-26l43-164h34l41 164 42-164h31" id="ao"/><path fill="#666" d="M179-190L93 31C79 59 56 82 12 73V49c39 6 53-20 64-50L1-190h34L92-34l54-156h33" id="ap"/><g id="m"><use transform="matrix(0.04938271604938272,0,0,0.04938271604938272,0,0)" xlink:href="#am"/><use transform="matrix(0.04938271604938272,0,0,0.04938271604938272,13.827160493827162,0)" xlink:href="#an"/><use transform="matrix(0.04938271604938272,0,0,0.04938271604938272,23.703703703703706,0)" xlink:href="#X"/><use transform="matrix(0.04938271604938272,0,0,0.04938271604938272,28.641975308641978,0)" xlink:href="#W"/><use transform="matrix(0.04938271604938272,0,0,0.04938271604938272,38.51851851851852,0)" xlink:href="#ao"/><use transform="matrix(0.04938271604938272,0,0,0.04938271604938272,51.308641975308646,0)" xlink:href="#an"/><use transform="matrix(0.04938271604938272,0,0,0.04938271604938272,61.18518518518519,0)" xlink:href="#ap"/></g><path fill="#666" d="M30-248c118-7 216 8 213 122C240-48 200 0 122 0H30v-248zM63-27c89 8 146-16 146-99s-60-101-146-95v194" id="aq"/><path fill="#666" d="M190 0L58-211 59 0H30v-248h39L202-35l-2-213h31V0h-41" id="ar"/><g id="n"><use transform="matrix(0.04938271604938272,0,0,0.04938271604938272,0,0)" xlink:href="#aq"/><use transform="matrix(0.04938271604938272,0,0,0.04938271604938272,12.790123456790125,0)" xlink:href="#ar"/><use transform="matrix(0.04938271604938272,0,0,0.04938271604938272,25.58024691358025,0)" xlink:href="#U"/></g><path fill="#666" d="M233-177c-1 41-23 64-60 70L243 0h-38l-65-103H63V0H30v-248c88 3 205-21 203 71zM63-129c60-2 137 13 137-47 0-61-80-42-137-45v92" id="as"/><path fill="#666" d="M135-143c-3-34-86-38-87 0 15 53 115 12 119 90S17 21 10-45l28-5c4 36 97 45 98 0-10-56-113-15-118-90-4-57 82-63 122-42 12 7 21 19 24 35" id="at"/><path fill="#666" d="M100-194c62-1 85 37 85 99 1 63-27 99-86 99S16-35 15-95c0-66 28-99 85-99zM99-20c44 1 53-31 53-75 0-43-8-75-51-75s-53 32-53 75 10 74 51 75" id="au"/><g id="o"><use transform="matrix(0.04938271604938272,0,0,0.04938271604938272,0,0)" xlink:href="#as"/><use transform="matrix(0.04938271604938272,0,0,0.04938271604938272,12.790123456790125,0)" xlink:href="#W"/><use transform="matrix(0.04938271604938272,0,0,0.04938271604938272,22.66666666666667,0)" xlink:href="#at"/><use transform="matrix(0.04938271604938272,0,0,0.04938271604938272,31.555555555555557,0)" xlink:href="#au"/><use transform="matrix(0.04938271604938272,0,0,0.04938271604938272,41.4320987654321,0)" xlink:href="#R"/><use transform="matrix(0.04938271604938272,0,0,0.04938271604938272,45.333333333333336,0)" xlink:href="#P"/><use transform="matrix(0.04938271604938272,0,0,0.04938271604938272,55.20987654320988,0)" xlink:href="#X"/><use transform="matrix(0.04938271604938272,0,0,0.04938271604938272,60.14814814814815,0)" xlink:href="#S"/><use transform="matrix(0.04938271604938272,0,0,0.04938271604938272,64.0493827160494,0)" xlink:href="#au"/><use transform="matrix(0.04938271604938272,0,0,0.04938271604938272,73.92592592592594,0)" xlink:href="#V"/></g><path fill="#a9afb8" d="M137 0h-34L2-248h35l83 218 83-218h36" id="av"/><path fill="#a9afb8" d="M141-36C126-15 110 5 73 4 37 3 15-17 15-53c-1-64 63-63 125-63 3-35-9-54-41-54-24 1-41 7-42 31l-33-3c5-37 33-52 76-52 45 0 72 20 72 64v82c-1 20 7 32 28 27v20c-31 9-61-2-59-35zM48-53c0 20 12 33 32 33 41-3 63-29 60-74-43 2-92-5-92 41" id="aw"/><path fill="#a9afb8" d="M24 0v-261h32V0H24" id="ax"/><path fill="#a9afb8" d="M100-194c63 0 86 42 84 106H49c0 40 14 67 53 68 26 1 43-12 49-29l28 8c-11 28-37 45-77 45C44 4 14-33 15-96c1-61 26-98 85-98zm52 81c6-60-76-77-97-28-3 7-6 17-6 28h103" id="ay"/><path fill="#a9afb8" d="M117-194c89-4 53 116 60 194h-32v-121c0-31-8-49-39-48C34-167 62-67 57 0H25l-1-190h30c1 10-1 24 2 32 11-22 29-35 61-36" id="az"/><path fill="#a9afb8" d="M59-47c-2 24 18 29 38 22v24C64 9 27 4 27-40v-127H5v-23h24l9-43h21v43h35v23H59v120" id="aA"/><path fill="#a9afb8" d="M24-231v-30h32v30H24zM24 0v-190h32V0H24" id="aB"/><g id="p"><use transform="matrix(0.04248971193415638,0,0,0.04248971193415638,0,0)" xlink:href="#av"/><use transform="matrix(0.04248971193415638,0,0,0.04248971193415638,9.050308641975308,0)" xlink:href="#aw"/><use transform="matrix(0.04248971193415638,0,0,0.04248971193415638,17.548251028806582,0)" xlink:href="#ax"/><use transform="matrix(0.04248971193415638,0,0,0.04248971193415638,20.904938271604937,0)" xlink:href="#ay"/><use transform="matrix(0.04248971193415638,0,0,0.04248971193415638,29.402880658436207,0)" xlink:href="#az"/><use transform="matrix(0.04248971193415638,0,0,0.04248971193415638,37.90082304526749,0)" xlink:href="#aA"/><use transform="matrix(0.04248971193415638,0,0,0.04248971193415638,42.14979423868312,0)" xlink:href="#aB"/><use transform="matrix(0.04248971193415638,0,0,0.04248971193415638,45.50648148148147,0)" xlink:href="#az"/></g><path fill="#a9afb8" d="M194 0L95-120 63-95V0H30v-248h33v124l119-124h40L117-140 236 0h-42" id="aC"/><path fill="#a9afb8" d="M84 4C-5 8 30-112 23-190h32v120c0 31 7 50 39 49 72-2 45-101 50-169h31l1 190h-30c-1-10 1-25-2-33-11 22-28 36-60 37" id="aD"/><path fill="#a9afb8" d="M106-169C34-169 62-67 57 0H25v-261h32l-1 103c12-21 28-36 61-36 89 0 53 116 60 194h-32v-121c2-32-8-49-39-48" id="aE"/><path fill="#a9afb8" d="M114-163C36-179 61-72 57 0H25l-1-190h30c1 12-1 29 2 39 6-27 23-49 58-41v29" id="aF"/><path fill="#a9afb8" d="M96-169c-40 0-48 33-48 73s9 75 48 75c24 0 41-14 43-38l32 2c-6 37-31 61-74 61-59 0-76-41-82-99-10-93 101-131 147-64 4 7 5 14 7 22l-32 3c-4-21-16-35-41-35zm-20-42c8-23 27-35 38-54h36v5l-58 49H76" id="aG"/><g id="q"><use transform="matrix(0.04248971193415638,0,0,0.04248971193415638,0,0)" xlink:href="#aC"/><use transform="matrix(0.04248971193415638,0,0,0.04248971193415638,10.19753086419753,0)" xlink:href="#aD"/><use transform="matrix(0.04248971193415638,0,0,0.04248971193415638,18.695473251028805,0)" xlink:href="#aE"/><use transform="matrix(0.04248971193415638,0,0,0.04248971193415638,27.193415637860078,0)" xlink:href="#aw"/><use transform="matrix(0.04248971193415638,0,0,0.04248971193415638,35.691358024691354,0)" xlink:href="#aF"/><use transform="matrix(0.04248971193415638,0,0,0.04248971193415638,40.74763374485596,0)" xlink:href="#aB"/><use transform="matrix(0.04248971193415638,0,0,0.04248971193415638,44.10432098765431,0)" xlink:href="#aG"/></g><path fill="#a9afb8" d="M32 76v-337h29V76H32" id="aH"/><use transform="matrix(0.04248971193415638,0,0,0.04248971193415638,0,0)" xlink:href="#aH" id="r"/><path fill="#a9afb8" d="M205 0l-28-72H64L36 0H1l101-248h38L239 0h-34zm-38-99l-47-123c-12 45-31 82-46 123h93" id="aI"/><path fill="#a9afb8" d="M177-190C167-65 218 103 67 71c-23-6-38-20-44-43l32-5c15 47 100 32 89-28v-30C133-14 115 1 83 1 29 1 15-40 15-95c0-56 16-97 71-98 29-1 48 16 59 35 1-10 0-23 2-32h30zM94-22c36 0 50-32 50-73 0-42-14-75-50-75-39 0-46 34-46 75s6 73 46 73" id="aJ"/><path fill="#a9afb8" d="M135-143c-3-34-86-38-87 0 15 53 115 12 119 90S17 21 10-45l28-5c4 36 97 45 98 0-10-56-113-15-118-90-4-57 82-63 122-42 12 7 21 19 24 35" id="aK"/><g id="s"><use transform="matrix(0.04248971193415638,0,0,0.04248971193415638,0,0)" xlink:href="#aI"/><use transform="matrix(0.04248971193415638,0,0,0.04248971193415638,10.19753086419753,0)" xlink:href="#aD"/><use transform="matrix(0.04248971193415638,0,0,0.04248971193415638,18.695473251028805,0)" xlink:href="#aJ"/><use transform="matrix(0.04248971193415638,0,0,0.04248971193415638,27.193415637860078,0)" xlink:href="#aD"/><use transform="matrix(0.04248971193415638,0,0,0.04248971193415638,35.691358024691354,0)" xlink:href="#aK"/><use transform="matrix(0.04248971193415638,0,0,0.04248971193415638,43.3395061728395,0)" xlink:href="#aA"/></g><path fill="#a9afb8" d="M101-251c82-7 93 87 43 132L82-64C71-53 59-42 53-27h129V0H18c2-99 128-94 128-182 0-28-16-43-45-43s-46 15-49 41l-32-3c6-41 34-60 81-64" id="aL"/><path fill="#a9afb8" d="M27 0v-27h64v-190l-56 39v-29l58-41h29v221h61V0H27" id="aM"/><path fill="#a9afb8" d="M68-38c1 34 0 65-14 84H32c9-13 17-26 17-46H33v-38h35" id="aN"/><g id="t"><use transform="matrix(0.04248971193415638,0,0,0.04248971193415638,0,0)" xlink:href="#aL"/><use transform="matrix(0.04248971193415638,0,0,0.04248971193415638,8.497942386831275,0)" xlink:href="#aM"/><use transform="matrix(0.04248971193415638,0,0,0.04248971193415638,16.99588477366255,0)" xlink:href="#aN"/></g><path fill="#a9afb8" d="M101-251c68 0 85 55 85 127S166 4 100 4C33 4 14-52 14-124c0-73 17-127 87-127zm-1 229c47 0 54-49 54-102s-4-102-53-102c-51 0-55 48-55 102 0 53 5 102 54 102" id="aO"/><path fill="#a9afb8" d="M126-127c33 6 58 20 58 59 0 88-139 92-164 29-3-8-5-16-6-25l32-3c6 27 21 44 54 44 32 0 52-15 52-46 0-38-36-46-79-43v-28c39 1 72-4 72-42 0-27-17-43-46-43-28 0-47 15-49 41l-32-3c6-42 35-63 81-64 48-1 79 21 79 65 0 36-21 52-52 59" id="aP"/><g id="u"><use transform="matrix(0.04248971193415638,0,0,0.04248971193415638,0,0)" xlink:href="#aL"/><use transform="matrix(0.04248971193415638,0,0,0.04248971193415638,8.497942386831275,0)" xlink:href="#aO"/><use transform="matrix(0.04248971193415638,0,0,0.04248971193415638,16.99588477366255,0)" xlink:href="#aL"/><use transform="matrix(0.04248971193415638,0,0,0.04248971193415638,25.493827160493822,0)" xlink:href="#aP"/></g><path fill="#3a414a" d="M33 0v-248h34V0H33" id="aQ"/><path fill="#3a414a" d="M117-194c89-4 53 116 60 194h-32v-121c0-31-8-49-39-48C34-167 62-67 57 0H25l-1-190h30c1 10-1 24 2 32 11-22 29-35 61-36" id="aR"/><path fill="#3a414a" d="M59-47c-2 24 18 29 38 22v24C64 9 27 4 27-40v-127H5v-23h24l9-43h21v43h35v23H59v120" id="aS"/><path fill="#3a414a" d="M100-194c63 0 86 42 84 106H49c0 40 14 67 53 68 26 1 43-12 49-29l28 8c-11 28-37 45-77 45C44 4 14-33 15-96c1-61 26-98 85-98zm52 81c6-60-76-77-97-28-3 7-6 17-6 28h103" id="aT"/><path fill="#3a414a" d="M114-163C36-179 61-72 57 0H25l-1-190h30c1 12-1 29 2 39 6-27 23-49 58-41v29" id="aU"/><g id="v"><use transform="matrix(0.06172839506172839,0,0,0.06172839506172839,0,0)" xlink:href="#aQ"/><use transform="matrix(0.06172839506172839,0,0,0.06172839506172839,6.172839506172839,0)" xlink:href="#aR"/><use transform="matrix(0.06172839506172839,0,0,0.06172839506172839,18.51851851851852,0)" xlink:href="#aS"/><use transform="matrix(0.06172839506172839,0,0,0.06172839506172839,24.691358024691358,0)" xlink:href="#aT"/><use transform="matrix(0.06172839506172839,0,0,0.06172839506172839,37.03703703703704,0)" xlink:href="#aU"/><use transform="matrix(0.06172839506172839,0,0,0.06172839506172839,44.382716049382715,0)" xlink:href="#aR"/><use transform="matrix(0.06172839506172839,0,0,0.06172839506172839,56.72839506172839,0)" xlink:href="#aT"/><use transform="matrix(0.06172839506172839,0,0,0.06172839506172839,69.07407407407408,0)" xlink:href="#aS"/></g></defs></g></svg>